<svg height="400" viewBox="0 0 460 400" width="460" xmlns="http://www.w3.org/2000/svg"><g fill="none" fill-rule="evenodd"><rect height="382.000015" rx="14.400001" stroke="#ccc" stroke-width="2" width="442.000018" x="9" y="9"/><g transform="translate(30.800001 57.000002)"><path d="m388.799999 10.9999981c7.9529 0 14.4 6.4470999 14.4 14.4000006v247.1999993c0 7.9529-6.4471 14.4-14.4 14.4h-374.1999993c-7.95290075 0-14.40000061-6.4471-14.40000061-14.4v-247.1999993c0-7.9529007 6.44709986-14.4000006 14.40000061-14.4000006h104.3999993v2h-104.3999993c-6.74611735 0-12.23399028 5.3871846-12.40000061 12.0942396v247.5057603c0 6.746117 5.38718462 12.23399 12.09423961 12.396304l.305761.003696h374.1999993c6.746117 0 12.23399-5.387185 12.4-12.094239v-247.5057603c0-6.7461174-5.387185-12.2339903-12.094239-12.3963046l-.305761-.003696h-77.8v-2z" fill="#ccc" fill-rule="nonzero"/><g transform="translate(116.600005)"><path d="m185.999994 1.99999809c5.301934 0 9.6 4.29806658 9.6 9.60000041v.7999992c0 5.3019338-4.298066 9.6000004-9.6 9.6000004l-122.3642204-.00012c.8524953-.5668364 1.6283578-1.2397774 2.3087343-1.9999696l120.0554861.0000896c4.115063 0 7.466258-3.2705076 7.596095-7.3540329l.003905-.2459675v-.7999992c0-4.11506307-3.270507-7.46625815-7.354032-7.59609546l-.245968-.00390495-120.0563867-.00091271c-.6806971-.76037925-1.4569382-1.43343823-2.3098505-2.00030416zm-180.67728565 2.90286747c-1.46017965 1.98767193-2.32270835 4.441676-2.32270835 7.09713444 0 2.6554584.8625287 5.1094625 2.32270835 7.0971344-1.68493017-1.7290029-2.72271393-4.0918761-2.72271393-6.6971367v-.7999992c0-2.55955428 1.00168971-4.88515136 2.63443963-6.60616178z" fill="#ccc" fill-rule="nonzero"/><rect height="22" rx="11" stroke="#ccc" stroke-width="2" width="68" x="1.599994" y=".999998"/><path d="m17.0500006 16.216795c2.3085939 0 3.7500002-1.4062501 3.7500002-3.6503908v-1.0722657h-3.5507814v1.2890626h1.8339844l-.0058593.1582031c-.0351563 1.0546876-.8378907 1.763672-1.998047 1.763672-1.3945313 0-2.2734376-1.1191407-2.2734376-2.9589845 0-1.8046876.8378907-2.91210952 2.2031251-2.91210952.9843751 0 1.6933595.50390627 1.9570313 1.38867192h1.7578126c-.2460938-1.75195318-1.7167969-2.89453135-3.7148439-2.89453135-2.4609376 0-4.013672 1.71679694-4.013672 4.43554705 0 2.7597657 1.5410157 4.4531252 4.0546876 4.4531252zm8.0859379-.0820313c1.5820313 0 2.7011719-.7558594 2.9531251-1.9570313h-1.5878907c-.1816406.4394531-.6445313.6855469-1.3183594.6855469-.8906251 0-1.4531251-.6152344-1.4765626-1.5996094v-.0878907h4.4355471v-.5097656c0-2.0390626-1.1250001-3.25781264-3.029297-3.25781264-1.9218751 0-3.1054689 1.30078134-3.1054689 3.39843764 0 2.0859376 1.1601563 3.3281251 3.1289064 3.3281251zm1.3300781-4.0195314h-2.7539063c.0585937-.8671875.6152344-1.4355469 1.40625-1.4355469.7968751 0 1.3125001.5507813 1.3476563 1.4355469zm4.7753909 3.8847658v-3.732422c0-.8730469.4863281-1.435547 1.2773438-1.435547.8085937 0 1.1894531.4746094 1.1894531 1.3828126v3.7851564h1.7050782v-4.1718752c0-1.5410157-.7734375-2.41992194-2.2089844-2.41992194-.9550782 0-1.6113282.45117189-1.9101564 1.17773444h-.1054687v-1.03710944h-1.6523438v6.45117214zm8.636719.1347656c1.5820314 0 2.701172-.7558594 2.9531252-1.9570313h-1.5878907c-.1816407.4394531-.6445313.6855469-1.3183595.6855469-.890625 0-1.453125-.6152344-1.4765625-1.5996094v-.0878907h4.435547v-.5097656c0-2.0390626-1.125-3.25781264-3.029297-3.25781264-1.921875 0-3.1054688 1.30078134-3.1054688 3.39843764 0 2.0859376 1.1601563 3.3281251 3.1289063 3.3281251zm1.3300782-4.0195314h-2.7539063c.0585937-.8671875.6152344-1.4355469 1.40625-1.4355469.7968751 0 1.3125001.5507813 1.3476563 1.4355469zm4.7753908 3.8847658v-3.6093752c0-.9082031.6386719-1.4648438 1.5703126-1.4648438.2753906 0 .6738282.046875.8085938.09375v-1.50000001c-.1464844-.04687501-.4335938-.07617188-.6679688-.07617188-.8203125 0-1.4882813.48632814-1.6582032 1.13085939h-.1054687v-1.02539064h-1.6523439v6.45117214zm5.2851565.0996094c.8378907 0 1.5410157-.3574219 1.8750001-.9550782h.1054687v.8554688h1.6523438v-4.4062502c0-1.3769532-.9667969-2.18554694-2.6777344-2.18554694-1.623047 0-2.7187501.74414064-2.8300783 1.92773444h1.5703126c.140625-.4042969.5507813-.6210938 1.1660157-.6210938.703125 0 1.0898438.3222657 1.0898438.8789063v.5332032l-1.5644532.09375c-1.6054689.09375-2.5019533.7734375-2.5019533 1.9394532 0 1.1777344.8730469 1.9394532 2.1152345 1.9394532zm.5625-1.248047c-.5917969 0-1.0078125-.2988281-1.0078125-.796875 0-.4746094.3574219-.75 1.0898438-.796875l1.3066407-.0878906v.4804687c0 .6796876-.5976563 1.2011719-1.388672 1.2011719zm6.5097659 1.1484376v-8.91796911h-1.7050782v8.91796911z" fill="#a0a0a0" fill-rule="nonzero"/></g><g stroke="#ccc"><g fill="#a0a0a0" stroke-width="1.2"><rect height="1" rx=".5" width="165.8" x="39.8" y="39.599998"/><rect height="1" rx=".5" width="66.8" x="68.8" y="58.599998"/><rect height="1" rx=".5" width="167.8" x="68.8" y="73.599998"/><rect height="1" rx=".5" width="198.8" x="68.8" y="89.599998"/><rect height="1" rx=".5" width="111.8" x="41.8" y="153.599998"/><rect height="1" rx=".5" width="35.8" x="71.8" y="168.599998"/><rect height="1" rx=".5" width="136.8" x="71.8" y="183.599998"/><rect height="1" rx=".5" width="128.8" x="215.8" y="58.599998"/></g><g stroke-width="2"><rect height="8" rx="4" width="8" x="56.2" y="54.999998"/><rect height="8" rx="4" width="8" x="56.2" y="70.999998"/><rect height="8" rx="4" width="8" x="56.2" y="85.999998"/><rect height="8" rx="4" width="8" x="57.2" y="165.999998"/><rect height="8" rx="4" width="8" x="57.2" y="179.999998"/><rect height="10" rx="5" width="87" x="216.2" y="34.999998"/><rect height="10" rx="5" width="66" x="141.2" y="53.999998"/><rect height="10" rx="5" width="88" x="244.2" y="69.999998"/></g></g></g><g transform="translate(30.800001 18.8)"><path d="m126.037505 14.2601563c2.545313 0 4.113281-1.2515626 4.113281-3.2765627 0-1.56796878-.878906-2.44687507-2.917968-2.88281258l-1.223438-.26015626c-1.188281-.26015627-1.673438-.63281253-1.673438-1.27265631 0-.79453128.703125-1.30781255 1.764844-1.30781255 1.026563 0 1.771875.54140627 1.870313 1.37109381h1.996875c-.063281-1.79296882-1.645313-3.03750012-3.88125-3.03750012-2.341407 0-3.88125 1.25156255-3.88125 3.14296887 0 1.53984381.907031 2.4890626 2.75625 2.88281262l1.321875.28828126c1.244531.27421876 1.750781.66093756 1.750781 1.32890626 0 .7875001-.780469 1.3429688-1.884375 1.3429688-1.195313 0-2.025-.5414062-2.123438-1.3851563h-2.053125c.077344 1.8773439 1.645313 3.0656252 4.064063 3.0656252zm9.288282-.0984375c1.898437 0 3.241406-.9070313 3.54375-2.3484376h-1.905469c-.217969.5273437-.773438.8226562-1.582031.8226562-1.06875 0-1.74375-.7382812-1.771875-1.9195313v-.1054687h5.322656v-.61171881c0-2.4468751-1.35-3.90937515-3.635156-3.90937515-2.30625 0-3.726563 1.56093756-3.726563 4.07812516 0 2.5031251 1.392188 3.9937502 3.754688 3.9937502zm1.596093-4.82343774h-3.304687c.070312-1.04062504.738281-1.72265631 1.6875-1.72265631.95625 0 1.575.66093752 1.617187 1.72265631zm7.094532 4.82343774c2.017969 0 3.283594-1.1109376 3.452344-2.8125002h-1.9125c-.154688.7734376-.703125 1.1882813-1.539844 1.1882813-1.096875 0-1.722656-.8648437-1.722656-2.4257813 0-1.53984382.61875-2.3906251 1.722656-2.3906251.871875 0 1.399219.49218752 1.539844 1.23750005h1.9125c-.16875-1.72968757-1.399219-2.86875011-3.452344-2.86875011-2.425781 0-3.789844 1.4695313-3.789844 4.02187516 0 2.5804688 1.371094 4.0500002 3.789844 4.0500002zm7.692188 0c1.174219 0 1.898437-.5062501 2.264062-1.4062501h.126563v1.2445313h1.982812v-7.74140656h-2.046093v4.47187516c0 1.0617188-.548438 1.7156251-1.567969 1.7156251-.942188 0-1.427344-.5554688-1.427344-1.6523438v-4.53515646h-2.046094v5.04140646c0 1.8000001 1.040625 2.8617189 2.714063 2.8617189zm8.472656-.1617188v-4.33125017c0-1.0898438.766407-1.75781257 1.884375-1.75781257.330469 0 .808594.05625.970313.1125v-1.80000007c-.175781-.05625-.520313-.09140625-.801563-.09140625-.984375 0-1.785937.58359377-1.989843 1.3570313h-.126563v-1.2304688h-1.982812v7.74140656zm5.259376-8.92968785c.632812 0 1.153125-.50625002 1.153125-1.13906255 0-.63984378-.520313-1.1460938-1.153125-1.1460938-.632813 0-1.160157.50625002-1.160157 1.1460938 0 .63281253.527344 1.13906255 1.160157 1.13906255zm1.019531 8.92968785v-7.74140656h-2.046094v7.74140656zm5.280469.028125c.39375 0 .773437-.0421875 1.026562-.0914063v-1.5117188c-.196875.0210938-.3375.0351563-.604687.0351563-.696094 0-1.005469-.3234375-1.005469-1.0195313v-3.55781264h1.610156v-1.55390631h-1.610156v-1.91953133h-2.046094v1.91953133h-1.209375v1.55390631h1.209375v4.02890644c0 1.5046875.745313 2.1164063 2.629688 2.1164063zm3.691406 2.7843751c1.933594 0 2.882813-.6890625 3.54375-2.6648438l2.671875-7.88906286h-2.165625l-1.63125 5.90625026h-.126562l-1.63125-5.90625026h-2.257032l2.721094 7.78359406-.070312.2953125c-.16875.6257813-.604688.8789063-1.371094.8789063-.084375 0-.39375-.0070313-.464063-.0210938v1.5960939c.084375.0140625.703125.0210937.780469.0210937zm14.625001-2.6226563c1.244531 0 2.404687-.3796876 3.157031-1.0265626l.780469.8367188h2.299219l-1.884375-1.9757813c.548437-.7523438.864844-1.8281251.864844-3.07968765v-.59062502h-1.722657v.47109376c0 .87890629-.119531 1.48359381-.358594 1.92656261l-1.947656-2.08828136c1.420313-.76640628 2.067188-1.60312507 2.067188-2.65078136 0-1.3710938-1.174219-2.32734384-2.833594-2.32734384-1.666406 0-2.889844 1.00546879-2.889844 2.36953134 0 .73828128.330469 1.37109381 1.258594 2.32734385-.05625.028125-.407813.22500001-.45.24609376-1.307813.71015627-1.891407 1.54687501-1.891407 2.71406261 0 1.7296876 1.392188 2.8476564 3.550782 2.8476564zm.239062-6.48984405c-.696093-.66796878-.942187-1.06875004-.942187-1.53984381 0-.64687503.471094-1.1039063 1.132031-1.1039063.660938 0 1.117969.45000002 1.117969 1.1039063 0 .60468752-.379688 1.06171879-1.307813 1.53984381zm-.028125 4.99921895c-1.096875 0-1.842187-.6117188-1.842187-1.5257813 0-.6328125.351562-1.1460938 1.089844-1.56093757.077343-.04218751.217968-.11250001.295312-.14062501l2.327344 2.51718758c-.400781.4359375-1.132031.7101563-1.870313.7101563zm13.275001 1.3007813v-3.1992189h2.003906c2.1375 0 3.621094-1.39218753 3.621094-3.45937511 0-2.09531259-1.427344-3.48750014-3.515625-3.48750014h-4.232813v10.14609415zm1.539844-4.86562519h-1.539844v-3.5929689h1.546875c1.223437 0 1.919531.62578128 1.919531 1.80703133 0 1.15312504-.710156 1.78593757-1.926562 1.78593757zm7.882031 4.86562519v-4.33125017c0-1.0898438.766406-1.75781257 1.884375-1.75781257.330469 0 .808594.05625.970313.1125v-1.80000007c-.175781-.05625-.520313-.09140625-.801563-.09140625-.984375 0-1.785937.58359377-1.989844 1.3570313h-.126562v-1.2304688h-1.982813v7.74140656zm5.259375-8.92968785c.632813 0 1.153125-.50625002 1.153125-1.13906255 0-.63984378-.520312-1.1460938-1.153125-1.1460938-.632812 0-1.160156.50625002-1.160156 1.1460938 0 .63281253.527344 1.13906255 1.160156 1.13906255zm1.019532 8.92968785v-7.74140656h-2.046094v7.74140656zm6.398437 0 2.678907-7.74140656h-2.158594l-1.589063 5.82187526h-.126562l-1.603125-5.82187526h-2.200781l2.692968 7.74140656zm6.187501.1195313c1.005469 0 1.849219-.4289063 2.25-1.1460938h.126562v1.0265625h1.982813v-5.28750021c0-1.65234382-1.160156-2.62265635-3.213281-2.62265635-1.947657 0-3.262501.89296878-3.396094 2.31328134h1.884375c.16875-.48515627.660937-.74531253 1.399219-.74531253.84375 0 1.307812.38671876 1.307812 1.05468754v.63984378l-1.877344.1125c-1.926562.1125-3.002344.92812503-3.002344 2.32734383 0 1.4132813 1.047657 2.3273439 2.538282 2.3273439zm.675-1.4976564c-.710157 0-1.209375-.3585937-1.209375-.95625 0-.5695313.428906-.9 1.307812-.95625l1.567969-.1054688v.5765625c0 .8156251-.717187 1.4414063-1.666406 1.4414063zm9.105469 1.5398439c2.017969 0 3.283594-1.1109376 3.452344-2.8125002h-1.9125c-.154688.7734376-.703125 1.1882813-1.539844 1.1882813-1.096875 0-1.722656-.8648437-1.722656-2.4257813 0-1.53984382.61875-2.3906251 1.722656-2.3906251.871875 0 1.399219.49218752 1.539844 1.23750005h1.9125c-.16875-1.72968757-1.399219-2.86875011-3.452344-2.86875011-2.425781 0-3.789844 1.4695313-3.789844 4.02187516 0 2.5804688 1.371094 4.0500002 3.789844 4.0500002zm6.011719 2.6507813c1.933594 0 2.882812-.6890625 3.54375-2.6648438l2.671875-7.88906286h-2.165625l-1.63125 5.90625026h-.126563l-1.63125-5.90625026h-2.257031l2.721094 7.78359406-.070313.2953125c-.16875.6257813-.604687.8789063-1.371093.8789063-.084375 0-.39375-.0070313-.464063-.0210938v1.5960939c.084375.0140625.703125.0210937.780469.0210937z" fill="#a0a0a0" fill-rule="nonzero"/><g stroke="#ccc"><g stroke-width="2.4"><circle cx="3.6" cy="8.4" r="3.6"/><circle cx="16.800001" cy="8.4" r="3.6"/><circle cx="30.000001" cy="8.4" r="3.6"/></g><rect height="16" rx="8" stroke-width="2" width="101" x="306.199999" y="1.2"/><g stroke-width="2.4"><path d="m317.400013 10.2 3 3.000001" stroke-linecap="round"/><circle cx="315.600012" cy="8.4" r="2.4"/></g></g><path d="m106.800004 3.60000014c.662742 0 1.2.53725832 1.2 1.20000005s-.537258 1.20000005-1.2 1.20000005c-.662741 0-1.2-.53725832-1.2-1.20000005s.537259-1.20000005 1.2-1.20000005zm0 3.60000015c.662742 0 1.2.53725832 1.2 1.20000004 0 .66274173-.537258 1.20000005-1.2 1.20000005-.662741 0-1.2-.53725832-1.2-1.20000005 0-.66274172.537259-1.20000004 1.2-1.20000004zm0 3.60000011c.662742 0 1.2.5372584 1.2 1.2000001s-.537258 1.2-1.2 1.2c-.662741 0-1.2-.5372583-1.2-1.2s.537259-1.2000001 1.2-1.2000001zm-7.2 0c.662742 0 1.2.5372584 1.2 1.2000001s-.537258 1.2-1.2 1.2c-.6627418 0-1.2000001-.5372583-1.2000001-1.2s.5372583-1.2000001 1.2000001-1.2000001zm3.6 0c.662742 0 1.2.5372584 1.2 1.2000001s-.537258 1.2-1.2 1.2-1.2-.5372583-1.2-1.2.537258-1.2000001 1.2-1.2000001zm7.2 0c.662742 0 1.2.5372584 1.2 1.2000001s-.537258 1.2-1.2 1.2c-.662741 0-1.2-.5372583-1.2-1.2s.537259-1.2000001 1.2-1.2000001zm-10.8-3.60000011c.662742 0 1.2.53725832 1.2 1.20000004 0 .66274173-.537258 1.20000005-1.2 1.20000005-.6627418 0-1.2000001-.53725832-1.2000001-1.20000005 0-.66274172.5372583-1.20000004 1.2000001-1.20000004zm3.6 0c.662742 0 1.2.53725832 1.2 1.20000004 0 .66274173-.537258 1.20000005-1.2 1.20000005s-1.2-.53725832-1.2-1.20000005c0-.66274172.537258-1.20000004 1.2-1.20000004zm7.2 0c.662742 0 1.2.53725832 1.2 1.20000004 0 .66274173-.537258 1.20000005-1.2 1.20000005-.662741 0-1.2-.53725832-1.2-1.20000005 0-.66274172.537259-1.20000004 1.2-1.20000004zm-10.8-3.60000015c.662742 0 1.2.53725832 1.2 1.20000005s-.537258 1.20000005-1.2 1.20000005c-.6627418 0-1.2000001-.53725832-1.2000001-1.20000005s.5372583-1.20000005 1.2000001-1.20000005zm3.6 0c.662742 0 1.2.53725832 1.2 1.20000005s-.537258 1.20000005-1.2 1.20000005-1.2-.53725832-1.2-1.20000005.537258-1.20000005 1.2-1.20000005zm7.2 0c.662742 0 1.2.53725832 1.2 1.20000005s-.537258 1.20000005-1.2 1.20000005c-.662741 0-1.2-.53725832-1.2-1.20000005s.537259-1.20000005 1.2-1.20000005z" fill="#ccc"/><g stroke="#ccc" stroke-linecap="round" stroke-width="2.4"><path d="m57.6000023 4.80000019-3.6000002 3.60000014 3.6000002 3.60000017"/><path d="m81.6000032 4.80000019-3.6000001 3.60000014 3.6000001 3.60000017" transform="matrix(-1 0 0 1 159.600006 0)"/></g></g><rect fill="#ccc" height="2" rx="1" width="160" x="56" y="367"/><g transform="translate(32.200001 356.200014)"><rect fill="#a0a0a0" height="11" rx="2.4" width="14" x=".799999" y="6.799986"/><path d="m3.799999 9.79998612v-5c0-2.209139 1.790861-4 4-4s4 1.790861 4 4v3.2" stroke="#a0a0a0" stroke-width="2"/></g><rect height="10" rx="4.8" stroke="#ccc" stroke-width="2" width="57" x="356" y="362"/><rect height="10" rx="5" stroke="#ccc" stroke-width="2" width="10" x="423" y="362"/><rect fill="#ededed" height="77" rx="14.400001" width="376" x="43" y="254"/><rect fill="#262626" height="34" rx="10.08" width="96" x="313" y="272"/><g fill-rule="nonzero" transform="translate(42.800001 254.00001)"><path d="m295.068997 41.8000011 1.092656-3.4453125h4.990781l1.072969 3.4453125h3.218906l-4.931719-14.2045315h-3.494531l-4.931719 14.2045315zm5.453437-5.6700001h-3.720937l1.781718-5.6503126h.177188zm9.516938 5.6700001v-14.9821878h-2.864531v14.9821878zm5.431781 0v-14.9821878h-2.864531v14.9821878zm7.282407.2264063c3.337031 0 5.345156-2.1065625 5.345156-5.6503126 0-3.5142189-2.037656-5.6503127-5.345156-5.6503127s-5.345157 2.1459376-5.345157 5.6503127c0 3.5339063 2.008125 5.6503126 5.345157 5.6503126zm0-2.2640626c-1.535625 0-2.401875-1.2403125-2.401875-3.38625 0-2.1262501.876093-3.3764064 2.401875-3.3764064 1.515937 0 2.401875 1.2501563 2.401875 3.3764064 0 2.1459375-.876094 3.38625-2.401875 3.38625zm11.800687 2.0376563 1.919532-7.5600001h.177187l1.939219 7.5600001h3.051563l2.884218-10.837969h-2.844843l-1.614376 7.845469h-.177187l-1.909688-7.845469h-2.736562l-1.899844 7.845469h-.177187l-1.614375-7.845469h-2.903907l2.894063 10.837969z" fill="#fff"/><path d="m16.1460944 27.4531255c2.4609376 0 3.9867189-1.2234375 3.9867189-3.1921876 0-1.5398438-.8648438-2.3976563-2.9250001-2.8687501l-1.1671876-.2671875c-1.2585938-.2953125-1.771875-.6960938-1.771875-1.3921876 0-.8789063.7734375-1.4554688 1.940625-1.4554688 1.1109376 0 1.8984376.5695313 2.0250001 1.4765626h1.7367188c-.084375-1.7367188-1.6242188-2.9531251-3.7546876-2.9531251-2.2710938 0-3.7757814 1.2234375-3.7757814 3.0515626 0 1.5046875.8648438 2.4117188 2.7070314 2.8335938l1.3148438.3023438c1.3007813.3023438 1.85625.7523438 1.85625 1.4906251 0 .8648438-.8648438 1.490625-2.0601563 1.490625-1.2867188 0-2.1867188-.590625-2.2992188-1.51875h-1.7718751c.0914062 1.8351563 1.63125 3.0023438 3.9585939 3.0023438zm6.686719 2.5312501c1.7226563 0 2.5453126-.6257812 3.1992189-2.5171876l2.7773438-7.952344h-1.8421875l-1.7929688 6.0328127h-.1195313l-1.8000001-6.0328127h-1.9125001l2.7492189 7.7132815-.0914062.3585938c-.2250001.7242188-.6398438 1.0054688-1.3781251 1.0054688-.1195313 0-.3796875-.0070313-.478125-.0210938v1.3851563c.1125.0210938.5835938.028125.6890625.028125zm10.3640629-2.6296876c1.9195313 0 3.2765626-.9773438 3.2765626-2.4468751 0-1.1320313-.6820312-1.7578125-2.1515625-2.0953125l-1.3570313-.3023438c-.7734376-.1828125-1.1390626-.4570313-1.1390626-.8929688 0-.5695313.5976563-.95625 1.3921876-.95625.815625 0 1.3289063.3515625 1.4554688.8929688h1.6382813c-.1265625-1.3851564-1.2726563-2.1867189-3.1007814-2.1867189-1.8140626 0-3.0796876.9632813-3.0796876 2.3414064 0 1.153125.6960938 1.828125 2.1726563 2.165625l1.3640626.3164063c.73125.16875 1.0617188.45 1.0617188.8859375 0 .5835938-.6117188.9843751-1.4906251.9843751-.871875 0-1.4132813-.3515625-1.5820313-.9210938h-1.7226563c.1335937 1.3851563 1.3429688 2.2148438 3.2625001 2.2148438zm8.0648441-.1195312c.3375 0 .6609375-.028125.9140625-.0773438v-1.3359375c-.2109375.0210937-.3445312.0351562-.590625.0351562-.73125 0-1.0546875-.3445312-1.0546875-1.1109375v-3.8250002h1.6453125v-1.3570313h-1.6453125v-1.9335938h-1.7367189v1.9335938h-1.2164063v1.3570313h1.2164063v4.2398439c0 1.4835939.7031251 2.0742189 2.4679689 2.0742189zm5.9062502.1195312c1.8140626 0 3.1007814-.871875 3.4171877-2.2570313h-1.6523439c-.253125.5765625-.8507812.9-1.715625.9-1.1460938 0-1.8843751-.815625-1.9265626-2.1164063v-.0914063h5.3718752v-.5554687c0-2.4117189-1.3148438-3.8671877-3.5085939-3.8671877-2.2289063 0-3.6140626 1.5539063-3.6140626 4.0218752 0 2.4609376 1.3640625 3.9656251 3.6281251 3.9656251zm1.7507813-4.7250002h-3.6210939c.0773438-1.153125.8085938-1.9054688 1.8492189-1.9054688 1.0476563 0 1.7367188.7382813 1.771875 1.9054688zm5.2382815 4.5703127v-4.6757814c0-.95625.6398438-1.6804688 1.5046876-1.6804688.8578125 0 1.3921875.5203125 1.3921875 1.3710938v4.9851564h1.6945313v-4.8023439c0-.8789063.5976563-1.5539063 1.5046876-1.5539063.9351563 0 1.4062501.4992187 1.4062501 1.4976563v4.8585939h1.7367188v-5.2875002c0-1.5960938-.9281251-2.5453126-2.4679689-2.5453126-1.06875 0-1.9546876.5484375-2.3343751 1.3851563h-.1195312c-.3234375-.8507813-1.0617188-1.3851563-2.1234376-1.3851563-1.0195313 0-1.8070313.5203125-2.1375001 1.3851563h-.1195313v-1.2375h-1.6804688v7.6851565zm18.035157.1546875c1.9195313 0 3.2765626-.9773438 3.2765626-2.4468751 0-1.1320313-.6820313-1.7578125-2.1515626-2.0953125l-1.3570313-.3023438c-.7734375-.1828125-1.1390625-.4570313-1.1390625-.8929688 0-.5695313.5976562-.95625 1.3921875-.95625.8156251 0 1.3289063.3515625 1.4554688.8929688h1.6382813c-.1265625-1.3851564-1.2726563-2.1867189-3.1007813-2.1867189-1.8140626 0-3.0796877.9632813-3.0796877 2.3414064 0 1.153125.6960938 1.828125 2.1726564 2.165625l1.3640625.3164063c.7312501.16875 1.0617188.45 1.0617188.8859375 0 .5835938-.6117187.9843751-1.490625.9843751-.8718751 0-1.4132813-.3515625-1.5820313-.9210938h-1.7226564c.1335938 1.3851563 1.3429688 2.2148438 3.2625002 2.2148438zm8.3601566 0c2.2992188 0 3.6984376-1.5046875 3.6984376-4.0007814 0-2.4820313-1.4062501-3.9867189-3.6984376-3.9867189-2.2851564 0-3.6984377 1.5117188-3.6984377 3.9867189 0 2.4960939 1.3921876 4.0007814 3.6984377 4.0007814zm0-1.4273438c-1.2164063 0-1.9125001-.9421875-1.9125001-2.5664063s.6960938-2.5664064 1.9125001-2.5664064c1.209375 0 1.9054688.9421876 1.9054688 2.5664064s-.6890626 2.5664063-1.9054688 2.5664063zm7.755469 1.2726563v-6.2789065h1.6523438v-1.3570313h-1.6734375v-.7101563c0-.73125.3234375-1.096875 1.1460938-1.096875.2460937 0 .4570312.0210938.5976562.0421875v-1.2585938c-.28125-.0492188-.5976562-.0703125-.9703125-.0703125-1.7085938 0-2.4890626.7523438-2.4890626 2.2851563v.8085938h-1.2585938v1.3570313h1.2585938v6.2789065zm6.3562503.0351563c.3375 0 .6609375-.028125.9140625-.0773438v-1.3359375c-.2109375.0210937-.3445313.0351562-.590625.0351562-.7312501 0-1.0546876-.3445312-1.0546876-1.1109375v-3.8250002h1.6453126v-1.3570313h-1.6453126v-1.9335938h-1.7367188v1.9335938h-1.2164063v1.3570313h1.2164063v4.2398439c0 1.4835939.703125 2.0742189 2.4679689 2.0742189zm5.9343747-.0351563 1.490626-5.5687502h.119531l1.497656 5.5687502h1.835156l2.081251-7.6851565h-1.736719l-1.272657 5.7726564h-.119531l-1.490625-5.7726564h-1.666406l-1.4765628 5.7726564h-.1195312l-1.2796876-5.7726564h-1.7578126l2.0812501 7.6851565zm10.659376.1265625c1.005469 0 1.849219-.4359375 2.278125-1.18125h.119531v1.0546875h1.680469v-5.2523439c0-1.6242188-1.110937-2.5804689-3.086719-2.5804689-1.828125 0-3.100781.8578125-3.241406 2.2007814h1.645312c.161719-.5273438.710157-.8156251 1.511719-.8156251.942188 0 1.448438.4289063 1.448438 1.1953126v.6609375l-1.982813.1195312c-1.870312.1054688-2.917969.9140626-2.917969 2.2921876 0 1.4062501 1.061719 2.3062501 2.545313 2.3062501zm.513281-1.3429688c-.773437 0-1.328906-.3867187-1.328906-1.0476563 0-.6398437.457031-.9984375 1.434375-1.0617188l1.736719-.1195312v.6257813c0 .9140625-.7875 1.603125-1.842188 1.603125zm7.403907 1.2164063v-4.4648439c0-1.0828125.7875-1.7859376 1.919531-1.7859376.295313 0 .759375.0492188.892969.0984375v-1.5890625c-.161719-.0421875-.471094-.0703125-.724219-.0703125-.991406 0-1.821094.5625-2.032031 1.321875h-.119532v-1.1953125h-1.680468v7.6851565zm7.488281.1546875c1.814063 0 3.100782-.871875 3.417188-2.2570313h-1.652344c-.253125.5765625-.850781.9-1.715625.9-1.146094 0-1.884375-.815625-1.926563-2.1164063v-.0914063h5.371876v-.5554687c0-2.4117189-1.314844-3.8671877-3.508594-3.8671877-2.228907 0-3.614063 1.5539063-3.614063 4.0218752 0 2.4609376 1.364063 3.9656251 3.628125 3.9656251zm1.750782-4.7250002h-3.621094c.077343-1.153125.808593-1.9054688 1.849219-1.9054688 1.047656 0 1.736718.7382813 1.771875 1.9054688zm9.632812 4.5703127v-6.2789065h1.652344v-1.3570313h-1.673437v-.7101563c0-.73125.323437-1.096875 1.146094-1.096875.246093 0 .457031.0210938.597656.0421875v-1.2585938c-.28125-.0492188-.597656-.0703125-.970313-.0703125-1.708594 0-2.489062.7523438-2.489062 2.2851563v.8085938h-1.258594v1.3570313h1.258594v6.2789065zm5.076563 0v-4.4648439c0-1.0828125.7875-1.7859376 1.919532-1.7859376.295312 0 .759375.0492188.892968.0984375v-1.5890625c-.161718-.0421875-.471093-.0703125-.724218-.0703125-.991407 0-1.821094.5625-2.032032 1.321875h-.119531v-1.1953125h-1.680469v7.6851565zm7.558594.1546875c2.299219 0 3.698438-1.5046875 3.698438-4.0007814 0-2.4820313-1.40625-3.9867189-3.698438-3.9867189-2.285156 0-3.698437 1.5117188-3.698437 3.9867189 0 2.4960939 1.392187 4.0007814 3.698437 4.0007814zm0-1.4273438c-1.216406 0-1.9125-.9421875-1.9125-2.5664063s.696094-2.5664064 1.9125-2.5664064c1.209375 0 1.905469.9421876 1.905469 2.5664064s-.689062 2.5664063-1.905469 2.5664063zm7.200001 1.2726563v-4.6757814c0-.95625.639843-1.6804688 1.504687-1.6804688.857813 0 1.392188.5203125 1.392188 1.3710938v4.9851564h1.694531v-4.8023439c0-.8789063.597656-1.5539063 1.504688-1.5539063.935156 0 1.40625.4992187 1.40625 1.4976563v4.8585939h1.736718v-5.2875002c0-1.5960938-.928125-2.5453126-2.467968-2.5453126-1.06875 0-1.954688.5484375-2.334376 1.3851563h-.119531c-.323437-.8507813-1.061719-1.3851563-2.123437-1.3851563-1.019532 0-1.807032.5203125-2.1375 1.3851563h-.119532v-1.2375h-1.680469v7.6851565zm17.929688.1265625c1.06875 0 1.954687-.4992187 2.390625-1.3429688h.119531v1.2164063h1.6875v-10.6593754h-1.74375v4.1976564h-.119531c-.407813-.84375-1.279688-1.35-2.334375-1.35-1.940625 0-3.164063 1.5328125-3.164063 3.9656251 0 2.4398439 1.216406 3.9726564 3.164063 3.9726564zm.541406-1.4484375c-1.195313 0-1.919531-.9421876-1.919531-2.5171876 0-1.5679688.73125-2.5171876 1.919531-2.5171876 1.195313 0 1.933594.9632813 1.933594 2.5171876 0 1.5609375-.73125 2.5171876-1.933594 2.5171876zm9.105469 1.4765625c1.814063 0 3.100781-.871875 3.417188-2.2570313h-1.652344c-.253125.5765625-.850781.9-1.715625.9-1.146094 0-1.884375-.815625-1.926563-2.1164063v-.0914063h5.371876v-.5554687c0-2.4117189-1.314844-3.8671877-3.508594-3.8671877-2.228907 0-3.614063 1.5539063-3.614063 4.0218752 0 2.4609376 1.364063 3.9656251 3.628125 3.9656251zm1.750781-4.7250002h-3.621093c.077343-1.153125.808593-1.9054688 1.849218-1.9054688 1.047657 0 1.736719.7382813 1.771875 1.9054688zm7.481251 4.5703127 2.721094-7.6851565h-1.842188l-1.764844 5.9765627h-.119531l-1.778906-5.9765627h-1.870313l2.735156 7.6851565zm7.439063.1546875c1.814062 0 3.100781-.871875 3.417187-2.2570313h-1.652344c-.253125.5765625-.850781.9-1.715625.9-1.146094 0-1.884375-.815625-1.926562-2.1164063v-.0914063h5.371875v-.5554687c0-2.4117189-1.314844-3.8671877-3.508594-3.8671877-2.228906 0-3.614063 1.5539063-3.614063 4.0218752 0 2.4609376 1.364063 3.9656251 3.628126 3.9656251zm1.750781-4.7250002h-3.621094c.077344-1.153125.808594-1.9054688 1.849219-1.9054688 1.047656 0 1.736719.7382813 1.771875 1.9054688zm5.308594 4.5703127v-10.6593754h-1.74375v10.6593754zm5.519531.1546875c2.299219 0 3.698438-1.5046875 3.698438-4.0007814 0-2.4820313-1.40625-3.9867189-3.698438-3.9867189-2.285156 0-3.698437 1.5117188-3.698437 3.9867189 0 2.4960939 1.392187 4.0007814 3.698437 4.0007814zm0-1.4273438c-1.216406 0-1.9125-.9421875-1.9125-2.5664063s.696094-2.5664064 1.9125-2.5664064c1.209375 0 1.905469.9421876 1.905469 2.5664064s-.689062 2.5664063-1.905469 2.5664063zm7.200001 3.8250002v-3.7195314h.119531c.39375.815625 1.244531 1.29375 2.348437 1.29375 1.940625 0 3.150001-1.5257813 3.150001-3.9656251 0-2.4609376-1.223438-3.9726564-3.171094-3.9726564-1.054688 0-1.947657.5273437-2.390625 1.3992188h-.119532v-1.2726563h-1.680469v10.2375004zm1.898437-3.8742189c-1.188281 0-1.926562-.9632813-1.933594-2.5171876.007032-1.5539063.752344-2.5171876 1.940625-2.5171876 1.195313 0 1.919532.9421875 1.919532 2.5171876 0 1.575-.717188 2.5171876-1.926563 2.5171876zm8.71875 1.4765625c1.814063 0 3.100782-.871875 3.417188-2.2570313h-1.652344c-.253125.5765625-.850781.9-1.715625.9-1.146094 0-1.884375-.815625-1.926562-2.1164063v-.0914063h5.371875v-.5554687c0-2.4117189-1.314844-3.8671877-3.508594-3.8671877-2.228906 0-3.614063 1.5539063-3.614063 4.0218752 0 2.4609376 1.364063 3.9656251 3.628125 3.9656251zm1.750782-4.7250002h-3.621094c.077344-1.153125.808594-1.9054688 1.849219-1.9054688 1.047656 0 1.736719.7382813 1.771875 1.9054688zm5.238281 4.5703127v-4.4648439c0-1.0828125.7875-1.7859376 1.919532-1.7859376.295312 0 .759375.0492188.892968.0984375v-1.5890625c-.161718-.0421875-.471093-.0703125-.724218-.0703125-.991407 0-1.821094.5625-2.032032 1.321875h-.119531v-1.1953125h-1.680469v7.6851565zm-225.4359462 11.0867185.815625-4.2328126h-1.29375l-1.2937501 4.2328126zm3.1500001 0 .6960938-4.2328126h-1.29375l-1.1671876 4.2328126zm4.8796877 5.9132815v-3.8179689h2.0109376l1.9898438 3.8179689h2.0742189l-2.2148439-4.0921876c1.2093751-.4359376 1.9125001-1.5539065 1.9125001-2.8968752 0-1.940625-1.3359375-3.1570313-3.4664064-3.1570313h-4.1203126v10.1460941zm2.0953126-5.2382814h-2.0953126v-3.4382814h2.0531251c1.1531251 0 1.8562501.6539063 1.8562501 1.7226563 0 1.0898438-.6609375 1.7156251-1.8140626 1.7156251zm9.0070316 5.3929689c2.2992189 0 3.6984377-1.5046875 3.6984377-4.0007814 0-2.4820313-1.4062501-3.9867189-3.6984377-3.9867189-2.2851563 0-3.6984376 1.5117188-3.6984376 3.9867189 0 2.4960939 1.3921875 4.0007814 3.6984376 4.0007814zm0-1.4273438c-1.2164063 0-1.9125001-.9421875-1.9125001-2.5664063s.6960938-2.5664064 1.9125001-2.5664064c1.2093751 0 1.9054688.9421876 1.9054688 2.5664064s-.6890625 2.5664063-1.9054688 2.5664063zm8.7609379 4.1976564c2.2429688 0 3.6632814-1.1179688 3.6632814-2.8828126v-7.727344h-1.6804689v1.2304688h-.1195312c-.421875-.8367188-1.3359376-1.3570313-2.3835939-1.3570313-1.9617188 0-3.1781251 1.5328125-3.1781251 3.8882814 0 2.3062501 1.2093751 3.8109376 3.1500001 3.8109376 1.0687501 0 1.9054689-.45 2.3484376-1.2796875h.1195313v1.4625c0 .9773438-.6960938 1.5539063-1.8914063 1.5539063-.9562501 0-1.5750001-.3445312-1.6875001-.8859375h-1.7507813c.140625 1.3218751 1.434375 2.1867188 3.4101564 2.1867188zm0-4.4226564c-1.2164063 0-1.9054689-.9421875-1.9054689-2.4328126 0-1.4835938.6890626-2.4257813 1.9054689-2.4257813 1.209375 0 1.9476563.9421875 1.9476563 2.4328126 0 1.4835938-.73125 2.4257813-1.9476563 2.4257813zm8.3953128 1.6523438c1.1742188 0 1.9265626-.4992187 2.2992188-1.378125h.1195313v1.2234375h1.6804688v-7.6851565h-1.7437501v4.4789064c0 1.1601563-.61875 1.8632813-1.7507813 1.8632813-1.040625 0-1.5257813-.5765625-1.5257813-1.771875v-4.5703127h-1.7437501v4.9921877c0 1.8.9843751 2.8476563 2.6648439 2.8476563zm9.4851566 0c1.8140626 0 3.1007814-.871875 3.4171877-2.2570313h-1.6523439c-.253125.5765625-.8507812.9-1.715625.9-1.1460938 0-1.8843751-.815625-1.9265626-2.1164063v-.0914063h5.3718752v-.5554687c0-2.4117189-1.3148438-3.8671877-3.5085939-3.8671877-2.2289063 0-3.6140626 1.5539063-3.6140626 4.0218752 0 2.4609376 1.3640625 3.9656251 3.6281251 3.9656251zm1.7507813-4.7250002h-3.6210938c.0773437-1.153125.8085937-1.9054688 1.8492188-1.9054688 1.0476563 0 1.7367188.7382813 1.771875 1.9054688zm8.5992191 4.5703127.8718751-2.6226563h3.7335939l.8578125 2.6226563h1.9476563l-3.6070314-10.1460941h-2.0390625l-3.6000002 10.1460941zm4.183594-4.0218751h-2.8898439l1.3921875-4.2187502h.1195313zm6.5320315 4.0218751v-4.6757814c0-.95625.6398437-1.6804688 1.5046875-1.6804688.8578126 0 1.3921876.5203125 1.3921876 1.3710938v4.9851564h1.6945313v-4.8023439c0-.8789063.5976563-1.5539063 1.5046876-1.5539063.9351562 0 1.40625.4992187 1.40625 1.4976563v4.8585939h1.7367188v-5.2875002c0-1.5960938-.928125-2.5453126-2.4679688-2.5453126-1.0687501 0-1.9546876.5484375-2.3343751 1.3851563h-.1195313c-.3234375-.8507813-1.0617188-1.3851563-2.1234375-1.3851563-1.0195313 0-1.8070314.5203125-2.1375001 1.3851563h-.1195313v-1.2375h-1.6804688v7.6851565zm14.6250005.1546875c2.2992189 0 3.6984377-1.5046875 3.6984377-4.0007814 0-2.4820313-1.4062501-3.9867189-3.6984377-3.9867189-2.2851563 0-3.6984376 1.5117188-3.6984376 3.9867189 0 2.4960939 1.3921876 4.0007814 3.6984376 4.0007814zm0-1.4273438c-1.2164063 0-1.9125-.9421875-1.9125-2.5664063s.6960937-2.5664064 1.9125-2.5664064c1.2093751 0 1.9054689.9421876 1.9054689 2.5664064s-.6890626 2.5664063-1.9054689 2.5664063zm8.7046875 1.4273438c1.814063 0 3.100782-.871875 3.417188-2.2570313h-1.652344c-.253125.5765625-.850781.9-1.715625.9-1.146094 0-1.884375-.815625-1.926562-2.1164063v-.0914063h5.371875v-.5554687c0-2.4117189-1.314844-3.8671877-3.508594-3.8671877-2.228906 0-3.614063 1.5539063-3.614063 4.0218752 0 2.4609376 1.364063 3.9656251 3.628125 3.9656251zm1.750782-4.7250002h-3.621094c.077344-1.153125.808594-1.9054688 1.849219-1.9054688 1.047656 0 1.736718.7382813 1.771875 1.9054688zm7.769531 4.6968752c1.940625 0 3.157032-1.5257813 3.157032-3.9656251 0-2.4539064-1.209375-3.9726564-3.157032-3.9726564-1.054687 0-1.940625.5132812-2.341406 1.35h-.119531v-4.1976564h-1.74375v10.6593754h1.680468v-1.2164063h.119532c.435937.8437501 1.328906 1.3429688 2.404687 1.3429688zm-.548437-1.4484375c-1.195313 0-1.940625-.9632813-1.940625-2.5171876s.752343-2.5171876 1.940625-2.5171876c1.188281 0 1.9125.9492188 1.9125 2.5171876s-.717188 2.5171876-1.9125 2.5171876zm7.572656 1.4484375c1.005469 0 1.849219-.4359375 2.278125-1.18125h.119532v1.0546875h1.680468v-5.2523439c0-1.6242188-1.110937-2.5804689-3.086718-2.5804689-1.828125 0-3.100782.8578125-3.241407 2.2007814h1.645313c.161719-.5273438.710156-.8156251 1.511719-.8156251.942187 0 1.448437.4289063 1.448437 1.1953126v.6609375l-1.982812.1195312c-1.870313.1054688-2.917969.9140626-2.917969 2.2921876 0 1.4062501 1.061718 2.3062501 2.545312 2.3062501zm.513282-1.3429688c-.773438 0-1.328907-.3867187-1.328907-1.0476563 0-.6398437.457032-.9984375 1.434375-1.0617188l1.736719-.1195312v.6257813c0 .9140625-.7875 1.603125-1.842187 1.603125zm13.176563 1.4695313c2.460937 0 3.986719-1.2234375 3.986719-3.1921876 0-1.5398438-.864844-2.3976563-2.925001-2.8687501l-1.167187-.2671875c-1.258594-.2953125-1.771875-.6960938-1.771875-1.3921876 0-.8789063.773437-1.4554688 1.940625-1.4554688 1.110937 0 1.898437.5695313 2.025 1.4765626h1.736719c-.084375-1.7367188-1.624219-2.9531251-3.754688-2.9531251-2.271094 0-3.775781 1.2234375-3.775781 3.0515626 0 1.5046875.864843 2.4117188 2.707031 2.8335938l1.314844.3023438c1.300781.3023438 1.85625.7523438 1.85625 1.4906251 0 .8648438-.864844 1.490625-2.060156 1.490625-1.286719 0-2.186719-.590625-2.299219-1.51875h-1.771875c.091406 1.8351563 1.63125 3.0023438 3.958594 3.0023438zm9.161719-.0984375c2.299219 0 3.698437-1.5046875 3.698437-4.0007814 0-2.4820313-1.40625-3.9867189-3.698437-3.9867189-2.285157 0-3.698438 1.5117188-3.698438 3.9867189 0 2.4960939 1.392188 4.0007814 3.698438 4.0007814zm0-1.4273438c-1.216407 0-1.9125-.9421875-1.9125-2.5664063s.696093-2.5664064 1.9125-2.5664064c1.209375 0 1.905469.9421876 1.905469 2.5664064s-.689063 2.5664063-1.905469 2.5664063zm7.755469 1.2726563v-6.2789065h1.652344v-1.3570313h-1.673438v-.7101563c0-.73125.323438-1.096875 1.146094-1.096875.246094 0 .457031.0210938.597656.0421875v-1.2585938c-.28125-.0492188-.597656-.0703125-.970312-.0703125-1.708594 0-2.489063.7523438-2.489063 2.2851563v.8085938h-1.258594v1.3570313h1.258594v6.2789065zm6.35625.0351563c.3375 0 .660938-.028125.914063-.0773438v-1.3359375c-.210938.0210937-.344532.0351562-.590625.0351562-.73125 0-1.054688-.3445312-1.054688-1.1109375v-3.8250002h1.645313v-1.3570313h-1.645313v-1.9335938h-1.736719v1.9335938h-1.216406v1.3570313h1.216406v4.2398439c0 1.4835939.703125 2.0742189 2.467969 2.0742189zm5.934375-.0351563 1.490625-5.5687502h.119532l1.497656 5.5687502h1.835156l2.08125-7.6851565h-1.736719l-1.272656 5.7726564h-.119531l-1.490625-5.7726564h-1.666406l-1.476563 5.7726564h-.119531l-1.279688-5.7726564h-1.757812l2.08125 7.6851565zm10.659376.1265625c1.005468 0 1.849219-.4359375 2.278125-1.18125h.119531v1.0546875h1.680469v-5.2523439c0-1.6242188-1.110938-2.5804689-3.086719-2.5804689-1.828125 0-3.100781.8578125-3.241406 2.2007814h1.645312c.161719-.5273438.710156-.8156251 1.511719-.8156251.942188 0 1.448438.4289063 1.448438 1.1953126v.6609375l-1.982813.1195312c-1.870313.1054688-2.917969.9140626-2.917969 2.2921876 0 1.4062501 1.061719 2.3062501 2.545313 2.3062501zm.513281-1.3429688c-.773438 0-1.328906-.3867187-1.328906-1.0476563 0-.6398437.457031-.9984375 1.434375-1.0617188l1.736719-.1195312v.6257813c0 .9140625-.787501 1.603125-1.842188 1.603125zm7.403906 1.2164063v-4.4648439c0-1.0828125.787501-1.7859376 1.919532-1.7859376.295312 0 .759375.0492188.892969.0984375v-1.5890625c-.161719-.0421875-.471094-.0703125-.724219-.0703125-.991406 0-1.821094.5625-2.032032 1.321875h-.119531v-1.1953125h-1.680469v7.6851565zm7.488282.1546875c1.814063 0 3.100781-.871875 3.417188-2.2570313h-1.652344c-.253125.5765625-.850781.9-1.715625.9-1.146094 0-1.884375-.815625-1.926563-2.1164063v-.0914063h5.371875v-.5554687c0-2.4117189-1.314843-3.8671877-3.508593-3.8671877-2.228907 0-3.614063 1.5539063-3.614063 4.0218752 0 2.4609376 1.364062 3.9656251 3.628125 3.9656251zm1.750781-4.7250002h-3.621094c.077344-1.153125.808594-1.9054688 1.849219-1.9054688 1.047657 0 1.736719.7382813 1.771875 1.9054688zm4.619532 7.2492191 1.216406-4.2257814h-1.764844l-.653906 4.2257814zm14.104688-2.6789064v-1.5539063h-4.654688v-8.5921878h-1.814062v10.1460941zm8.423438 0v-1.5539063h-4.654688v-8.5921878h-1.814063v10.1460941zm6.1875.253125c2.341406 0 4.057031-1.3851563 4.296094-3.4382814h-1.785938c-.246093 1.1390626-1.223437 1.8632814-2.510156 1.8632814-1.729688 0-2.805469-1.4414063-2.805469-3.7546877 0-2.3062501 1.075781-3.7476564 2.798438-3.7476564 1.279687 0 2.257031.7945313 2.510156 2.0179689h1.785938c-.210938-2.1023439-1.989844-3.5929689-4.296094-3.5929689-2.875782 0-4.654688 2.0320313-4.654688 5.3296877 0 3.2835939 1.785938 5.3226564 4.661719 5.3226564zm7.467188-6.1664065 1.174219-4.2328126h-1.764844l-.696094 4.2328126zm3.030469 0 1.29375-4.2328126h-1.764844l-.815625 4.2328126zm-219.5929779 22.9132815 1.4906251-5.5687502h.1195312l1.4976563 5.5687502h1.8351564l2.0812501-7.6851565h-1.7367189l-1.2726563 5.7726564h-.1195312l-1.4906251-5.7726564h-1.6664063l-1.4765626 5.7726564h-.1195312l-1.2796876-5.7726564h-1.7578125l2.0812501 7.6851565zm10.6593754.1265625c1.0054688 0 1.8492189-.4359375 2.2781251-1.18125h.1195313v1.0546875h1.6804688v-5.2523439c0-1.6242188-1.1109375-2.5804689-3.0867189-2.5804689-1.828125 0-3.1007813.8578125-3.2414063 2.2007814h1.6453125c.1617188-.5273438.7101563-.8156251 1.5117188-.8156251.9421876 0 1.4484376.4289063 1.4484376 1.1953126v.6609375l-1.9828126.1195312c-1.8703126.1054688-2.9179689.9140626-2.9179689 2.2921876 0 1.4062501 1.0617188 2.3062501 2.5453126 2.3062501zm.5132813-1.3429688c-.7734375 0-1.3289063-.3867187-1.3289063-1.0476563 0-.6398437.4570313-.9984375 1.4343751-1.0617188l1.7367188-.1195312v.6257813c0 .9140625-.7875 1.603125-1.8421876 1.603125zm8.5500004 1.3710938c1.9195313 0 3.2765626-.9773438 3.2765626-2.4468751 0-1.1320313-.6820313-1.7578125-2.1515626-2.0953125l-1.3570313-.3023438c-.7734375-.1828125-1.1390625-.4570313-1.1390625-.8929688 0-.5695313.5976562-.95625 1.3921875-.95625.815625 0 1.3289063.3515625 1.4554688.8929688h1.6382813c-.1265625-1.3851564-1.2726563-2.1867189-3.1007813-2.1867189-1.8140626 0-3.0796877.9632813-3.0796877 2.3414064 0 1.153125.6960938 1.828125 2.1726564 2.165625l1.3640625.3164063c.7312501.16875 1.0617188.45 1.0617188.8859375 0 .5835938-.6117188.9843751-1.490625.9843751-.8718751 0-1.4132813-.3515625-1.5820314-.9210938h-1.7226563c.1335938 1.3851563 1.3429688 2.2148438 3.2625002 2.2148438zm13.1554692-.028125c1.9406251 0 3.1570314-1.5257813 3.1570314-3.9656251 0-2.4539064-1.209375-3.9726564-3.1570314-3.9726564-1.0546875 0-1.940625.5132812-2.3414063 1.35h-.1195313v-4.1976564h-1.74375v10.6593754h1.6804688v-1.2164063h.1195312c.4359376.8437501 1.3289063 1.3429688 2.4046876 1.3429688zm-.5484375-1.4484375c-1.1953125 0-1.9406251-.9632813-1.9406251-2.5171876s.7523438-2.5171876 1.9406251-2.5171876 1.9125001.9492188 1.9125001 2.5171876-.7171875 2.5171876-1.9125001 2.5171876zm7.2703128 1.321875v-10.6593754h-1.7437501v10.6593754zm5.5195315.1546875c2.2992188 0 3.6984376-1.5046875 3.6984376-4.0007814 0-2.4820313-1.40625-3.9867189-3.6984376-3.9867189-2.2851564 0-3.6984377 1.5117188-3.6984377 3.9867189 0 2.4960939 1.3921876 4.0007814 3.6984377 4.0007814zm0-1.4273438c-1.2164063 0-1.9125001-.9421875-1.9125001-2.5664063s.6960938-2.5664064 1.9125001-2.5664064c1.209375 0 1.9054688.9421876 1.9054688 2.5664064s-.6890625 2.5664063-1.9054688 2.5664063zm8.7539066 1.4273438c1.9476563 0 3.1570313-1.0828125 3.3468751-2.6718751h-1.6593751c-.1828125.8085938-.7875 1.2375001-1.6945313 1.2375001-1.1882813 0-1.9054688-.9492188-1.9054688-2.5804689 0-1.603125.7101563-2.5453126 1.9054688-2.5453126.9562501 0 1.5328126.5414063 1.6945313 1.2867188h1.6593751c-.1828125-1.5890625-1.3781251-2.7140626-3.3539064-2.7140626-2.3132813 0-3.6703126 1.4835938-3.6703126 3.9726564 0 2.5171876 1.3640625 4.0148439 3.6773439 4.0148439zm6.827344-.1546875v-2.7000001l.61875-.61875 2.4679689 3.3187501h2.109375l-3.2765626-4.3875001 3.0656251-3.2976564h-2.025l-2.8406252 3.1500001h-.1195312v-6.124219h-1.7437501v10.6593754zm9.7875004.1546875c1.8140625 0 3.1007813-.871875 3.4171876-2.2570313h-1.6523438c-.253125.5765625-.8507813.9-1.7156251.9-1.1460938 0-1.884375-.815625-1.9265625-2.1164063v-.0914063h5.3718752v-.5554687c0-2.4117189-1.3148438-3.8671877-3.5085939-3.8671877-2.2289064 0-3.6140627 1.5539063-3.6140627 4.0218752 0 2.4609376 1.3640626 3.9656251 3.6281252 3.9656251zm1.7507813-4.7250002h-3.6210939c.0773438-1.153125.8085938-1.9054688 1.8492188-1.9054688 1.0476563 0 1.7367188.7382813 1.7718751 1.9054688zm6.2789065 4.6968752c1.06875 0 1.9546876-.4992187 2.3906251-1.3429688h.1195312v1.2164063h1.6875001v-10.6593754h-1.7437501v4.1976564h-.1195312c-.4078125-.84375-1.2796876-1.35-2.3343751-1.35-1.9406251 0-3.1640626 1.5328125-3.1640626 3.9656251 0 2.4398439 1.2164063 3.9726564 3.1640626 3.9726564zm.5414063-1.4484375c-1.1953126 0-1.9195314-.9421876-1.9195314-2.5171876 0-1.5679688.7312501-2.5171876 1.9195314-2.5171876 1.1953125 0 1.9335938.9632813 1.9335938 2.5171876 0 1.5609375-.73125 2.5171876-1.9335938 2.5171876zm11.9953127 1.321875v-6.2789065h1.652344v-1.3570313h-1.673438v-.7101563c0-.73125.323438-1.096875 1.146094-1.096875.246094 0 .457032.0210938.597657.0421875v-1.2585938c-.28125-.0492188-.597657-.0703125-.970313-.0703125-1.708594 0-2.489063.7523438-2.489063 2.2851563v.8085938h-1.258593v1.3570313h1.258593v6.2789065zm5.076563 0v-4.4648439c0-1.0828125.7875-1.7859376 1.919531-1.7859376.295313 0 .759375.0492188.892969.0984375v-1.5890625c-.161719-.0421875-.471094-.0703125-.724219-.0703125-.991406 0-1.821094.5625-2.032031 1.321875h-.119531v-1.1953125h-1.680469v7.6851565zm7.558594.1546875c2.299219 0 3.698438-1.5046875 3.698438-4.0007814 0-2.4820313-1.40625-3.9867189-3.698438-3.9867189-2.285156 0-3.698438 1.5117188-3.698438 3.9867189 0 2.4960939 1.392188 4.0007814 3.698438 4.0007814zm0-1.4273438c-1.216406 0-1.9125-.9421875-1.9125-2.5664063s.696094-2.5664064 1.9125-2.5664064c1.209375 0 1.905469.9421876 1.905469 2.5664064s-.689063 2.5664063-1.905469 2.5664063zm7.2 1.2726563v-4.6757814c0-.95625.639844-1.6804688 1.504688-1.6804688.857812 0 1.392187.5203125 1.392187 1.3710938v4.9851564h1.694532v-4.8023439c0-.8789063.597656-1.5539063 1.504687-1.5539063.935157 0 1.40625.4992187 1.40625 1.4976563v4.8585939h1.736719v-5.2875002c0-1.5960938-.928125-2.5453126-2.467969-2.5453126-1.06875 0-1.954687.5484375-2.334375 1.3851563h-.119531c-.323438-.8507813-1.061719-1.3851563-2.123438-1.3851563-1.019531 0-1.807031.5203125-2.1375 1.3851563h-.119531v-1.2375h-1.680469v7.6851565zm16.959376 0v-10.6593754h-1.74375v10.6593754zm5.519531.1546875c2.299219 0 3.698438-1.5046875 3.698438-4.0007814 0-2.4820313-1.40625-3.9867189-3.698438-3.9867189-2.285156 0-3.698437 1.5117188-3.698437 3.9867189 0 2.4960939 1.392187 4.0007814 3.698437 4.0007814zm0-1.4273438c-1.216406 0-1.9125-.9421875-1.9125-2.5664063s.696094-2.5664064 1.9125-2.5664064c1.209375 0 1.905469.9421876 1.905469 2.5664064s-.689062 2.5664063-1.905469 2.5664063zm7.572657 1.3992188c1.005469 0 1.849219-.4359375 2.278125-1.18125h.119531v1.0546875h1.680469v-5.2523439c0-1.6242188-1.110937-2.5804689-3.086719-2.5804689-1.828125 0-3.100781.8578125-3.241406 2.2007814h1.645312c.161719-.5273438.710157-.8156251 1.511719-.8156251.942188 0 1.448438.4289063 1.448438 1.1953126v.6609375l-1.982813.1195312c-1.870312.1054688-2.917969.9140626-2.917969 2.2921876 0 1.4062501 1.061719 2.3062501 2.545313 2.3062501zm.513281-1.3429688c-.773437 0-1.328906-.3867187-1.328906-1.0476563 0-.6398437.457031-.9984375 1.434375-1.0617188l1.736719-.1195312v.6257813c0 .9140625-.7875 1.603125-1.842188 1.603125zm8.444532 1.3429688c1.06875 0 1.954687-.4992187 2.390625-1.3429688h.119531v1.2164063h1.6875v-10.6593754h-1.74375v4.1976564h-.119531c-.407813-.84375-1.279688-1.35-2.334375-1.35-1.940625 0-3.164063 1.5328125-3.164063 3.9656251 0 2.4398439 1.216407 3.9726564 3.164063 3.9726564zm.541406-1.4484375c-1.195312 0-1.919531-.9421876-1.919531-2.5171876 0-1.5679688.73125-2.5171876 1.919531-2.5171876 1.195313 0 1.933594.9632813 1.933594 2.5171876 0 1.5609375-.73125 2.5171876-1.933594 2.5171876zm6.742969-7.6500003c.576563 0 1.047656-.4570313 1.047656-1.0335938 0-.5695313-.471093-1.0335938-1.047656-1.0335938-.569531 0-1.040625.4640625-1.040625 1.0335938 0 .5765625.471094 1.0335938 1.040625 1.0335938zm.871875 8.9718753v-7.6851565h-1.736719v7.6851565zm3.902344 0v-4.4789064c0-1.153125.653906-1.8773438 1.694531-1.8773438 1.061719 0 1.553907.5976562 1.553907 1.7929688v4.5632814h1.74375v-4.9710939c0-1.8281251-.935157-2.8617189-2.650782-2.8617189-1.146093 0-1.919531.5203125-2.285156 1.3781251h-.119531v-1.2304688h-1.680469v7.6851565zm10.364063 2.9250001c2.242969 0 3.663281-1.1179688 3.663281-2.8828126v-7.727344h-1.680468v1.2304688h-.119532c-.421875-.8367188-1.335937-1.3570313-2.383594-1.3570313-1.961718 0-3.178125 1.5328125-3.178125 3.8882814 0 2.3062501 1.209375 3.8109376 3.15 3.8109376 1.06875 0 1.905469-.45 2.348438-1.2796875h.119531v1.4625c0 .9773438-.696093 1.5539063-1.891406 1.5539063-.95625 0-1.575-.3445312-1.6875-.8859375h-1.750781c.140625 1.3218751 1.434375 2.1867188 3.410156 2.1867188zm0-4.4226564c-1.216406 0-1.905469-.9421875-1.905469-2.4328126 0-1.4835938.689063-2.4257813 1.905469-2.4257813 1.209375 0 1.947656.9421875 1.947656 2.4328126 0 1.4835938-.73125 2.4257813-1.947656 2.4257813zm7.101563 1.6382813c.667969 0 1.125-.4710937 1.125-1.096875 0-.61875-.457031-1.0898438-1.125-1.0898438-.660938 0-1.125.4710938-1.125 1.0898438 0 .6257813.464062 1.096875 1.125 1.096875z" fill="#262626"/></g></g></svg>