<?xml version="1.0" encoding="UTF-8"?>
<svg width="448px" height="390px" viewBox="0 0 448 390" version="1.1" xmlns="http://www.w3.org/2000/svg" xmlns:xlink="http://www.w3.org/1999/xlink">
    <title>Window</title>
    <defs>
        <rect id="path-1" x="0" y="0" width="444.000018" height="384.000015" rx="14.4000006"></rect>
        <filter x="-1.1%" y="-0.8%" width="102.3%" height="103.1%" filterUnits="objectBoundingBox" id="filter-2">
            <feMorphology radius="1" operator="dilate" in="SourceAlpha" result="shadowSpreadOuter1"></feMorphology>
            <feOffset dx="0" dy="4" in="shadowSpreadOuter1" result="shadowOffsetOuter1"></feOffset>
            <feComposite in="shadowOffsetOuter1" in2="SourceAlpha" operator="out" result="shadowOffsetOuter1"></feComposite>
            <feColorMatrix values="0 0 0 0 0   0 0 0 0 0   0 0 0 0 0  0 0 0 0.08 0" type="matrix" in="shadowOffsetOuter1"></feColorMatrix>
        </filter>
    </defs>
    <g id="Big-Sur-Installer" stroke="none" stroke-width="1" fill="none" fill-rule="evenodd">
        <g id="install-04-security-explainer" transform="translate(-276.000000, -252.000000)">
            <g id="Window" transform="translate(278.000000, 252.000000)">
                <g id="App-Window">
                    <g id="Rectangle">
                        <use fill="black" fill-opacity="1" filter="url(#filter-2)" xlink:href="#path-1"></use>
                        <rect stroke="#CCCCCC" stroke-width="2.4000001" stroke-linejoin="square" fill="#FFFFFF" fill-rule="evenodd" x="1.20000005" y="1.20000005" width="441.600018" height="381.600015" rx="14.4000006"></rect>
                    </g>
                    <g id="Main-window-content" transform="translate(22.800001, 49.000002)">
                        <rect id="Rectangle" stroke="#CCCCCC" stroke-width="2.4000001" x="1.20000005" y="12.2000005" width="400.800016" height="273.600011" rx="14.4000006"></rect>
                        <g id="Tabs" transform="translate(117.600005, 0.000000)">
                            <rect id="Rectangle" stroke="#A0A0A0" stroke-width="2.4000001" fill="#FFFFFF" x="2.4000001" y="3.60000014" width="190.800008" height="16.8000007" rx="8.40000033"></rect>
                            <rect id="Rectangle" stroke="#A0A0A0" stroke-width="2.4000001" fill="#FFFFFF" x="1.20000005" y="1.20000005" width="67.2000027" height="21.6000009" rx="10.8000004"></rect>
                            <path d="M16.0500006,16.216795 C18.3585945,16.216795 19.8000008,14.8105449 19.8000008,12.5664042 L19.8000008,11.4941385 L16.2492194,11.4941385 L16.2492194,12.7832011 L18.0832038,12.7832011 L18.0773445,12.9414042 C18.0421882,13.9960918 17.2394538,14.7050762 16.0792975,14.7050762 C14.6847662,14.7050762 13.8058599,13.5859355 13.8058599,11.7460917 C13.8058599,9.9414041 14.6437506,8.83398218 16.008985,8.83398218 C16.9933601,8.83398218 17.7023445,9.33788845 17.9660163,10.2226541 L19.7238289,10.2226541 C19.4777351,8.47070092 18.007032,7.32812275 16.008985,7.32812275 C13.5480474,7.32812275 11.995313,9.04491969 11.995313,11.7636698 C11.995313,14.5234355 13.5363287,16.216795 16.0500006,16.216795 Z M24.1359385,16.1347637 C25.7179698,16.1347637 26.8371104,15.3789043 27.0890636,14.1777324 L25.5011729,14.1777324 C25.3195323,14.6171855 24.8566416,14.8632793 24.1828135,14.8632793 C23.2921884,14.8632793 22.7296884,14.2480449 22.7062509,13.2636699 L22.7062509,13.1757792 L27.141798,13.1757792 L27.141798,12.6660136 C27.141798,10.626951 26.0167979,9.40820096 24.112501,9.40820096 C22.1906259,9.40820096 21.0070321,10.7089823 21.0070321,12.8066386 C21.0070321,14.8925762 22.1671884,16.1347637 24.1359385,16.1347637 Z M25.4660166,12.1152323 L22.7121103,12.1152323 C22.770704,11.2480448 23.3273447,10.6796854 24.1183603,10.6796854 C24.9152354,10.6796854 25.4308604,11.2304667 25.4660166,12.1152323 Z M30.2414075,15.9999981 L30.2414075,12.2675761 C30.2414075,11.3945292 30.7277356,10.8320291 31.5187513,10.8320291 C32.327345,10.8320291 32.7082044,11.3066385 32.7082044,12.2148417 L32.7082044,15.9999981 L34.4132826,15.9999981 L34.4132826,11.8281229 C34.4132826,10.2871072 33.6398451,9.40820096 32.2042982,9.40820096 C31.24922,9.40820096 30.59297,9.85937285 30.2941418,10.5859354 L30.1886731,10.5859354 L30.1886731,9.54882596 L28.5363293,9.54882596 L28.5363293,15.9999981 L30.2414075,15.9999981 Z M38.8781265,16.1347637 C40.4601579,16.1347637 41.5792985,15.3789043 41.8312517,14.1777324 L40.243361,14.1777324 C40.0617203,14.6171855 39.5988297,14.8632793 38.9250015,14.8632793 C38.0343765,14.8632793 37.4718765,14.2480449 37.448439,13.2636699 L37.448439,13.1757792 L41.883986,13.1757792 L41.883986,12.6660136 C41.883986,10.626951 40.758986,9.40820096 38.854689,9.40820096 C36.932814,9.40820096 35.7492202,10.7089823 35.7492202,12.8066386 C35.7492202,14.8925762 36.9093765,16.1347637 38.8781265,16.1347637 Z M40.2082047,12.1152323 L37.4542984,12.1152323 C37.5128921,11.2480448 38.0695328,10.6796854 38.8605484,10.6796854 C39.6574235,10.6796854 40.1730485,11.2304667 40.2082047,12.1152323 Z M44.9835955,15.9999981 L44.9835955,12.3906229 C44.9835955,11.4824198 45.6222674,10.9257791 46.5539081,10.9257791 C46.8292987,10.9257791 47.2277363,10.9726541 47.3625019,11.0195291 L47.3625019,9.51952909 C47.2160175,9.47265408 46.9289081,9.44335721 46.6945331,9.44335721 C45.8742206,9.44335721 45.2062518,9.92968535 45.0363299,10.5742166 L44.9308612,10.5742166 L44.9308612,9.54882596 L43.2785173,9.54882596 L43.2785173,15.9999981 L44.9835955,15.9999981 Z M50.268752,16.0996075 C51.1066427,16.0996075 51.8097677,15.7421856 52.1437521,15.1445293 L52.2492208,15.1445293 L52.2492208,15.9999981 L53.9015646,15.9999981 L53.9015646,11.5937479 C53.9015646,10.2167947 52.9347677,9.40820096 51.2238302,9.40820096 C49.6007832,9.40820096 48.5050801,10.1523416 48.3937519,11.3359354 L49.9640645,11.3359354 C50.1046895,10.9316385 50.5148458,10.7148416 51.1300802,10.7148416 C51.8332052,10.7148416 52.219924,11.0371073 52.219924,11.5937479 L52.219924,12.1269511 L50.6554708,12.2207011 C49.0500019,12.3144511 48.1535175,12.9941386 48.1535175,14.1601543 C48.1535175,15.3378887 49.0265644,16.0996075 50.268752,16.0996075 Z M50.831252,14.8515605 C50.2394551,14.8515605 49.8234395,14.5527324 49.8234395,14.0546855 C49.8234395,13.5800761 50.1808614,13.3046855 50.9132833,13.2578105 L52.219924,13.1699199 L52.219924,13.6503886 C52.219924,14.3300762 51.6222677,14.8515605 50.831252,14.8515605 Z M57.3410179,15.9999981 L57.3410179,7.08202899 L55.6359397,7.08202899 L55.6359397,15.9999981 L57.3410179,15.9999981 Z" id="General" fill="#262626" fill-rule="nonzero"></path>
                        </g>
                        <g id="Window-Content" transform="translate(39.600002, 33.800001)" stroke="#CCCCCC">
                            <rect id="Rectangle" stroke-width="1.20000005" fill="#A0A0A0" x="0.600000024" y="5.40000021" width="165.600007" height="1.20000005" rx="0.600000024"></rect>
                            <rect id="Rectangle" stroke-width="1.20000005" fill="#A0A0A0" x="29.4000012" y="24.600001" width="67.2000027" height="1.20000005" rx="0.600000024"></rect>
                            <rect id="Rectangle" stroke-width="1.20000005" fill="#A0A0A0" x="29.4000012" y="40.2000016" width="168.000007" height="1.20000005" rx="0.600000024"></rect>
                            <rect id="Rectangle" stroke-width="1.20000005" fill="#A0A0A0" x="29.4000012" y="55.8000022" width="199.200008" height="1.20000005" rx="0.600000024"></rect>
                            <rect id="Rectangle" stroke-width="1.20000005" fill="#A0A0A0" x="1.80000007" y="119.400005" width="111.600004" height="1.20000005" rx="0.600000024"></rect>
                            <rect id="Rectangle" stroke-width="1.20000005" fill="#A0A0A0" x="31.8000013" y="135.000005" width="36.0000014" height="1.20000005" rx="0.600000024"></rect>
                            <rect id="Rectangle" stroke-width="1.20000005" fill="#A0A0A0" x="31.8000013" y="149.400006" width="136.800005" height="1.20000005" rx="0.600000024"></rect>
                            <rect id="Rectangle" stroke-width="1.20000005" fill="#A0A0A0" x="175.800007" y="24.600001" width="128.400005" height="1.20000005" rx="0.600000024"></rect>
                            <rect id="Rectangle" stroke-width="2.4000001" x="16.8000007" y="21.6000009" width="7.20000029" height="7.20000029" rx="3.60000014"></rect>
                            <rect id="Rectangle" stroke-width="2.4000001" x="16.8000007" y="37.2000015" width="7.20000029" height="7.20000029" rx="3.60000014"></rect>
                            <rect id="Rectangle" stroke-width="2.4000001" x="16.8000007" y="52.8000021" width="7.20000029" height="7.20000029" rx="3.60000014"></rect>
                            <rect id="Rectangle" stroke-width="2.4000001" x="18.0000007" y="132.000005" width="7.20000029" height="7.20000029" rx="3.60000014"></rect>
                            <rect id="Rectangle" stroke-width="2.4000001" x="18.0000007" y="146.400006" width="7.20000029" height="7.20000029" rx="3.60000014"></rect>
                            <rect id="Rectangle" stroke-width="2.4000001" x="176.400007" y="1.20000005" width="86.4000034" height="9.60000038" rx="4.80000019"></rect>
                            <rect id="Rectangle" stroke-width="2.4000001" x="102.000004" y="20.4000008" width="66.0000026" height="9.60000038" rx="4.80000019"></rect>
                            <rect id="Rectangle" stroke-width="2.4000001" x="205.200008" y="36.0000014" width="87.6000035" height="9.60000038" rx="4.80000019"></rect>
                        </g>
                    </g>
                    <g id="Top-bar-elements" transform="translate(22.800001, 10.800000)">
                        <path d="M126.037505,14.2601563 C128.582818,14.2601563 130.150786,13.0085937 130.150786,10.9835936 C130.150786,9.41562482 129.27188,8.53671853 127.232818,8.10078102 L126.00938,7.84062476 C124.821099,7.58046849 124.335942,7.20781223 124.335942,6.56796845 C124.335942,5.77343717 125.039067,5.2601559 126.100786,5.2601559 C127.127349,5.2601559 127.872661,5.80156217 127.971099,6.63124971 L129.967974,6.63124971 C129.904693,4.83828089 128.322661,3.59374959 126.086724,3.59374959 C123.745317,3.59374959 122.205474,4.84531214 122.205474,6.73671846 C122.205474,8.27656227 123.112505,9.22578106 124.961724,9.61953108 L126.283599,9.90781234 C127.52813,10.1820311 128.03438,10.5687499 128.03438,11.2367186 C128.03438,12.0242187 127.253911,12.5796874 126.150005,12.5796874 C124.954692,12.5796874 124.125005,12.0382812 124.026567,11.1945311 L121.973442,11.1945311 C122.050786,13.071875 123.618755,14.2601563 126.037505,14.2601563 Z M135.325787,14.1617188 C137.224224,14.1617188 138.567193,13.2546875 138.869537,11.8132812 L136.964068,11.8132812 C136.746099,12.3406249 136.19063,12.6359374 135.382037,12.6359374 C134.313287,12.6359374 133.638287,11.8976562 133.610162,10.7164061 L133.610162,10.6109374 L138.932818,10.6109374 L138.932818,9.99921859 C138.932818,7.55234349 137.582818,6.08984344 135.297662,6.08984344 C132.991412,6.08984344 131.571099,7.650781 131.571099,10.1679686 C131.571099,12.6710937 132.963287,14.1617188 135.325787,14.1617188 Z M136.92188,9.33828106 L133.617193,9.33828106 C133.687505,8.29765602 134.355474,7.61562475 135.304693,7.61562475 C136.260943,7.61562475 136.879693,8.27656227 136.92188,9.33828106 Z M144.016412,14.1617188 C146.034381,14.1617188 147.300006,13.0507812 147.468756,11.3492186 L145.556256,11.3492186 C145.401568,12.1226562 144.853131,12.5374999 144.016412,12.5374999 C142.919537,12.5374999 142.293756,11.6726562 142.293756,10.1117186 C142.293756,8.57187478 142.912506,7.7210935 144.016412,7.7210935 C144.888287,7.7210935 145.415631,8.21328102 145.556256,8.95859355 L147.468756,8.95859355 C147.300006,7.22890598 146.069537,6.08984344 144.016412,6.08984344 C141.590631,6.08984344 140.226568,7.55937474 140.226568,10.1117186 C140.226568,12.6921874 141.597662,14.1617188 144.016412,14.1617188 Z M151.7086,14.1617188 C152.882819,14.1617188 153.607037,13.6554687 153.972662,12.7554687 L154.099225,12.7554687 L154.099225,14 L156.082037,14 L156.082037,6.25859344 L154.035944,6.25859344 L154.035944,10.7304686 C154.035944,11.7921874 153.487506,12.4460937 152.467975,12.4460937 C151.525787,12.4460937 151.040631,11.8906249 151.040631,10.7937499 L151.040631,6.25859344 L148.994537,6.25859344 L148.994537,11.2999999 C148.994537,13.1 150.035162,14.1617188 151.7086,14.1617188 Z M160.181256,14 L160.181256,9.66874983 C160.181256,8.57890603 160.947663,7.91093726 162.065631,7.91093726 C162.3961,7.91093726 162.874225,7.96718726 163.035944,8.02343726 L163.035944,6.22343719 C162.860163,6.16718719 162.515631,6.13203094 162.234381,6.13203094 C161.250006,6.13203094 160.448444,6.71562471 160.244538,7.48906224 L160.117975,7.48906224 L160.117975,6.25859344 L158.135163,6.25859344 L158.135163,14 L160.181256,14 Z M165.440632,5.07031215 C166.073444,5.07031215 166.593757,4.56406213 166.593757,3.9312496 C166.593757,3.29140582 166.073444,2.7851558 165.440632,2.7851558 C164.807819,2.7851558 164.280475,3.29140582 164.280475,3.9312496 C164.280475,4.56406213 164.807819,5.07031215 165.440632,5.07031215 Z M166.460163,14 L166.460163,6.25859344 L164.414069,6.25859344 L164.414069,14 L166.460163,14 Z M171.740632,14.028125 C172.134382,14.028125 172.514069,13.9859375 172.767194,13.9367187 L172.767194,12.4249999 C172.570319,12.4460937 172.429694,12.4601562 172.162507,12.4601562 C171.466413,12.4601562 171.157038,12.1367187 171.157038,11.4406249 L171.157038,7.88281226 L172.767194,7.88281226 L172.767194,6.32890595 L171.157038,6.32890595 L171.157038,4.40937462 L169.110944,4.40937462 L169.110944,6.32890595 L167.901569,6.32890595 L167.901569,7.88281226 L169.110944,7.88281226 L169.110944,11.9117187 C169.110944,13.4164062 169.856257,14.028125 171.740632,14.028125 Z M175.432038,16.8125001 C177.365632,16.8125001 178.314851,16.1234376 178.975788,14.1476563 L181.647663,6.25859344 L179.482038,6.25859344 L177.850788,12.1648437 L177.724226,12.1648437 L176.092976,6.25859344 L173.835944,6.25859344 L176.557038,14.0421875 L176.486726,14.3375 C176.317976,14.9632813 175.882038,15.2164063 175.115632,15.2164063 C175.031257,15.2164063 174.721882,15.209375 174.651569,15.1953125 L174.651569,16.7914064 C174.735944,16.8054689 175.354694,16.8125001 175.432038,16.8125001 Z M190.057039,14.1898438 C191.30157,14.1898438 192.461726,13.8101562 193.21407,13.1632812 L193.994539,14 L196.293758,14 L194.409383,12.0242187 C194.95782,11.2718749 195.274227,10.1960936 195.274227,8.94453105 L195.274227,8.35390603 L193.55157,8.35390603 L193.55157,8.82499979 C193.55157,9.70390608 193.432039,10.3085936 193.192976,10.7515624 L191.24532,8.66328104 C192.665633,7.89687476 193.312508,7.06015597 193.312508,6.01249968 C193.312508,4.64140588 192.138289,3.68515584 190.478914,3.68515584 C188.812508,3.68515584 187.58907,4.69062463 187.58907,6.05468718 C187.58907,6.79296846 187.919539,7.42578099 188.847664,8.38203103 C188.791414,8.41015603 188.439851,8.60703104 188.397664,8.62812479 C187.089851,9.33828106 186.506257,10.1749998 186.506257,11.3421874 C186.506257,13.071875 187.898445,14.1898438 190.057039,14.1898438 Z M190.296101,7.69999975 C189.600008,7.03203097 189.353914,6.63124971 189.353914,6.16015594 C189.353914,5.51328091 189.825008,5.05624964 190.485945,5.05624964 C191.146883,5.05624964 191.603914,5.50624966 191.603914,6.16015594 C191.603914,6.76484346 191.224226,7.22187473 190.296101,7.69999975 Z M190.267976,12.6992187 C189.171101,12.6992187 188.425789,12.0874999 188.425789,11.1734374 C188.425789,10.5406249 188.777351,10.0273436 189.515633,9.61249983 C189.592976,9.57031232 189.733601,9.49999982 189.810945,9.47187482 L192.138289,11.9890624 C191.737508,12.4249999 191.006258,12.6992187 190.267976,12.6992187 Z M203.542977,14 L203.542977,10.8007811 L205.546883,10.8007811 C207.684383,10.8007811 209.167977,9.40859357 209.167977,7.34140599 C209.167977,5.2460934 207.740633,3.85390585 205.652352,3.85390585 L201.419539,3.85390585 L201.419539,14 L203.542977,14 Z M205.082821,9.13437481 L203.542977,9.13437481 L203.542977,5.54140591 L205.089852,5.54140591 C206.313289,5.54140591 207.009383,6.16718719 207.009383,7.34843724 C207.009383,8.50156228 206.299227,9.13437481 205.082821,9.13437481 Z M212.964852,14 L212.964852,9.66874983 C212.964852,8.57890603 213.731258,7.91093726 214.849227,7.91093726 C215.179696,7.91093726 215.657821,7.96718726 215.81954,8.02343726 L215.81954,6.22343719 C215.643759,6.16718719 215.299227,6.13203094 215.017977,6.13203094 C214.033602,6.13203094 213.23204,6.71562471 213.028133,7.48906224 L212.901571,7.48906224 L212.901571,6.25859344 L210.918758,6.25859344 L210.918758,14 L212.964852,14 Z M218.224227,5.07031215 C218.85704,5.07031215 219.377352,4.56406213 219.377352,3.9312496 C219.377352,3.29140582 218.85704,2.7851558 218.224227,2.7851558 C217.591415,2.7851558 217.064071,3.29140582 217.064071,3.9312496 C217.064071,4.56406213 217.591415,5.07031215 218.224227,5.07031215 Z M219.243759,14 L219.243759,6.25859344 L217.197665,6.25859344 L217.197665,14 L219.243759,14 Z M225.642196,14 L228.321103,6.25859344 L226.162509,6.25859344 L224.573446,12.0804687 L224.446884,12.0804687 L222.843759,6.25859344 L220.642978,6.25859344 L223.335946,14 L225.642196,14 Z M231.829697,14.1195313 C232.835166,14.1195313 233.678916,13.690625 234.079697,12.9734375 L234.206259,12.9734375 L234.206259,14 L236.189072,14 L236.189072,8.71249979 C236.189072,7.06015597 235.028916,6.08984344 232.975791,6.08984344 C231.028134,6.08984344 229.71329,6.98281222 229.579697,8.40312478 L231.464072,8.40312478 C231.632822,7.91796851 232.125009,7.65781225 232.863291,7.65781225 C233.707041,7.65781225 234.171103,8.04453101 234.171103,8.71249979 L234.171103,9.35234357 L232.293759,9.46484357 C230.367197,9.57734357 229.291415,10.3929686 229.291415,11.7921874 C229.291415,13.2054687 230.339072,14.1195313 231.829697,14.1195313 Z M232.504697,12.6218749 C231.79454,12.6218749 231.295322,12.2632812 231.295322,11.6656249 C231.295322,11.0960936 231.724228,10.7656249 232.603134,10.7093749 L234.171103,10.6039061 L234.171103,11.1804686 C234.171103,11.9960937 233.453916,12.6218749 232.504697,12.6218749 Z M241.610166,14.1617188 C243.628135,14.1617188 244.89376,13.0507812 245.06251,11.3492186 L243.15001,11.3492186 C242.995322,12.1226562 242.446885,12.5374999 241.610166,12.5374999 C240.513291,12.5374999 239.88751,11.6726562 239.88751,10.1117186 C239.88751,8.57187478 240.50626,7.7210935 241.610166,7.7210935 C242.482041,7.7210935 243.009385,8.21328102 243.15001,8.95859355 L245.06251,8.95859355 C244.89376,7.22890598 243.663291,6.08984344 241.610166,6.08984344 C239.184385,6.08984344 237.820322,7.55937474 237.820322,10.1117186 C237.820322,12.6921874 239.191416,14.1617188 241.610166,14.1617188 Z M247.621885,16.8125001 C249.555479,16.8125001 250.504697,16.1234376 251.165635,14.1476563 L253.83751,6.25859344 L251.671885,6.25859344 L250.040635,12.1648437 L249.914072,12.1648437 L248.282822,6.25859344 L246.025791,6.25859344 L248.746885,14.0421875 L248.676572,14.3375 C248.507822,14.9632813 248.071885,15.2164063 247.305479,15.2164063 C247.221104,15.2164063 246.911729,15.209375 246.841416,15.1953125 L246.841416,16.7914064 C246.925791,16.8054689 247.544541,16.8125001 247.621885,16.8125001 Z" id="Security&amp;Privacy" fill="#262626" fill-rule="nonzero"></path>
                        <circle id="Oval" stroke="#CCCCCC" stroke-width="2.4000001" cx="3.60000014" cy="8.40000033" r="3.60000014"></circle>
                        <circle id="Oval" stroke="#CCCCCC" stroke-width="2.4000001" cx="16.8000007" cy="8.40000033" r="3.60000014"></circle>
                        <circle id="Oval" stroke="#CCCCCC" stroke-width="2.4000001" cx="30.0000012" cy="8.40000033" r="3.60000014"></circle>
                        <g id="Search-Box" transform="translate(304.800012, 0.000000)" stroke="#CCCCCC" stroke-width="2.4000001">
                            <rect id="Rectangle" x="1.20000005" y="1.20000005" width="100.800004" height="15.6000006" rx="7.80000031"></rect>
                            <line x1="12.6000005" y1="10.2000004" x2="15.6000006" y2="13.2000005" id="Path-2" stroke-linecap="round"></line>
                            <circle id="Oval" cx="10.8000004" cy="8.40000033" r="2.4000001"></circle>
                        </g>
                        <path d="M106.800004,3.60000014 C107.462746,3.60000014 108.000004,4.13725846 108.000004,4.80000019 C108.000004,5.46274192 107.462746,6.00000024 106.800004,6.00000024 C106.137263,6.00000024 105.600004,5.46274192 105.600004,4.80000019 C105.600004,4.13725846 106.137263,3.60000014 106.800004,3.60000014 Z M106.800004,7.20000029 C107.462746,7.20000029 108.000004,7.73725861 108.000004,8.40000033 C108.000004,9.06274206 107.462746,9.60000038 106.800004,9.60000038 C106.137263,9.60000038 105.600004,9.06274206 105.600004,8.40000033 C105.600004,7.73725861 106.137263,7.20000029 106.800004,7.20000029 Z M106.800004,10.8000004 C107.462746,10.8000004 108.000004,11.3372588 108.000004,12.0000005 C108.000004,12.6627422 107.462746,13.2000005 106.800004,13.2000005 C106.137263,13.2000005 105.600004,12.6627422 105.600004,12.0000005 C105.600004,11.3372588 106.137263,10.8000004 106.800004,10.8000004 Z M99.600004,10.8000004 C100.262746,10.8000004 100.800004,11.3372588 100.800004,12.0000005 C100.800004,12.6627422 100.262746,13.2000005 99.600004,13.2000005 C98.9372622,13.2000005 98.4000039,12.6627422 98.4000039,12.0000005 C98.4000039,11.3372588 98.9372622,10.8000004 99.600004,10.8000004 Z M103.200004,10.8000004 C103.862746,10.8000004 104.400004,11.3372588 104.400004,12.0000005 C104.400004,12.6627422 103.862746,13.2000005 103.200004,13.2000005 C102.537262,13.2000005 102.000004,12.6627422 102.000004,12.0000005 C102.000004,11.3372588 102.537262,10.8000004 103.200004,10.8000004 Z M110.400004,10.8000004 C111.062746,10.8000004 111.600004,11.3372588 111.600004,12.0000005 C111.600004,12.6627422 111.062746,13.2000005 110.400004,13.2000005 C109.737263,13.2000005 109.200004,12.6627422 109.200004,12.0000005 C109.200004,11.3372588 109.737263,10.8000004 110.400004,10.8000004 Z M99.600004,7.20000029 C100.262746,7.20000029 100.800004,7.73725861 100.800004,8.40000033 C100.800004,9.06274206 100.262746,9.60000038 99.600004,9.60000038 C98.9372622,9.60000038 98.4000039,9.06274206 98.4000039,8.40000033 C98.4000039,7.73725861 98.9372622,7.20000029 99.600004,7.20000029 Z M103.200004,7.20000029 C103.862746,7.20000029 104.400004,7.73725861 104.400004,8.40000033 C104.400004,9.06274206 103.862746,9.60000038 103.200004,9.60000038 C102.537262,9.60000038 102.000004,9.06274206 102.000004,8.40000033 C102.000004,7.73725861 102.537262,7.20000029 103.200004,7.20000029 Z M110.400004,7.20000029 C111.062746,7.20000029 111.600004,7.73725861 111.600004,8.40000033 C111.600004,9.06274206 111.062746,9.60000038 110.400004,9.60000038 C109.737263,9.60000038 109.200004,9.06274206 109.200004,8.40000033 C109.200004,7.73725861 109.737263,7.20000029 110.400004,7.20000029 Z M99.600004,3.60000014 C100.262746,3.60000014 100.800004,4.13725846 100.800004,4.80000019 C100.800004,5.46274192 100.262746,6.00000024 99.600004,6.00000024 C98.9372622,6.00000024 98.4000039,5.46274192 98.4000039,4.80000019 C98.4000039,4.13725846 98.9372622,3.60000014 99.600004,3.60000014 Z M103.200004,3.60000014 C103.862746,3.60000014 104.400004,4.13725846 104.400004,4.80000019 C104.400004,5.46274192 103.862746,6.00000024 103.200004,6.00000024 C102.537262,6.00000024 102.000004,5.46274192 102.000004,4.80000019 C102.000004,4.13725846 102.537262,3.60000014 103.200004,3.60000014 Z M110.400004,3.60000014 C111.062746,3.60000014 111.600004,4.13725846 111.600004,4.80000019 C111.600004,5.46274192 111.062746,6.00000024 110.400004,6.00000024 C109.737263,6.00000024 109.200004,5.46274192 109.200004,4.80000019 C109.200004,4.13725846 109.737263,3.60000014 110.400004,3.60000014 Z" id="Rectangle-2" fill="#CCCCCC"></path>
                        <polyline id="Path" stroke="#CCCCCC" stroke-width="2.4000001" stroke-linecap="round" points="57.6000023 4.80000019 54.0000021 8.40000033 57.6000023 12.0000005"></polyline>
                        <polyline id="Path" stroke="#CCCCCC" stroke-width="2.4000001" stroke-linecap="round" transform="translate(79.800003, 8.400000) scale(-1, 1) translate(-79.800003, -8.400000) " points="81.6000032 4.80000019 78.0000031 8.40000033 81.6000032 12.0000005"></polyline>
                    </g>
                    <g id="Bottom-Bar-Items" transform="translate(25.200001, 349.200014)">
                        <rect id="Rectangle" fill="#CCCCCC" x="22.8000009" y="9.60000038" width="159.600006" height="2.4000001" rx="1.20000005"></rect>
                        <g id="Lock-Icon">
                            <rect id="Rectangle" fill="#A0A0A0" x="0" y="6.00000024" width="14.4000006" height="10.8000004" rx="2.4000001"></rect>
                            <path d="M3.60000014,9 L3.60000014,3.60000014 C3.60000014,1.61177496 5.21177511,3.6523104e-16 7.20000029,0 C9.18822546,-3.6523104e-16 10.8000004,1.61177496 10.8000004,3.60000014 L10.8000004,7.20000029 L10.8000004,7.20000029" id="Path-3" stroke="#A0A0A0" stroke-width="2.4000001"></path>
                        </g>
                        <rect id="Rectangle" stroke="#CCCCCC" stroke-width="2.4000001" x="322.800013" y="4.80000019" width="56.4000022" height="9.60000038" rx="4.80000019"></rect>
                        <rect id="Rectangle" stroke="#CCCCCC" stroke-width="2.4000001" x="390.000015" y="4.80000019" width="9.60000038" height="9.60000038" rx="4.80000019"></rect>
                    </g>
                </g>
                <g id="Second-Column" transform="translate(34.800001, 246.000010)">
                    <rect id="Rectangle" fill="#EDEDED" x="0" y="0" width="375.600015" height="76.8000031" rx="14.4000006"></rect>
                    <rect id="Rectangle" fill="#262626" x="270.000011" y="18.000001" width="96.0000038" height="33.6000013" rx="10.0800002"></rect>
                    <path d="M295.068997,41.8000011 L296.161653,38.3546886 L301.152434,38.3546886 L302.225403,41.8000011 L305.444309,41.8000011 L300.51259,27.5954696 L297.018059,27.5954696 L292.08634,41.8000011 L295.068997,41.8000011 Z M300.522434,36.130001 L296.801497,36.130001 L298.583215,30.4796884 L298.760403,30.4796884 L300.522434,36.130001 Z M310.039372,41.8000011 L310.039372,26.8178133 L307.174841,26.8178133 L307.174841,41.8000011 L310.039372,41.8000011 Z M315.471153,41.8000011 L315.471153,26.8178133 L312.606622,26.8178133 L312.606622,41.8000011 L315.471153,41.8000011 Z M322.75356,42.0264074 C326.090591,42.0264074 328.098716,39.9198449 328.098716,36.3760948 C328.098716,32.8618759 326.06106,30.7257821 322.75356,30.7257821 C319.44606,30.7257821 317.408403,32.8717197 317.408403,36.3760948 C317.408403,39.9100011 319.416528,42.0264074 322.75356,42.0264074 Z M322.75356,39.7623448 C321.217935,39.7623448 320.351685,38.5220323 320.351685,36.3760948 C320.351685,34.2498447 321.227778,32.9996884 322.75356,32.9996884 C324.269497,32.9996884 325.155435,34.2498447 325.155435,36.3760948 C325.155435,38.5220323 324.279341,39.7623448 322.75356,39.7623448 Z M334.554247,41.8000011 L336.473779,34.240001 L336.650966,34.240001 L338.590185,41.8000011 L341.641748,41.8000011 L344.525966,30.9620321 L341.681123,30.9620321 L340.066747,38.8075011 L339.88956,38.8075011 L337.979872,30.9620321 L335.24331,30.9620321 L333.343466,38.8075011 L333.166279,38.8075011 L331.551904,30.9620321 L328.647997,30.9620321 L331.54206,41.8000011 L334.554247,41.8000011 Z" id="Allow" fill="#FFFFFF" fill-rule="nonzero"></path>
                    <path d="M16.1460944,27.4531255 C18.607032,27.4531255 20.1328133,26.229688 20.1328133,24.2609379 C20.1328133,22.7210941 19.2679695,21.8632816 17.2078132,21.3921878 L16.0406256,21.1250003 C14.7820318,20.8296878 14.2687506,20.4289065 14.2687506,19.7328127 C14.2687506,18.8539064 15.0421881,18.2773439 16.2093756,18.2773439 C17.3203132,18.2773439 18.1078132,18.8468752 18.2343757,19.7539065 L19.9710945,19.7539065 C19.8867195,18.0171877 18.3468757,16.8007814 16.2164069,16.8007814 C13.9453131,16.8007814 12.4406255,18.0242189 12.4406255,19.852344 C12.4406255,21.3570315 13.3054693,22.2640628 15.1476569,22.6859378 L16.4625007,22.9882816 C17.763282,23.2906254 18.3187507,23.7406254 18.3187507,24.4789067 C18.3187507,25.3437505 17.4539069,25.9695317 16.2585944,25.9695317 C14.9718756,25.9695317 14.0718756,25.3789067 13.9593756,24.4507817 L12.1875005,24.4507817 C12.2789067,26.285938 13.8187505,27.4531255 16.1460944,27.4531255 Z M22.8328134,29.9843756 C24.5554697,29.9843756 25.378126,29.3585944 26.0320323,27.467188 L28.8093761,19.514844 L26.9671886,19.514844 L25.1742198,25.5476567 L25.0546885,25.5476567 L23.2546884,19.514844 L21.3421883,19.514844 L24.0914072,27.2281255 L24.000001,27.5867193 C23.7750009,28.3109381 23.3601572,28.5921881 22.6218759,28.5921881 C22.5023446,28.5921881 22.2421884,28.5851568 22.1437509,28.5710943 L22.1437509,29.9562506 C22.2562509,29.9773444 22.7273447,29.9843756 22.8328134,29.9843756 Z M33.1968763,27.354688 C35.1164076,27.354688 36.4734389,26.3773442 36.4734389,24.9078129 C36.4734389,23.7757816 35.7914077,23.1500004 34.3218764,22.8125004 L32.9648451,22.5101566 C32.1914075,22.3273441 31.8257825,22.0531253 31.8257825,21.6171878 C31.8257825,21.0476565 32.4234388,20.6609378 33.2179701,20.6609378 C34.0335951,20.6609378 34.5468764,21.0125003 34.6734389,21.5539066 L36.3117202,21.5539066 C36.1851577,20.1687502 35.0390639,19.3671877 33.2109388,19.3671877 C31.3968762,19.3671877 30.1312512,20.330469 30.1312512,21.7085941 C30.1312512,22.8617191 30.827345,23.5367191 32.3039075,23.8742191 L33.6679701,24.1906254 C34.3992201,24.3593754 34.7296889,24.6406254 34.7296889,25.0765629 C34.7296889,25.6601567 34.1179701,26.060938 33.2390638,26.060938 C32.3671888,26.060938 31.8257825,25.7093755 31.6570325,25.1398442 L29.9343762,25.1398442 C30.0679699,26.5250005 31.277345,27.354688 33.1968763,27.354688 Z M41.2617204,27.2351568 C41.5992204,27.2351568 41.9226579,27.2070318 42.1757829,27.157813 L42.1757829,25.8218755 C41.9648454,25.8429692 41.8312517,25.8570317 41.5851579,25.8570317 C40.8539079,25.8570317 40.5304704,25.5125005 40.5304704,24.7460942 L40.5304704,20.921094 L42.1757829,20.921094 L42.1757829,19.5640627 L40.5304704,19.5640627 L40.5304704,17.6304689 L38.7937515,17.6304689 L38.7937515,19.5640627 L37.5773452,19.5640627 L37.5773452,20.921094 L38.7937515,20.921094 L38.7937515,25.1609379 C38.7937515,26.6445318 39.4968766,27.2351568 41.2617204,27.2351568 Z M47.1679706,27.354688 C48.9820332,27.354688 50.268752,26.482813 50.5851583,25.0976567 L48.9328144,25.0976567 C48.6796894,25.6742192 48.0820332,25.9976567 47.2171894,25.9976567 C46.0710956,25.9976567 45.3328143,25.1820317 45.2906268,23.8812504 L45.2906268,23.7898441 L50.662502,23.7898441 L50.662502,23.2343754 C50.662502,20.8226565 49.3476582,19.3671877 47.1539081,19.3671877 C44.9250018,19.3671877 43.5398455,20.921094 43.5398455,23.3890629 C43.5398455,25.8500005 44.903908,27.354688 47.1679706,27.354688 Z M48.9187519,22.6296878 L45.297658,22.6296878 C45.3750018,21.4765628 46.1062518,20.724219 47.1468769,20.724219 C48.1945332,20.724219 48.8835957,21.4625003 48.9187519,22.6296878 Z M54.1570334,27.2000005 L54.1570334,22.5242191 C54.1570334,21.5679691 54.7968772,20.8437503 55.661721,20.8437503 C56.5195335,20.8437503 57.0539085,21.3640628 57.0539085,22.2148441 L57.0539085,27.2000005 L58.7484398,27.2000005 L58.7484398,22.3976566 C58.7484398,21.5187503 59.3460961,20.8437503 60.2531274,20.8437503 C61.1882837,20.8437503 61.6593775,21.342969 61.6593775,22.3414066 L61.6593775,27.2000005 L63.3960963,27.2000005 L63.3960963,21.9125003 C63.3960963,20.3164065 62.4679712,19.3671877 60.9281274,19.3671877 C59.8593774,19.3671877 58.9734398,19.9156252 58.5937523,20.752344 L58.4742211,20.752344 C58.1507836,19.9015627 57.4125023,19.3671877 56.3507835,19.3671877 C55.3312522,19.3671877 54.5437522,19.8875002 54.2132834,20.752344 L54.0937521,20.752344 L54.0937521,19.514844 L52.4132833,19.514844 L52.4132833,27.2000005 L54.1570334,27.2000005 Z M72.1921904,27.354688 C74.1117217,27.354688 75.468753,26.3773442 75.468753,24.9078129 C75.468753,23.7757816 74.7867217,23.1500004 73.3171904,22.8125004 L71.9601591,22.5101566 C71.1867216,22.3273441 70.8210966,22.0531253 70.8210966,21.6171878 C70.8210966,21.0476565 71.4187528,20.6609378 72.2132841,20.6609378 C73.0289092,20.6609378 73.5421904,21.0125003 73.6687529,21.5539066 L75.3070342,21.5539066 C75.1804717,20.1687502 74.0343779,19.3671877 72.2062529,19.3671877 C70.3921903,19.3671877 69.1265652,20.330469 69.1265652,21.7085941 C69.1265652,22.8617191 69.822659,23.5367191 71.2992216,23.8742191 L72.6632841,24.1906254 C73.3945342,24.3593754 73.7250029,24.6406254 73.7250029,25.0765629 C73.7250029,25.6601567 73.1132842,26.060938 72.2343779,26.060938 C71.3625028,26.060938 70.8210966,25.7093755 70.6523466,25.1398442 L68.9296902,25.1398442 C69.063284,26.5250005 70.272659,27.354688 72.1921904,27.354688 Z M80.552347,27.354688 C82.8515658,27.354688 84.2507846,25.8500005 84.2507846,23.3539066 C84.2507846,20.8718753 82.8445345,19.3671877 80.552347,19.3671877 C78.2671906,19.3671877 76.8539093,20.8789065 76.8539093,23.3539066 C76.8539093,25.8500005 78.2460969,27.354688 80.552347,27.354688 Z M80.552347,25.9273442 C79.3359407,25.9273442 78.6398469,24.9851567 78.6398469,23.3609379 C78.6398469,21.7367191 79.3359407,20.7945315 80.552347,20.7945315 C81.761722,20.7945315 82.4578158,21.7367191 82.4578158,23.3609379 C82.4578158,24.9851567 81.7687532,25.9273442 80.552347,25.9273442 Z M88.307816,27.2000005 L88.307816,20.921094 L89.9601598,20.921094 L89.9601598,19.5640627 L88.2867223,19.5640627 L88.2867223,18.8539064 C88.2867223,18.1226564 88.6101598,17.7570314 89.4328161,17.7570314 C89.6789098,17.7570314 89.8898473,17.7781252 90.0304723,17.7992189 L90.0304723,16.5406251 C89.7492223,16.4914063 89.4328161,16.4703126 89.0601598,16.4703126 C87.351566,16.4703126 86.5710972,17.2226564 86.5710972,18.7554689 L86.5710972,19.5640627 L85.3125034,19.5640627 L85.3125034,20.921094 L86.5710972,20.921094 L86.5710972,27.2000005 L88.307816,27.2000005 Z M94.6640663,27.2351568 C95.0015663,27.2351568 95.3250038,27.2070318 95.5781288,27.157813 L95.5781288,25.8218755 C95.3671913,25.8429692 95.2335975,25.8570317 94.9875038,25.8570317 C94.2562537,25.8570317 93.9328162,25.5125005 93.9328162,24.7460942 L93.9328162,20.921094 L95.5781288,20.921094 L95.5781288,19.5640627 L93.9328162,19.5640627 L93.9328162,17.6304689 L92.1960974,17.6304689 L92.1960974,19.5640627 L90.9796911,19.5640627 L90.9796911,20.921094 L92.1960974,20.921094 L92.1960974,25.1609379 C92.1960974,26.6445318 92.8992224,27.2351568 94.6640663,27.2351568 Z M100.598441,27.2000005 L102.089067,21.6312503 L102.208598,21.6312503 L103.706254,27.2000005 L105.54141,27.2000005 L107.622661,19.514844 L105.885942,19.514844 L104.613285,25.2875004 L104.493754,25.2875004 L103.003129,19.514844 L101.336723,19.514844 L99.8601602,25.2875004 L99.740629,25.2875004 L98.4609414,19.514844 L96.7031288,19.514844 L98.7843789,27.2000005 L100.598441,27.2000005 Z M111.257817,27.326563 C112.263286,27.326563 113.107036,26.8906255 113.535942,26.145313 L113.655473,26.145313 L113.655473,27.2000005 L115.335942,27.2000005 L115.335942,21.9476566 C115.335942,20.3234378 114.225005,19.3671877 112.249223,19.3671877 C110.421098,19.3671877 109.148442,20.2250002 109.007817,21.5679691 L110.653129,21.5679691 C110.814848,21.0406253 111.363286,20.752344 112.164848,20.752344 C113.107036,20.752344 113.613286,21.1812503 113.613286,21.9476566 L113.613286,22.6085941 L111.630473,22.7281253 C109.760161,22.8335941 108.712504,23.6421879 108.712504,25.0203129 C108.712504,26.426563 109.774223,27.326563 111.257817,27.326563 Z M111.771098,25.9835942 C110.997661,25.9835942 110.442192,25.5968755 110.442192,24.9359379 C110.442192,24.2960942 110.899223,23.9375004 111.876567,23.8742191 L113.613286,23.7546879 L113.613286,24.3804692 C113.613286,25.2945317 112.825786,25.9835942 111.771098,25.9835942 Z M119.175005,27.2000005 L119.175005,22.7351566 C119.175005,21.6523441 119.962505,20.949219 121.094536,20.949219 C121.389849,20.949219 121.853911,20.9984378 121.987505,21.0476565 L121.987505,19.458594 C121.825786,19.4164065 121.516411,19.3882815 121.263286,19.3882815 C120.27188,19.3882815 119.442192,19.9507815 119.231255,20.7101565 L119.111723,20.7101565 L119.111723,19.514844 L117.431255,19.514844 L117.431255,27.2000005 L119.175005,27.2000005 Z M126.663286,27.354688 C128.477349,27.354688 129.764068,26.482813 130.080474,25.0976567 L128.42813,25.0976567 C128.175005,25.6742192 127.577349,25.9976567 126.712505,25.9976567 C125.566411,25.9976567 124.82813,25.1820317 124.785942,23.8812504 L124.785942,23.7898441 L130.157818,23.7898441 L130.157818,23.2343754 C130.157818,20.8226565 128.842974,19.3671877 126.649224,19.3671877 C124.420317,19.3671877 123.035161,20.921094 123.035161,23.3890629 C123.035161,25.8500005 124.399224,27.354688 126.663286,27.354688 Z M128.414068,22.6296878 L124.792974,22.6296878 C124.870317,21.4765628 125.601567,20.724219 126.642193,20.724219 C127.689849,20.724219 128.378911,21.4625003 128.414068,22.6296878 Z M138.04688,27.2000005 L138.04688,20.921094 L139.699224,20.921094 L139.699224,19.5640627 L138.025787,19.5640627 L138.025787,18.8539064 C138.025787,18.1226564 138.349224,17.7570314 139.171881,17.7570314 C139.417974,17.7570314 139.628912,17.7781252 139.769537,17.7992189 L139.769537,16.5406251 C139.488287,16.4914063 139.171881,16.4703126 138.799224,16.4703126 C137.09063,16.4703126 136.310162,17.2226564 136.310162,18.7554689 L136.310162,19.5640627 L135.051568,19.5640627 L135.051568,20.921094 L136.310162,20.921094 L136.310162,27.2000005 L138.04688,27.2000005 Z M143.123443,27.2000005 L143.123443,22.7351566 C143.123443,21.6523441 143.910943,20.949219 145.042975,20.949219 C145.338287,20.949219 145.80235,20.9984378 145.935943,21.0476565 L145.935943,19.458594 C145.774225,19.4164065 145.46485,19.3882815 145.211725,19.3882815 C144.220318,19.3882815 143.390631,19.9507815 143.179693,20.7101565 L143.060162,20.7101565 L143.060162,19.514844 L141.379693,19.514844 L141.379693,27.2000005 L143.123443,27.2000005 Z M150.682037,27.354688 C152.981256,27.354688 154.380475,25.8500005 154.380475,23.3539066 C154.380475,20.8718753 152.974225,19.3671877 150.682037,19.3671877 C148.396881,19.3671877 146.9836,20.8789065 146.9836,23.3539066 C146.9836,25.8500005 148.375787,27.354688 150.682037,27.354688 Z M150.682037,25.9273442 C149.465631,25.9273442 148.769537,24.9851567 148.769537,23.3609379 C148.769537,21.7367191 149.465631,20.7945315 150.682037,20.7945315 C151.891412,20.7945315 152.587506,21.7367191 152.587506,23.3609379 C152.587506,24.9851567 151.898444,25.9273442 150.682037,25.9273442 Z M157.882038,27.2000005 L157.882038,22.5242191 C157.882038,21.5679691 158.521881,20.8437503 159.386725,20.8437503 C160.244538,20.8437503 160.778913,21.3640628 160.778913,22.2148441 L160.778913,27.2000005 L162.473444,27.2000005 L162.473444,22.3976566 C162.473444,21.5187503 163.0711,20.8437503 163.978132,20.8437503 C164.913288,20.8437503 165.384382,21.342969 165.384382,22.3414066 L165.384382,27.2000005 L167.1211,27.2000005 L167.1211,21.9125003 C167.1211,20.3164065 166.192975,19.3671877 164.653132,19.3671877 C163.584382,19.3671877 162.698444,19.9156252 162.318756,20.752344 L162.199225,20.752344 C161.875788,19.9015627 161.137506,19.3671877 160.075788,19.3671877 C159.056256,19.3671877 158.268756,19.8875002 157.938288,20.752344 L157.818756,20.752344 L157.818756,19.514844 L156.138287,19.514844 L156.138287,27.2000005 L157.882038,27.2000005 Z M175.811726,27.326563 C176.880476,27.326563 177.766413,26.8273443 178.202351,25.9835942 L178.321882,25.9835942 L178.321882,27.2000005 L180.009382,27.2000005 L180.009382,16.5406251 L178.265632,16.5406251 L178.265632,20.7382815 L178.146101,20.7382815 C177.738288,19.8945315 176.866413,19.3882815 175.811726,19.3882815 C173.871101,19.3882815 172.647663,20.921094 172.647663,23.3539066 C172.647663,25.7937505 173.864069,27.326563 175.811726,27.326563 Z M176.353132,25.8781255 C175.157819,25.8781255 174.433601,24.9359379 174.433601,23.3609379 C174.433601,21.7929691 175.164851,20.8437503 176.353132,20.8437503 C177.548445,20.8437503 178.286726,21.8070316 178.286726,23.3609379 C178.286726,24.9218754 177.555476,25.8781255 176.353132,25.8781255 Z M185.458601,27.354688 C187.272664,27.354688 188.559382,26.482813 188.875789,25.0976567 L187.223445,25.0976567 C186.97032,25.6742192 186.372664,25.9976567 185.50782,25.9976567 C184.361726,25.9976567 183.623445,25.1820317 183.581257,23.8812504 L183.581257,23.7898441 L188.953133,23.7898441 L188.953133,23.2343754 C188.953133,20.8226565 187.638289,19.3671877 185.444539,19.3671877 C183.215632,19.3671877 181.830476,20.921094 181.830476,23.3890629 C181.830476,25.8500005 183.194539,27.354688 185.458601,27.354688 Z M187.209382,22.6296878 L183.588289,22.6296878 C183.665632,21.4765628 184.396882,20.724219 185.437507,20.724219 C186.485164,20.724219 187.174226,21.4625003 187.209382,22.6296878 Z M194.690633,27.2000005 L197.411727,19.514844 L195.569539,19.514844 L193.804695,25.4914067 L193.685164,25.4914067 L191.906258,19.514844 L190.035945,19.514844 L192.771101,27.2000005 L194.690633,27.2000005 Z M202.129696,27.354688 C203.943758,27.354688 205.230477,26.482813 205.546883,25.0976567 L203.894539,25.0976567 C203.641414,25.6742192 203.043758,25.9976567 202.178914,25.9976567 C201.03282,25.9976567 200.294539,25.1820317 200.252352,23.8812504 L200.252352,23.7898441 L205.624227,23.7898441 L205.624227,23.2343754 C205.624227,20.8226565 204.309383,19.3671877 202.115633,19.3671877 C199.886727,19.3671877 198.50157,20.921094 198.50157,23.3890629 C198.50157,25.8500005 199.865633,27.354688 202.129696,27.354688 Z M203.880477,22.6296878 L200.259383,22.6296878 C200.336727,21.4765628 201.067977,20.724219 202.108602,20.724219 C203.156258,20.724219 203.845321,21.4625003 203.880477,22.6296878 Z M209.189071,27.2000005 L209.189071,16.5406251 L207.445321,16.5406251 L207.445321,27.2000005 L209.189071,27.2000005 Z M214.708602,27.354688 C217.007821,27.354688 218.40704,25.8500005 218.40704,23.3539066 C218.40704,20.8718753 217.00079,19.3671877 214.708602,19.3671877 C212.423446,19.3671877 211.010165,20.8789065 211.010165,23.3539066 C211.010165,25.8500005 212.402352,27.354688 214.708602,27.354688 Z M214.708602,25.9273442 C213.492196,25.9273442 212.796102,24.9851567 212.796102,23.3609379 C212.796102,21.7367191 213.492196,20.7945315 214.708602,20.7945315 C215.917977,20.7945315 216.614071,21.7367191 216.614071,23.3609379 C216.614071,24.9851567 215.925009,25.9273442 214.708602,25.9273442 Z M221.908603,29.7523444 L221.908603,26.032813 L222.028134,26.032813 C222.421884,26.848438 223.272665,27.326563 224.376571,27.326563 C226.317196,27.326563 227.526572,25.8007817 227.526572,23.3609379 C227.526572,20.9000003 226.303134,19.3882815 224.355478,19.3882815 C223.30079,19.3882815 222.407821,19.9156252 221.964853,20.7875003 L221.845321,20.7875003 L221.845321,19.514844 L220.164852,19.514844 L220.164852,29.7523444 L221.908603,29.7523444 Z M223.80704,25.8781255 C222.618759,25.8781255 221.880478,24.9148442 221.873446,23.3609379 C221.880478,21.8070316 222.62579,20.8437503 223.814071,20.8437503 C225.009384,20.8437503 225.733603,21.7859378 225.733603,23.3609379 C225.733603,24.9359379 225.016415,25.8781255 223.80704,25.8781255 Z M232.52579,27.354688 C234.339853,27.354688 235.626572,26.482813 235.942978,25.0976567 L234.290634,25.0976567 C234.037509,25.6742192 233.439853,25.9976567 232.575009,25.9976567 C231.428915,25.9976567 230.690634,25.1820317 230.648447,23.8812504 L230.648447,23.7898441 L236.020322,23.7898441 L236.020322,23.2343754 C236.020322,20.8226565 234.705478,19.3671877 232.511728,19.3671877 C230.282822,19.3671877 228.897665,20.921094 228.897665,23.3890629 C228.897665,25.8500005 230.261728,27.354688 232.52579,27.354688 Z M234.276572,22.6296878 L230.655478,22.6296878 C230.732822,21.4765628 231.464072,20.724219 232.504697,20.724219 C233.552353,20.724219 234.241416,21.4625003 234.276572,22.6296878 Z M239.514853,27.2000005 L239.514853,22.7351566 C239.514853,21.6523441 240.302353,20.949219 241.434385,20.949219 C241.729697,20.949219 242.19376,20.9984378 242.327353,21.0476565 L242.327353,19.458594 C242.165635,19.4164065 241.85626,19.3882815 241.603135,19.3882815 C240.611728,19.3882815 239.782041,19.9507815 239.571103,20.7101565 L239.451572,20.7101565 L239.451572,19.514844 L237.771103,19.514844 L237.771103,27.2000005 L239.514853,27.2000005 Z M14.0789068,38.286719 L14.8945318,34.0539064 L13.6007818,34.0539064 L12.3070317,38.286719 L14.0789068,38.286719 Z M17.2289069,38.286719 L17.9250007,34.0539064 L16.6312507,34.0539064 L15.4640631,38.286719 L17.2289069,38.286719 Z M22.1085946,44.2000005 L22.1085946,40.3820316 L24.1195322,40.3820316 L26.109376,44.2000005 L28.1835949,44.2000005 L25.968751,40.1078129 C27.1781261,39.6718753 27.8812511,38.5539064 27.8812511,37.2109377 C27.8812511,35.2703127 26.5453136,34.0539064 24.4148447,34.0539064 L20.2945321,34.0539064 L20.2945321,44.2000005 L22.1085946,44.2000005 Z M24.2039072,38.9617191 L22.1085946,38.9617191 L22.1085946,35.5234377 L24.1617197,35.5234377 C25.3148448,35.5234377 26.0179698,36.177344 26.0179698,37.246094 C26.0179698,38.3359378 25.3570323,38.9617191 24.2039072,38.9617191 Z M33.2109388,44.354688 C35.5101577,44.354688 36.9093765,42.8500005 36.9093765,40.3539066 C36.9093765,37.8718753 35.5031264,36.3671877 33.2109388,36.3671877 C30.9257825,36.3671877 29.5125012,37.8789065 29.5125012,40.3539066 C29.5125012,42.8500005 30.9046887,44.354688 33.2109388,44.354688 Z M33.2109388,42.9273442 C31.9945325,42.9273442 31.2984387,41.9851567 31.2984387,40.3609379 C31.2984387,38.7367191 31.9945325,37.7945315 33.2109388,37.7945315 C34.4203139,37.7945315 35.1164076,38.7367191 35.1164076,40.3609379 C35.1164076,41.9851567 34.4273451,42.9273442 33.2109388,42.9273442 Z M41.9718767,47.1250006 C44.2148455,47.1250006 45.6351581,46.0070318 45.6351581,44.242188 L45.6351581,36.514844 L43.9546892,36.514844 L43.9546892,37.7453128 L43.835158,37.7453128 C43.413283,36.908594 42.4992204,36.3882815 41.4515641,36.3882815 C39.4898453,36.3882815 38.273439,37.921094 38.273439,40.2765629 C38.273439,42.582813 39.4828141,44.0875005 41.4234391,44.0875005 C42.4921892,44.0875005 43.328908,43.6375005 43.7718767,42.807813 L43.891408,42.807813 L43.891408,44.270313 C43.891408,45.2476568 43.1953142,45.8242193 42.0000017,45.8242193 C41.0437516,45.8242193 40.4250016,45.4796881 40.3125016,44.9382818 L38.5617203,44.9382818 C38.7023453,46.2601569 39.9960953,47.1250006 41.9718767,47.1250006 Z M41.9718767,42.7023442 C40.7554704,42.7023442 40.0664078,41.7601567 40.0664078,40.2695316 C40.0664078,38.7859378 40.7554704,37.8437503 41.9718767,37.8437503 C43.1812517,37.8437503 43.919533,38.7859378 43.919533,40.2765629 C43.919533,41.7601567 43.188283,42.7023442 41.9718767,42.7023442 Z M50.3671895,44.354688 C51.5414083,44.354688 52.2937521,43.8554693 52.6664083,42.976563 L52.7859396,42.976563 L52.7859396,44.2000005 L54.4664084,44.2000005 L54.4664084,36.514844 L52.7226583,36.514844 L52.7226583,40.9937504 C52.7226583,42.1539067 52.1039083,42.8570317 50.971877,42.8570317 C49.931252,42.8570317 49.4460957,42.2804692 49.4460957,41.0851567 L49.4460957,36.514844 L47.7023456,36.514844 L47.7023456,41.5070317 C47.7023456,43.3070317 48.6867207,44.354688 50.3671895,44.354688 Z M59.8523461,44.354688 C61.6664087,44.354688 62.9531275,43.482813 63.2695338,42.0976567 L61.6171899,42.0976567 C61.3640649,42.6742192 60.7664087,42.9976567 59.9015649,42.9976567 C58.7554711,42.9976567 58.0171898,42.1820317 57.9750023,40.8812504 L57.9750023,40.7898441 L63.3468775,40.7898441 L63.3468775,40.2343754 C63.3468775,37.8226565 62.0320337,36.3671877 59.8382836,36.3671877 C57.6093773,36.3671877 56.224221,37.921094 56.224221,40.3890629 C56.224221,42.8500005 57.5882835,44.354688 59.8523461,44.354688 Z M61.6031274,39.6296878 L57.9820336,39.6296878 C58.0593773,38.4765628 58.7906273,37.724219 59.8312524,37.724219 C60.8789087,37.724219 61.5679712,38.4625003 61.6031274,39.6296878 Z M70.2023465,44.2000005 L71.0742216,41.5773442 L74.8078155,41.5773442 L75.665628,44.2000005 L77.6132843,44.2000005 L74.0062529,34.0539064 L71.9671904,34.0539064 L68.3671902,44.2000005 L70.2023465,44.2000005 Z M74.3859405,40.1781254 L71.4960966,40.1781254 L72.8882841,35.9593752 L73.0078154,35.9593752 L74.3859405,40.1781254 Z M80.917972,44.2000005 L80.917972,39.5242191 C80.917972,38.5679691 81.5578157,37.8437503 82.4226595,37.8437503 C83.2804721,37.8437503 83.8148471,38.3640628 83.8148471,39.2148441 L83.8148471,44.2000005 L85.5093784,44.2000005 L85.5093784,39.3976566 C85.5093784,38.5187503 86.1070347,37.8437503 87.014066,37.8437503 C87.9492222,37.8437503 88.420316,38.342969 88.420316,39.3414066 L88.420316,44.2000005 L90.1570348,44.2000005 L90.1570348,38.9125003 C90.1570348,37.3164065 89.2289098,36.3671877 87.689066,36.3671877 C86.6203159,36.3671877 85.7343784,36.9156252 85.3546909,37.752344 L85.2351596,37.752344 C84.9117221,36.9015627 84.1734408,36.3671877 83.1117221,36.3671877 C82.0921908,36.3671877 81.3046907,36.8875002 80.974222,37.752344 L80.8546907,37.752344 L80.8546907,36.514844 L79.1742219,36.514844 L79.1742219,44.2000005 L80.917972,44.2000005 Z M95.5429725,44.354688 C97.8421914,44.354688 99.2414102,42.8500005 99.2414102,40.3539066 C99.2414102,37.8718753 97.8351601,36.3671877 95.5429725,36.3671877 C93.2578162,36.3671877 91.8445349,37.8789065 91.8445349,40.3539066 C91.8445349,42.8500005 93.2367225,44.354688 95.5429725,44.354688 Z M95.5429725,42.9273442 C94.3265662,42.9273442 93.6304725,41.9851567 93.6304725,40.3609379 C93.6304725,38.7367191 94.3265662,37.7945315 95.5429725,37.7945315 C96.7523476,37.7945315 97.4484414,38.7367191 97.4484414,40.3609379 C97.4484414,41.9851567 96.7593788,42.9273442 95.5429725,42.9273442 Z M104.24766,44.354688 C106.061723,44.354688 107.348442,43.482813 107.664848,42.0976567 L106.012504,42.0976567 C105.759379,42.6742192 105.161723,42.9976567 104.296879,42.9976567 C103.150785,42.9976567 102.412504,42.1820317 102.370317,40.8812504 L102.370317,40.7898441 L107.742192,40.7898441 L107.742192,40.2343754 C107.742192,37.8226565 106.427348,36.3671877 104.233598,36.3671877 C102.004692,36.3671877 100.619535,37.921094 100.619535,40.3890629 C100.619535,42.8500005 101.983598,44.354688 104.24766,44.354688 Z M105.998442,39.6296878 L102.377348,39.6296878 C102.454692,38.4765628 103.185942,37.724219 104.226567,37.724219 C105.274223,37.724219 105.963285,38.4625003 105.998442,39.6296878 Z M113.767973,44.326563 C115.708598,44.326563 116.925005,42.8007817 116.925005,40.3609379 C116.925005,37.9070315 115.71563,36.3882815 113.767973,36.3882815 C112.713286,36.3882815 111.827348,36.9015627 111.426567,37.7382815 L111.307036,37.7382815 L111.307036,33.5406251 L109.563286,33.5406251 L109.563286,44.2000005 L111.243754,44.2000005 L111.243754,42.9835942 L111.363286,42.9835942 C111.799223,43.8273443 112.692192,44.326563 113.767973,44.326563 Z M113.219536,42.8781255 C112.024223,42.8781255 111.278911,41.9148442 111.278911,40.3609379 C111.278911,38.8070316 112.031254,37.8437503 113.219536,37.8437503 C114.407817,37.8437503 115.132036,38.7929691 115.132036,40.3609379 C115.132036,41.9289067 114.414848,42.8781255 113.219536,42.8781255 Z M120.792192,44.326563 C121.797661,44.326563 122.641411,43.8906255 123.070317,43.145313 L123.189849,43.145313 L123.189849,44.2000005 L124.870317,44.2000005 L124.870317,38.9476566 C124.870317,37.3234378 123.75938,36.3671877 121.783599,36.3671877 C119.955474,36.3671877 118.682817,37.2250002 118.542192,38.5679691 L120.187505,38.5679691 C120.349224,38.0406253 120.897661,37.752344 121.699224,37.752344 C122.641411,37.752344 123.147661,38.1812503 123.147661,38.9476566 L123.147661,39.6085941 L121.164849,39.7281253 C119.294536,39.8335941 118.24688,40.6421879 118.24688,42.0203129 C118.24688,43.426563 119.308598,44.326563 120.792192,44.326563 Z M121.305474,42.9835942 C120.532036,42.9835942 119.976567,42.5968755 119.976567,41.9359379 C119.976567,41.2960942 120.433599,40.9375004 121.410942,40.8742191 L123.147661,40.7546879 L123.147661,41.3804692 C123.147661,42.2945317 122.360161,42.9835942 121.305474,42.9835942 Z M134.482037,44.4531255 C136.942974,44.4531255 138.468756,43.229688 138.468756,41.2609379 C138.468756,39.7210941 137.603912,38.8632816 135.543755,38.3921878 L134.376568,38.1250003 C133.117974,37.8296878 132.604693,37.4289065 132.604693,36.7328127 C132.604693,35.8539064 133.37813,35.2773439 134.545318,35.2773439 C135.656255,35.2773439 136.443755,35.8468752 136.570318,36.7539065 L138.307037,36.7539065 C138.222662,35.0171877 136.682818,33.8007814 134.552349,33.8007814 C132.281255,33.8007814 130.776568,35.0242189 130.776568,36.852344 C130.776568,38.3570315 131.641411,39.2640628 133.483599,39.6859378 L134.798443,39.9882816 C136.099224,40.2906254 136.654693,40.7406254 136.654693,41.4789067 C136.654693,42.3437505 135.789849,42.9695317 134.594537,42.9695317 C133.307818,42.9695317 132.407818,42.3789067 132.295318,41.4507817 L130.523443,41.4507817 C130.614849,43.285938 132.154693,44.4531255 134.482037,44.4531255 Z M143.643756,44.354688 C145.942975,44.354688 147.342193,42.8500005 147.342193,40.3539066 C147.342193,37.8718753 145.935943,36.3671877 143.643756,36.3671877 C141.358599,36.3671877 139.945318,37.8789065 139.945318,40.3539066 C139.945318,42.8500005 141.337506,44.354688 143.643756,44.354688 Z M143.643756,42.9273442 C142.427349,42.9273442 141.731256,41.9851567 141.731256,40.3609379 C141.731256,38.7367191 142.427349,37.7945315 143.643756,37.7945315 C144.853131,37.7945315 145.549225,38.7367191 145.549225,40.3609379 C145.549225,41.9851567 144.860162,42.9273442 143.643756,42.9273442 Z M151.399225,44.2000005 L151.399225,37.921094 L153.051569,37.921094 L153.051569,36.5640627 L151.378131,36.5640627 L151.378131,35.8539064 C151.378131,35.1226564 151.701569,34.7570314 152.524225,34.7570314 C152.770319,34.7570314 152.981256,34.7781252 153.121881,34.7992189 L153.121881,33.5406251 C152.840631,33.4914063 152.524225,33.4703126 152.151569,33.4703126 C150.442975,33.4703126 149.662506,34.2226564 149.662506,35.7554689 L149.662506,36.5640627 L148.403912,36.5640627 L148.403912,37.921094 L149.662506,37.921094 L149.662506,44.2000005 L151.399225,44.2000005 Z M157.755475,44.2351568 C158.092975,44.2351568 158.416413,44.2070318 158.669538,44.157813 L158.669538,42.8218755 C158.4586,42.8429692 158.325006,42.8570317 158.078913,42.8570317 C157.347663,42.8570317 157.024225,42.5125005 157.024225,41.7460942 L157.024225,37.921094 L158.669538,37.921094 L158.669538,36.5640627 L157.024225,36.5640627 L157.024225,34.6304689 L155.287506,34.6304689 L155.287506,36.5640627 L154.0711,36.5640627 L154.0711,37.921094 L155.287506,37.921094 L155.287506,42.1609379 C155.287506,43.6445318 155.990631,44.2351568 157.755475,44.2351568 Z M163.68985,44.2000005 L165.180475,38.6312503 L165.300007,38.6312503 L166.797663,44.2000005 L168.632819,44.2000005 L170.714069,36.514844 L168.97735,36.514844 L167.704694,42.2875004 L167.585163,42.2875004 L166.094538,36.514844 L164.428132,36.514844 L162.951569,42.2875004 L162.832038,42.2875004 L161.55235,36.514844 L159.794538,36.514844 L161.875788,44.2000005 L163.68985,44.2000005 Z M174.349226,44.326563 C175.354694,44.326563 176.198445,43.8906255 176.627351,43.145313 L176.746882,43.145313 L176.746882,44.2000005 L178.427351,44.2000005 L178.427351,38.9476566 C178.427351,37.3234378 177.316413,36.3671877 175.340632,36.3671877 C173.512507,36.3671877 172.239851,37.2250002 172.099226,38.5679691 L173.744538,38.5679691 C173.906257,38.0406253 174.454694,37.752344 175.256257,37.752344 C176.198445,37.752344 176.704695,38.1812503 176.704695,38.9476566 L176.704695,39.6085941 L174.721882,39.7281253 C172.851569,39.8335941 171.803913,40.6421879 171.803913,42.0203129 C171.803913,43.426563 172.865632,44.326563 174.349226,44.326563 Z M174.862507,42.9835942 C174.089069,42.9835942 173.533601,42.5968755 173.533601,41.9359379 C173.533601,41.2960942 173.990632,40.9375004 174.967976,40.8742191 L176.704695,40.7546879 L176.704695,41.3804692 C176.704695,42.2945317 175.917194,42.9835942 174.862507,42.9835942 Z M182.266413,44.2000005 L182.266413,39.7351566 C182.266413,38.6523441 183.053914,37.949219 184.185945,37.949219 C184.481257,37.949219 184.94532,37.9984378 185.078914,38.0476565 L185.078914,36.458594 C184.917195,36.4164065 184.60782,36.3882815 184.354695,36.3882815 C183.363289,36.3882815 182.533601,36.9507815 182.322663,37.7101565 L182.203132,37.7101565 L182.203132,36.514844 L180.522663,36.514844 L180.522663,44.2000005 L182.266413,44.2000005 Z M189.754695,44.354688 C191.568758,44.354688 192.855476,43.482813 193.171883,42.0976567 L191.519539,42.0976567 C191.266414,42.6742192 190.668758,42.9976567 189.803914,42.9976567 C188.65782,42.9976567 187.919539,42.1820317 187.877351,40.8812504 L187.877351,40.7898441 L193.249226,40.7898441 L193.249226,40.2343754 C193.249226,37.8226565 191.934383,36.3671877 189.740633,36.3671877 C187.511726,36.3671877 186.12657,37.921094 186.12657,40.3890629 C186.12657,42.8500005 187.490632,44.354688 189.754695,44.354688 Z M191.505476,39.6296878 L187.884382,39.6296878 C187.961726,38.4765628 188.692976,37.724219 189.733601,37.724219 C190.781258,37.724219 191.47032,38.4625003 191.505476,39.6296878 Z M196.125008,46.8789069 L197.341414,42.6531255 L195.57657,42.6531255 L194.922664,46.8789069 L196.125008,46.8789069 Z M210.229696,44.2000005 L210.229696,42.6460942 L205.575008,42.6460942 L205.575008,34.0539064 L203.760946,34.0539064 L203.760946,44.2000005 L210.229696,44.2000005 Z M218.653134,44.2000005 L218.653134,42.6460942 L213.998446,42.6460942 L213.998446,34.0539064 L212.184383,34.0539064 L212.184383,44.2000005 L218.653134,44.2000005 Z M224.840634,44.4531255 C227.18204,44.4531255 228.897665,43.0679692 229.136728,41.0148441 L227.35079,41.0148441 C227.104697,42.1539067 226.127353,42.8781255 224.840634,42.8781255 C223.110946,42.8781255 222.035165,41.4367192 222.035165,39.1234378 C222.035165,36.8171877 223.110946,35.3757814 224.833603,35.3757814 C226.11329,35.3757814 227.090634,36.1703127 227.343759,37.3937503 L229.129697,37.3937503 C228.918759,35.2914064 227.139853,33.8007814 224.833603,33.8007814 C221.957821,33.8007814 220.178915,35.8328127 220.178915,39.1304691 C220.178915,42.414063 221.964853,44.4531255 224.840634,44.4531255 Z M232.307822,38.286719 L233.482041,34.0539064 L231.717197,34.0539064 L231.021103,38.286719 L232.307822,38.286719 Z M235.338291,38.286719 L236.632041,34.0539064 L234.867197,34.0539064 L234.051572,38.286719 L235.338291,38.286719 Z M15.7453131,61.2000005 L17.2359382,55.6312503 L17.3554694,55.6312503 L18.8531257,61.2000005 L20.6882821,61.2000005 L22.7695322,53.514844 L21.0328133,53.514844 L19.760157,59.2875004 L19.6406258,59.2875004 L18.1500007,53.514844 L16.4835944,53.514844 L15.0070318,59.2875004 L14.8875006,59.2875004 L13.607813,53.514844 L11.8500005,53.514844 L13.9312506,61.2000005 L15.7453131,61.2000005 Z M26.4046885,61.326563 C27.4101573,61.326563 28.2539074,60.8906255 28.6828136,60.145313 L28.8023449,60.145313 L28.8023449,61.2000005 L30.4828137,61.2000005 L30.4828137,55.9476566 C30.4828137,54.3234378 29.3718762,53.3671877 27.3960948,53.3671877 C25.5679698,53.3671877 24.2953135,54.2250002 24.1546885,55.5679691 L25.800001,55.5679691 C25.9617198,55.0406253 26.5101573,54.752344 27.3117198,54.752344 C28.2539074,54.752344 28.7601574,55.1812503 28.7601574,55.9476566 L28.7601574,56.6085941 L26.7773448,56.7281253 C24.9070322,56.8335941 23.8593759,57.6421879 23.8593759,59.0203129 C23.8593759,60.426563 24.9210947,61.326563 26.4046885,61.326563 Z M26.9179698,59.9835942 C26.1445323,59.9835942 25.5890635,59.5968755 25.5890635,58.9359379 C25.5890635,58.2960942 26.0460948,57.9375004 27.0234386,57.8742191 L28.7601574,57.7546879 L28.7601574,58.3804692 C28.7601574,59.2945317 27.9726574,59.9835942 26.9179698,59.9835942 Z M35.4679702,61.354688 C37.3875015,61.354688 38.7445328,60.3773442 38.7445328,58.9078129 C38.7445328,57.7757816 38.0625015,57.1500004 36.5929702,56.8125004 L35.2359389,56.5101566 C34.4625014,56.3273441 34.0968764,56.0531253 34.0968764,55.6171878 C34.0968764,55.0476565 34.6945326,54.6609378 35.4890639,54.6609378 C36.3046889,54.6609378 36.8179702,55.0125003 36.9445327,55.5539066 L38.582814,55.5539066 C38.4562515,54.1687502 37.3101577,53.3671877 35.4820327,53.3671877 C33.6679701,53.3671877 32.402345,54.330469 32.402345,55.7085941 C32.402345,56.8617191 33.0984388,57.5367191 34.5750014,57.8742191 L35.9390639,58.1906254 C36.670314,58.3593754 37.0007827,58.6406254 37.0007827,59.0765629 C37.0007827,59.6601567 36.3890639,60.060938 35.5101577,60.060938 C34.6382826,60.060938 34.0968764,59.7093755 33.9281263,59.1398442 L32.20547,59.1398442 C32.3390638,60.5250005 33.5484388,61.354688 35.4679702,61.354688 Z M48.6234394,61.326563 C50.5640645,61.326563 51.7804708,59.8007817 51.7804708,57.3609379 C51.7804708,54.9070315 50.5710958,53.3882815 48.6234394,53.3882815 C47.5687519,53.3882815 46.6828144,53.9015627 46.2820331,54.7382815 L46.1625018,54.7382815 L46.1625018,50.5406251 L44.4187518,50.5406251 L44.4187518,61.2000005 L46.0992206,61.2000005 L46.0992206,59.9835942 L46.2187518,59.9835942 C46.6546894,60.8273443 47.5476581,61.326563 48.6234394,61.326563 Z M48.0750019,59.8781255 C46.8796894,59.8781255 46.1343768,58.9148442 46.1343768,57.3609379 C46.1343768,55.8070316 46.8867206,54.8437503 48.0750019,54.8437503 C49.2632832,54.8437503 49.987502,55.7929691 49.987502,57.3609379 C49.987502,58.9289067 49.2703145,59.8781255 48.0750019,59.8781255 Z M55.3453147,61.2000005 L55.3453147,50.5406251 L53.6015646,50.5406251 L53.6015646,61.2000005 L55.3453147,61.2000005 Z M60.8648462,61.354688 C63.164065,61.354688 64.5632838,59.8500005 64.5632838,57.3539066 C64.5632838,54.8718753 63.1570338,53.3671877 60.8648462,53.3671877 C58.5796898,53.3671877 57.1664085,54.8789065 57.1664085,57.3539066 C57.1664085,59.8500005 58.5585961,61.354688 60.8648462,61.354688 Z M60.8648462,59.9273442 C59.6484399,59.9273442 58.9523461,58.9851567 58.9523461,57.3609379 C58.9523461,55.7367191 59.6484399,54.7945315 60.8648462,54.7945315 C62.0742212,54.7945315 62.770315,55.7367191 62.770315,57.3609379 C62.770315,58.9851567 62.0812525,59.9273442 60.8648462,59.9273442 Z M69.6187528,61.354688 C71.5664091,61.354688 72.7757841,60.2718755 72.9656279,58.6828129 L71.3062528,58.6828129 C71.1234403,59.4914067 70.5187528,59.920313 69.6117215,59.920313 C68.4234402,59.920313 67.7062527,58.9710942 67.7062527,57.3398441 C67.7062527,55.7367191 68.416409,54.7945315 69.6117215,54.7945315 C70.5679716,54.7945315 71.1445341,55.3359378 71.3062528,56.0812503 L72.9656279,56.0812503 C72.7828154,54.4921878 71.5875028,53.3671877 69.6117215,53.3671877 C67.2984402,53.3671877 65.9414089,54.8507815 65.9414089,57.3398441 C65.9414089,59.8570317 67.3054714,61.354688 69.6187528,61.354688 Z M76.4460968,61.2000005 L76.4460968,58.5000004 L77.0648468,57.8812504 L79.5328157,61.2000005 L81.6421907,61.2000005 L78.3656281,56.8125004 L81.4312532,53.514844 L79.4062532,53.514844 L76.565628,56.6648441 L76.4460968,56.6648441 L76.4460968,50.5406251 L74.7023467,50.5406251 L74.7023467,61.2000005 L76.4460968,61.2000005 Z M86.2335972,61.354688 C88.0476597,61.354688 89.3343785,60.482813 89.6507848,59.0976567 L87.998441,59.0976567 C87.745316,59.6742192 87.1476597,59.9976567 86.2828159,59.9976567 C85.1367221,59.9976567 84.3984409,59.1820317 84.3562534,57.8812504 L84.3562534,57.7898441 L89.7281286,57.7898441 L89.7281286,57.2343754 C89.7281286,54.8226565 88.4132848,53.3671877 86.2195347,53.3671877 C83.9906283,53.3671877 82.605472,54.921094 82.605472,57.3890629 C82.605472,59.8500005 83.9695346,61.354688 86.2335972,61.354688 Z M87.9843785,56.6296878 L84.3632846,56.6296878 C84.4406284,55.4765628 85.1718784,54.724219 86.2125034,54.724219 C87.2601597,54.724219 87.9492222,55.4625003 87.9843785,56.6296878 Z M94.263285,61.326563 C95.332035,61.326563 96.2179726,60.8273443 96.6539101,59.9835942 L96.7734413,59.9835942 L96.7734413,61.2000005 L98.4609414,61.2000005 L98.4609414,50.5406251 L96.7171913,50.5406251 L96.7171913,54.7382815 L96.5976601,54.7382815 C96.1898476,53.8945315 95.3179725,53.3882815 94.263285,53.3882815 C92.3226599,53.3882815 91.0992224,54.921094 91.0992224,57.3539066 C91.0992224,59.7937505 92.3156287,61.326563 94.263285,61.326563 Z M94.8046913,59.8781255 C93.6093787,59.8781255 92.8851599,58.9359379 92.8851599,57.3609379 C92.8851599,55.7929691 93.61641,54.8437503 94.8046913,54.8437503 C96.0000038,54.8437503 96.7382851,55.8070316 96.7382851,57.3609379 C96.7382851,58.9218754 96.0070351,59.8781255 94.8046913,59.8781255 Z M106.800004,61.2000005 L106.800004,54.921094 L108.452348,54.921094 L108.452348,53.5640627 L106.77891,53.5640627 L106.77891,52.8539064 C106.77891,52.1226564 107.102348,51.7570314 107.925004,51.7570314 C108.171098,51.7570314 108.382036,51.7781252 108.522661,51.7992189 L108.522661,50.5406251 C108.241411,50.4914063 107.925004,50.4703126 107.552348,50.4703126 C105.843754,50.4703126 105.063285,51.2226564 105.063285,52.7554689 L105.063285,53.5640627 L103.804692,53.5640627 L103.804692,54.921094 L105.063285,54.921094 L105.063285,61.2000005 L106.800004,61.2000005 Z M111.876567,61.2000005 L111.876567,56.7351566 C111.876567,55.6523441 112.664067,54.949219 113.796098,54.949219 C114.091411,54.949219 114.555473,54.9984378 114.689067,55.0476565 L114.689067,53.458594 C114.527348,53.4164065 114.217973,53.3882815 113.964848,53.3882815 C112.973442,53.3882815 112.143754,53.9507815 111.932817,54.7101565 L111.813286,54.7101565 L111.813286,53.514844 L110.132817,53.514844 L110.132817,61.2000005 L111.876567,61.2000005 Z M119.435161,61.354688 C121.73438,61.354688 123.133599,59.8500005 123.133599,57.3539066 C123.133599,54.8718753 121.727349,53.3671877 119.435161,53.3671877 C117.150005,53.3671877 115.736723,54.8789065 115.736723,57.3539066 C115.736723,59.8500005 117.128911,61.354688 119.435161,61.354688 Z M119.435161,59.9273442 C118.218755,59.9273442 117.522661,58.9851567 117.522661,57.3609379 C117.522661,55.7367191 118.218755,54.7945315 119.435161,54.7945315 C120.644536,54.7945315 121.34063,55.7367191 121.34063,57.3609379 C121.34063,58.9851567 120.651567,59.9273442 119.435161,59.9273442 Z M126.635161,61.2000005 L126.635161,56.5242191 C126.635161,55.5679691 127.275005,54.8437503 128.139849,54.8437503 C128.997661,54.8437503 129.532036,55.3640628 129.532036,56.2148441 L129.532036,61.2000005 L131.226568,61.2000005 L131.226568,56.3976566 C131.226568,55.5187503 131.824224,54.8437503 132.731255,54.8437503 C133.666412,54.8437503 134.137505,55.342969 134.137505,56.3414066 L134.137505,61.2000005 L135.874224,61.2000005 L135.874224,55.9125003 C135.874224,54.3164065 134.946099,53.3671877 133.406255,53.3671877 C132.337505,53.3671877 131.451568,53.9156252 131.07188,54.752344 L130.952349,54.752344 C130.628911,53.9015627 129.89063,53.3671877 128.828911,53.3671877 C127.80938,53.3671877 127.02188,53.8875002 126.691411,54.752344 L126.57188,54.752344 L126.57188,53.514844 L124.891411,53.514844 L124.891411,61.2000005 L126.635161,61.2000005 Z M143.594537,61.2000005 L143.594537,50.5406251 L141.850787,50.5406251 L141.850787,61.2000005 L143.594537,61.2000005 Z M149.114068,61.354688 C151.413287,61.354688 152.812506,59.8500005 152.812506,57.3539066 C152.812506,54.8718753 151.406256,53.3671877 149.114068,53.3671877 C146.828912,53.3671877 145.415631,54.8789065 145.415631,57.3539066 C145.415631,59.8500005 146.807818,61.354688 149.114068,61.354688 Z M149.114068,59.9273442 C147.897662,59.9273442 147.201568,58.9851567 147.201568,57.3609379 C147.201568,55.7367191 147.897662,54.7945315 149.114068,54.7945315 C150.323443,54.7945315 151.019537,55.7367191 151.019537,57.3609379 C151.019537,58.9851567 150.330475,59.9273442 149.114068,59.9273442 Z M156.686725,61.326563 C157.692194,61.326563 158.535944,60.8906255 158.96485,60.145313 L159.084381,60.145313 L159.084381,61.2000005 L160.76485,61.2000005 L160.76485,55.9476566 C160.76485,54.3234378 159.653913,53.3671877 157.678131,53.3671877 C155.850006,53.3671877 154.57735,54.2250002 154.436725,55.5679691 L156.082037,55.5679691 C156.243756,55.0406253 156.792194,54.752344 157.593756,54.752344 C158.535944,54.752344 159.042194,55.1812503 159.042194,55.9476566 L159.042194,56.6085941 L157.059381,56.7281253 C155.189069,56.8335941 154.141412,57.6421879 154.141412,59.0203129 C154.141412,60.426563 155.203131,61.326563 156.686725,61.326563 Z M157.200006,59.9835942 C156.426569,59.9835942 155.8711,59.5968755 155.8711,58.9359379 C155.8711,58.2960942 156.328131,57.9375004 157.305475,57.8742191 L159.042194,57.7546879 L159.042194,58.3804692 C159.042194,59.2945317 158.254694,59.9835942 157.200006,59.9835942 Z M165.644538,61.326563 C166.713288,61.326563 167.599225,60.8273443 168.035163,59.9835942 L168.154694,59.9835942 L168.154694,61.2000005 L169.842194,61.2000005 L169.842194,50.5406251 L168.098444,50.5406251 L168.098444,54.7382815 L167.978913,54.7382815 C167.5711,53.8945315 166.699225,53.3882815 165.644538,53.3882815 C163.703913,53.3882815 162.480475,54.921094 162.480475,57.3539066 C162.480475,59.7937505 163.696882,61.326563 165.644538,61.326563 Z M166.185944,59.8781255 C164.990632,59.8781255 164.266413,58.9359379 164.266413,57.3609379 C164.266413,55.7929691 164.997663,54.8437503 166.185944,54.8437503 C167.381257,54.8437503 168.119538,55.8070316 168.119538,57.3609379 C168.119538,58.9218754 167.388288,59.8781255 166.185944,59.8781255 Z M172.928913,52.2281252 C173.505476,52.2281252 173.976569,51.7710939 173.976569,51.1945314 C173.976569,50.6250001 173.505476,50.1609376 172.928913,50.1609376 C172.359382,50.1609376 171.888288,50.6250001 171.888288,51.1945314 C171.888288,51.7710939 172.359382,52.2281252 172.928913,52.2281252 Z M173.800788,61.2000005 L173.800788,53.514844 L172.064069,53.514844 L172.064069,61.2000005 L173.800788,61.2000005 Z M177.703132,61.2000005 L177.703132,56.7210941 C177.703132,55.5679691 178.357038,54.8437503 179.397663,54.8437503 C180.459382,54.8437503 180.95157,55.4414065 180.95157,56.6367191 L180.95157,61.2000005 L182.69532,61.2000005 L182.69532,56.2289066 C182.69532,54.4007815 181.760163,53.3671877 180.044538,53.3671877 C178.898445,53.3671877 178.125007,53.8875002 177.759382,54.7453128 L177.639851,54.7453128 L177.639851,53.514844 L175.959382,53.514844 L175.959382,61.2000005 L177.703132,61.2000005 Z M188.067195,64.1250006 C190.310164,64.1250006 191.730476,63.0070318 191.730476,61.242188 L191.730476,53.514844 L190.050008,53.514844 L190.050008,54.7453128 L189.930476,54.7453128 C189.508601,53.908594 188.594539,53.3882815 187.546882,53.3882815 C185.585164,53.3882815 184.368757,54.921094 184.368757,57.2765629 C184.368757,59.582813 185.578132,61.0875005 187.518757,61.0875005 C188.587507,61.0875005 189.424226,60.6375005 189.867195,59.807813 L189.986726,59.807813 L189.986726,61.270313 C189.986726,62.2476568 189.290633,62.8242193 188.09532,62.8242193 C187.13907,62.8242193 186.52032,62.4796881 186.40782,61.9382818 L184.657039,61.9382818 C184.797664,63.2601569 186.091414,64.1250006 188.067195,64.1250006 Z M188.067195,59.7023442 C186.850789,59.7023442 186.161726,58.7601567 186.161726,57.2695316 C186.161726,55.7859378 186.850789,54.8437503 188.067195,54.8437503 C189.27657,54.8437503 190.014851,55.7859378 190.014851,57.2765629 C190.014851,58.7601567 189.283601,59.7023442 188.067195,59.7023442 Z M195.168758,61.3406255 C195.836727,61.3406255 196.293758,60.8695318 196.293758,60.2437505 C196.293758,59.6250005 195.836727,59.1539067 195.168758,59.1539067 C194.50782,59.1539067 194.043758,59.6250005 194.043758,60.2437505 C194.043758,60.8695318 194.50782,61.3406255 195.168758,61.3406255 Z" id="SystemsoftwarefromdeveloperRogueAmoebaSoftware,LLCwasblockedfromloading." fill="#262626" fill-rule="nonzero"></path>
                </g>
                <circle id="Oval" stroke="#269878" stroke-width="5" cx="352.800014" cy="279.600011" r="64.7000027"></circle>
            </g>
        </g>
    </g>
</svg>