<svg height="400" viewBox="0 0 460 400" width="460" xmlns="http://www.w3.org/2000/svg"><g fill="none" fill-rule="evenodd"><rect height="382.000015" rx="14.400001" stroke="#ccc" stroke-width="2" width="442.000018" x="9" y="9"/><g transform="translate(30.800001 57.000002)"><path d="m388.799999 10.9999981c7.9529 0 14.4 6.4470999 14.4 14.4000006v247.1999993c0 7.9529-6.4471 14.4-14.4 14.4h-374.1999993c-7.95290075 0-14.40000061-6.4471-14.40000061-14.4v-247.1999993c0-7.9529007 6.44709986-14.4000006 14.40000061-14.4000006h104.3999993v2h-104.3999993c-6.74611735 0-12.23399028 5.3871846-12.40000061 12.0942396v247.5057603c0 6.746117 5.38718462 12.23399 12.09423961 12.396304l.305761.003696h374.1999993c6.746117 0 12.23399-5.387185 12.4-12.094239v-247.5057603c0-6.7461174-5.387185-12.2339903-12.094239-12.3963046l-.305761-.003696h-77.8v-2z" fill="#ccc" fill-rule="nonzero"/><g transform="translate(116.600005)"><path d="m185.999994 1.99999809c5.301934 0 9.6 4.29806658 9.6 9.60000041v.7999992c0 5.3019338-4.298066 9.6000004-9.6 9.6000004l-122.3642204-.00012c.8524953-.5668364 1.6283578-1.2397774 2.3087343-1.9999696l120.0554861.0000896c4.115063 0 7.466258-3.2705076 7.596095-7.3540329l.003905-.2459675v-.7999992c0-4.11506307-3.270507-7.46625815-7.354032-7.59609546l-.245968-.00390495-120.0563867-.00091271c-.6806971-.76037925-1.4569382-1.43343823-2.3098505-2.00030416zm-180.67728565 2.90286747c-1.46017965 1.98767193-2.32270835 4.441676-2.32270835 7.09713444 0 2.6554584.8625287 5.1094625 2.32270835 7.0971344-1.68493017-1.7290029-2.72271393-4.0918761-2.72271393-6.6971367v-.7999992c0-2.55955428 1.00168971-4.88515136 2.63443963-6.60616178z" fill="#ccc" fill-rule="nonzero"/><rect height="22" rx="11" stroke="#ccc" stroke-width="2" width="68" x="1.599994" y=".999998"/><path d="m17.0500006 16.216795c2.3085939 0 3.7500002-1.4062501 3.7500002-3.6503908v-1.0722657h-3.5507814v1.2890626h1.8339844l-.0058593.1582031c-.0351563 1.0546876-.8378907 1.763672-1.998047 1.763672-1.3945313 0-2.2734376-1.1191407-2.2734376-2.9589845 0-1.8046876.8378907-2.91210952 2.2031251-2.91210952.9843751 0 1.6933595.50390627 1.9570313 1.38867192h1.7578126c-.2460938-1.75195318-1.7167969-2.89453135-3.7148439-2.89453135-2.4609376 0-4.013672 1.71679694-4.013672 4.43554705 0 2.7597657 1.5410157 4.4531252 4.0546876 4.4531252zm8.0859379-.0820313c1.5820313 0 2.7011719-.7558594 2.9531251-1.9570313h-1.5878907c-.1816406.4394531-.6445313.6855469-1.3183594.6855469-.8906251 0-1.4531251-.6152344-1.4765626-1.5996094v-.0878907h4.4355471v-.5097656c0-2.0390626-1.1250001-3.25781264-3.029297-3.25781264-1.9218751 0-3.1054689 1.30078134-3.1054689 3.39843764 0 2.0859376 1.1601563 3.3281251 3.1289064 3.3281251zm1.3300781-4.0195314h-2.7539063c.0585937-.8671875.6152344-1.4355469 1.40625-1.4355469.7968751 0 1.3125001.5507813 1.3476563 1.4355469zm4.7753909 3.8847658v-3.732422c0-.8730469.4863281-1.435547 1.2773438-1.435547.8085937 0 1.1894531.4746094 1.1894531 1.3828126v3.7851564h1.7050782v-4.1718752c0-1.5410157-.7734375-2.41992194-2.2089844-2.41992194-.9550782 0-1.6113282.45117189-1.9101564 1.17773444h-.1054687v-1.03710944h-1.6523438v6.45117214zm8.636719.1347656c1.5820314 0 2.701172-.7558594 2.9531252-1.9570313h-1.5878907c-.1816407.4394531-.6445313.6855469-1.3183595.6855469-.890625 0-1.453125-.6152344-1.4765625-1.5996094v-.0878907h4.435547v-.5097656c0-2.0390626-1.125-3.25781264-3.029297-3.25781264-1.921875 0-3.1054688 1.30078134-3.1054688 3.39843764 0 2.0859376 1.1601563 3.3281251 3.1289063 3.3281251zm1.3300782-4.0195314h-2.7539063c.0585937-.8671875.6152344-1.4355469 1.40625-1.4355469.7968751 0 1.3125001.5507813 1.3476563 1.4355469zm4.7753908 3.8847658v-3.6093752c0-.9082031.6386719-1.4648438 1.5703126-1.4648438.2753906 0 .6738282.046875.8085938.09375v-1.50000001c-.1464844-.04687501-.4335938-.07617188-.6679688-.07617188-.8203125 0-1.4882813.48632814-1.6582032 1.13085939h-.1054687v-1.02539064h-1.6523439v6.45117214zm5.2851565.0996094c.8378907 0 1.5410157-.3574219 1.8750001-.9550782h.1054687v.8554688h1.6523438v-4.4062502c0-1.3769532-.9667969-2.18554694-2.6777344-2.18554694-1.623047 0-2.7187501.74414064-2.8300783 1.92773444h1.5703126c.140625-.4042969.5507813-.6210938 1.1660157-.6210938.703125 0 1.0898438.3222657 1.0898438.8789063v.5332032l-1.5644532.09375c-1.6054689.09375-2.5019533.7734375-2.5019533 1.9394532 0 1.1777344.8730469 1.9394532 2.1152345 1.9394532zm.5625-1.248047c-.5917969 0-1.0078125-.2988281-1.0078125-.796875 0-.4746094.3574219-.75 1.0898438-.796875l1.3066407-.0878906v.4804687c0 .6796876-.5976563 1.2011719-1.388672 1.2011719zm6.5097659 1.1484376v-8.91796911h-1.7050782v8.91796911z" fill="#a0a0a0" fill-rule="nonzero"/></g><g stroke="#ccc"><g fill="#a0a0a0" stroke-width="1.2"><rect height="1" rx=".5" width="165.8" x="39.8" y="39.599998"/><rect height="1" rx=".5" width="66.8" x="68.8" y="58.599998"/><rect height="1" rx=".5" width="167.8" x="68.8" y="73.599998"/><rect height="1" rx=".5" width="198.8" x="68.8" y="89.599998"/><rect height="1" rx=".5" width="111.8" x="41.8" y="153.599998"/><rect height="1" rx=".5" width="35.8" x="71.8" y="168.599998"/><rect height="1" rx=".5" width="136.8" x="71.8" y="183.599998"/><rect height="1" rx=".5" width="128.8" x="215.8" y="58.599998"/></g><g stroke-width="2"><rect height="8" rx="4" width="8" x="56.2" y="54.999998"/><rect height="8" rx="4" width="8" x="56.2" y="70.999998"/><rect height="8" rx="4" width="8" x="56.2" y="85.999998"/><rect height="8" rx="4" width="8" x="57.2" y="165.999998"/><rect height="8" rx="4" width="8" x="57.2" y="179.999998"/><rect height="10" rx="5" width="87" x="216.2" y="34.999998"/><rect height="10" rx="5" width="66" x="141.2" y="53.999998"/><rect height="10" rx="5" width="88" x="244.2" y="69.999998"/></g></g></g><g transform="translate(30.800001 18.8)"><path d="m126.037505 14.2601563c2.545313 0 4.113281-1.2515626 4.113281-3.2765627 0-1.56796878-.878906-2.44687507-2.917968-2.88281258l-1.223438-.26015626c-1.188281-.26015627-1.673438-.63281253-1.673438-1.27265631 0-.79453128.703125-1.30781255 1.764844-1.30781255 1.026563 0 1.771875.54140627 1.870313 1.37109381h1.996875c-.063281-1.79296882-1.645313-3.03750012-3.88125-3.03750012-2.341407 0-3.88125 1.25156255-3.88125 3.14296887 0 1.53984381.907031 2.4890626 2.75625 2.88281262l1.321875.28828126c1.244531.27421876 1.750781.66093756 1.750781 1.32890626 0 .7875001-.780469 1.3429688-1.884375 1.3429688-1.195313 0-2.025-.5414062-2.123438-1.3851563h-2.053125c.077344 1.8773439 1.645313 3.0656252 4.064063 3.0656252zm9.288282-.0984375c1.898437 0 3.241406-.9070313 3.54375-2.3484376h-1.905469c-.217969.5273437-.773438.8226562-1.582031.8226562-1.06875 0-1.74375-.7382812-1.771875-1.9195313v-.1054687h5.322656v-.61171881c0-2.4468751-1.35-3.90937515-3.635156-3.90937515-2.30625 0-3.726563 1.56093756-3.726563 4.07812516 0 2.5031251 1.392188 3.9937502 3.754688 3.9937502zm1.596093-4.82343774h-3.304687c.070312-1.04062504.738281-1.72265631 1.6875-1.72265631.95625 0 1.575.66093752 1.617187 1.72265631zm7.094532 4.82343774c2.017969 0 3.283594-1.1109376 3.452344-2.8125002h-1.9125c-.154688.7734376-.703125 1.1882813-1.539844 1.1882813-1.096875 0-1.722656-.8648437-1.722656-2.4257813 0-1.53984382.61875-2.3906251 1.722656-2.3906251.871875 0 1.399219.49218752 1.539844 1.23750005h1.9125c-.16875-1.72968757-1.399219-2.86875011-3.452344-2.86875011-2.425781 0-3.789844 1.4695313-3.789844 4.02187516 0 2.5804688 1.371094 4.0500002 3.789844 4.0500002zm7.692188 0c1.174219 0 1.898437-.5062501 2.264062-1.4062501h.126563v1.2445313h1.982812v-7.74140656h-2.046093v4.47187516c0 1.0617188-.548438 1.7156251-1.567969 1.7156251-.942188 0-1.427344-.5554688-1.427344-1.6523438v-4.53515646h-2.046094v5.04140646c0 1.8000001 1.040625 2.8617189 2.714063 2.8617189zm8.472656-.1617188v-4.33125017c0-1.0898438.766407-1.75781257 1.884375-1.75781257.330469 0 .808594.05625.970313.1125v-1.80000007c-.175781-.05625-.520313-.09140625-.801563-.09140625-.984375 0-1.785937.58359377-1.989843 1.3570313h-.126563v-1.2304688h-1.982812v7.74140656zm5.259376-8.92968785c.632812 0 1.153125-.50625002 1.153125-1.13906255 0-.63984378-.520313-1.1460938-1.153125-1.1460938-.632813 0-1.160157.50625002-1.160157 1.1460938 0 .63281253.527344 1.13906255 1.160157 1.13906255zm1.019531 8.92968785v-7.74140656h-2.046094v7.74140656zm5.280469.028125c.39375 0 .773437-.0421875 1.026562-.0914063v-1.5117188c-.196875.0210938-.3375.0351563-.604687.0351563-.696094 0-1.005469-.3234375-1.005469-1.0195313v-3.55781264h1.610156v-1.55390631h-1.610156v-1.91953133h-2.046094v1.91953133h-1.209375v1.55390631h1.209375v4.02890644c0 1.5046875.745313 2.1164063 2.629688 2.1164063zm3.691406 2.7843751c1.933594 0 2.882813-.6890625 3.54375-2.6648438l2.671875-7.88906286h-2.165625l-1.63125 5.90625026h-.126562l-1.63125-5.90625026h-2.257032l2.721094 7.78359406-.070312.2953125c-.16875.6257813-.604688.8789063-1.371094.8789063-.084375 0-.39375-.0070313-.464063-.0210938v1.5960939c.084375.0140625.703125.0210937.780469.0210937zm14.625001-2.6226563c1.244531 0 2.404687-.3796876 3.157031-1.0265626l.780469.8367188h2.299219l-1.884375-1.9757813c.548437-.7523438.864844-1.8281251.864844-3.07968765v-.59062502h-1.722657v.47109376c0 .87890629-.119531 1.48359381-.358594 1.92656261l-1.947656-2.08828136c1.420313-.76640628 2.067188-1.60312507 2.067188-2.65078136 0-1.3710938-1.174219-2.32734384-2.833594-2.32734384-1.666406 0-2.889844 1.00546879-2.889844 2.36953134 0 .73828128.330469 1.37109381 1.258594 2.32734385-.05625.028125-.407813.22500001-.45.24609376-1.307813.71015627-1.891407 1.54687501-1.891407 2.71406261 0 1.7296876 1.392188 2.8476564 3.550782 2.8476564zm.239062-6.48984405c-.696093-.66796878-.942187-1.06875004-.942187-1.53984381 0-.64687503.471094-1.1039063 1.132031-1.1039063.660938 0 1.117969.45000002 1.117969 1.1039063 0 .60468752-.379688 1.06171879-1.307813 1.53984381zm-.028125 4.99921895c-1.096875 0-1.842187-.6117188-1.842187-1.5257813 0-.6328125.351562-1.1460938 1.089844-1.56093757.077343-.04218751.217968-.11250001.295312-.14062501l2.327344 2.51718758c-.400781.4359375-1.132031.7101563-1.870313.7101563zm13.275001 1.3007813v-3.1992189h2.003906c2.1375 0 3.621094-1.39218753 3.621094-3.45937511 0-2.09531259-1.427344-3.48750014-3.515625-3.48750014h-4.232813v10.14609415zm1.539844-4.86562519h-1.539844v-3.5929689h1.546875c1.223437 0 1.919531.62578128 1.919531 1.80703133 0 1.15312504-.710156 1.78593757-1.926562 1.78593757zm7.882031 4.86562519v-4.33125017c0-1.0898438.766406-1.75781257 1.884375-1.75781257.330469 0 .808594.05625.970313.1125v-1.80000007c-.175781-.05625-.520313-.09140625-.801563-.09140625-.984375 0-1.785937.58359377-1.989844 1.3570313h-.126562v-1.2304688h-1.982813v7.74140656zm5.259375-8.92968785c.632813 0 1.153125-.50625002 1.153125-1.13906255 0-.63984378-.520312-1.1460938-1.153125-1.1460938-.632812 0-1.160156.50625002-1.160156 1.1460938 0 .63281253.527344 1.13906255 1.160156 1.13906255zm1.019532 8.92968785v-7.74140656h-2.046094v7.74140656zm6.398437 0 2.678907-7.74140656h-2.158594l-1.589063 5.82187526h-.126562l-1.603125-5.82187526h-2.200781l2.692968 7.74140656zm6.187501.1195313c1.005469 0 1.849219-.4289063 2.25-1.1460938h.126562v1.0265625h1.982813v-5.28750021c0-1.65234382-1.160156-2.62265635-3.213281-2.62265635-1.947657 0-3.262501.89296878-3.396094 2.31328134h1.884375c.16875-.48515627.660937-.74531253 1.399219-.74531253.84375 0 1.307812.38671876 1.307812 1.05468754v.63984378l-1.877344.1125c-1.926562.1125-3.002344.92812503-3.002344 2.32734383 0 1.4132813 1.047657 2.3273439 2.538282 2.3273439zm.675-1.4976564c-.710157 0-1.209375-.3585937-1.209375-.95625 0-.5695313.428906-.9 1.307812-.95625l1.567969-.1054688v.5765625c0 .8156251-.717187 1.4414063-1.666406 1.4414063zm9.105469 1.5398439c2.017969 0 3.283594-1.1109376 3.452344-2.8125002h-1.9125c-.154688.7734376-.703125 1.1882813-1.539844 1.1882813-1.096875 0-1.722656-.8648437-1.722656-2.4257813 0-1.53984382.61875-2.3906251 1.722656-2.3906251.871875 0 1.399219.49218752 1.539844 1.23750005h1.9125c-.16875-1.72968757-1.399219-2.86875011-3.452344-2.86875011-2.425781 0-3.789844 1.4695313-3.789844 4.02187516 0 2.5804688 1.371094 4.0500002 3.789844 4.0500002zm6.011719 2.6507813c1.933594 0 2.882812-.6890625 3.54375-2.6648438l2.671875-7.88906286h-2.165625l-1.63125 5.90625026h-.126563l-1.63125-5.90625026h-2.257031l2.721094 7.78359406-.070313.2953125c-.16875.6257813-.604687.8789063-1.371093.8789063-.084375 0-.39375-.0070313-.464063-.0210938v1.5960939c.084375.0140625.703125.0210937.780469.0210937z" fill="#a0a0a0" fill-rule="nonzero"/><g stroke="#ccc"><g stroke-width="2.4"><circle cx="3.6" cy="8.4" r="3.6"/><circle cx="16.800001" cy="8.4" r="3.6"/><circle cx="30.000001" cy="8.4" r="3.6"/></g><rect height="16" rx="8" stroke-width="2" width="101" x="306.199999" y="1.2"/><g stroke-width="2.4"><path d="m317.400013 10.2 3 3.000001" stroke-linecap="round"/><circle cx="315.600012" cy="8.4" r="2.4"/></g></g><path d="m106.800004 3.60000014c.662742 0 1.2.53725832 1.2 1.20000005s-.537258 1.20000005-1.2 1.20000005c-.662741 0-1.2-.53725832-1.2-1.20000005s.537259-1.20000005 1.2-1.20000005zm0 3.60000015c.662742 0 1.2.53725832 1.2 1.20000004 0 .66274173-.537258 1.20000005-1.2 1.20000005-.662741 0-1.2-.53725832-1.2-1.20000005 0-.66274172.537259-1.20000004 1.2-1.20000004zm0 3.60000011c.662742 0 1.2.5372584 1.2 1.2000001s-.537258 1.2-1.2 1.2c-.662741 0-1.2-.5372583-1.2-1.2s.537259-1.2000001 1.2-1.2000001zm-7.2 0c.662742 0 1.2.5372584 1.2 1.2000001s-.537258 1.2-1.2 1.2c-.6627418 0-1.2000001-.5372583-1.2000001-1.2s.5372583-1.2000001 1.2000001-1.2000001zm3.6 0c.662742 0 1.2.5372584 1.2 1.2000001s-.537258 1.2-1.2 1.2-1.2-.5372583-1.2-1.2.537258-1.2000001 1.2-1.2000001zm7.2 0c.662742 0 1.2.5372584 1.2 1.2000001s-.537258 1.2-1.2 1.2c-.662741 0-1.2-.5372583-1.2-1.2s.537259-1.2000001 1.2-1.2000001zm-10.8-3.60000011c.662742 0 1.2.53725832 1.2 1.20000004 0 .66274173-.537258 1.20000005-1.2 1.20000005-.6627418 0-1.2000001-.53725832-1.2000001-1.20000005 0-.66274172.5372583-1.20000004 1.2000001-1.20000004zm3.6 0c.662742 0 1.2.53725832 1.2 1.20000004 0 .66274173-.537258 1.20000005-1.2 1.20000005s-1.2-.53725832-1.2-1.20000005c0-.66274172.537258-1.20000004 1.2-1.20000004zm7.2 0c.662742 0 1.2.53725832 1.2 1.20000004 0 .66274173-.537258 1.20000005-1.2 1.20000005-.662741 0-1.2-.53725832-1.2-1.20000005 0-.66274172.537259-1.20000004 1.2-1.20000004zm-10.8-3.60000015c.662742 0 1.2.53725832 1.2 1.20000005s-.537258 1.20000005-1.2 1.20000005c-.6627418 0-1.2000001-.53725832-1.2000001-1.20000005s.5372583-1.20000005 1.2000001-1.20000005zm3.6 0c.662742 0 1.2.53725832 1.2 1.20000005s-.537258 1.20000005-1.2 1.20000005-1.2-.53725832-1.2-1.20000005.537258-1.20000005 1.2-1.20000005zm7.2 0c.662742 0 1.2.53725832 1.2 1.20000005s-.537258 1.20000005-1.2 1.20000005c-.662741 0-1.2-.53725832-1.2-1.20000005s.537259-1.20000005 1.2-1.20000005z" fill="#ccc"/><g stroke="#ccc" stroke-linecap="round" stroke-width="2.4"><path d="m57.6000023 4.80000019-3.6000002 3.60000014 3.6000002 3.60000017"/><path d="m81.6000032 4.80000019-3.6000001 3.60000014 3.6000001 3.60000017" transform="matrix(-1 0 0 1 159.600006 0)"/></g></g><rect fill="#ccc" height="2" rx="1" width="160" x="56" y="367"/><g transform="translate(32.200001 356.200014)"><rect fill="#a0a0a0" height="11" rx="2.4" width="14" x=".799999" y="6.799986"/><path d="m3.799999 9.79998612v-5c0-2.209139 1.790861-4 4-4s4 1.790861 4 4v3.2" stroke="#a0a0a0" stroke-width="2"/></g><rect height="10" rx="4.8" stroke="#ccc" stroke-width="2" width="57" x="356" y="362"/><rect height="10" rx="5" stroke="#ccc" stroke-width="2" width="10" x="423" y="362"/><rect fill="#ededed" height="77" rx="14.400001" width="376" x="43" y="254"/><rect fill="#262626" height="34" rx="10.08" width="182" x="227" y="272"/><g fill-rule="nonzero" transform="translate(42.800001 254.00001)"><path d="m202.169692 38.8000011v-1.5805664h-4.151367v-2.3168945h3.916504v-1.4726562h-3.916504v-2.2089844h4.151367v-1.5805664h-6.068359v9.1596679zm3.356641 0v-4.043457c0-.9458008.526855-1.5551758 1.383789-1.5551758.875977 0 1.288574.5141602 1.288574 1.4980469v4.1005859h1.847168v-4.5195312c0-1.6694336-.83789-2.621582-2.393066-2.621582-1.034668 0-1.745606.4887695-2.069336 1.2758789h-.114258v-1.1235352h-1.790039v6.9887695zm7.901562.1079102c.907715 0 1.669434-.387207 2.03125-1.034668h.114258v.9267578h1.790039v-4.7734375c0-1.4916992-1.047363-2.3676757-2.900879-2.3676757-1.7583 0-2.945312.8061523-3.065918 2.0883789h1.701172c.152344-.4379883.59668-.6728516 1.263184-.6728516.761719 0 1.180664.3491211 1.180664.9521484v.5776368l-1.694824.1015625c-1.739258.1015625-2.710449.8378906-2.710449 2.1010742 0 1.2758789.9458 2.1010742 2.291503 2.1010742zm.609375-1.3520508c-.641113 0-1.091796-.3237304-1.091796-.8632812 0-.5141602.387207-.8125 1.180664-.8632813l1.415527-.0952148v.5205078c0 .7363281-.647461 1.3012695-1.504395 1.3012695zm8.942579 1.3520508c1.7583 0 2.837402-1.3647461 2.837402-3.6054687 0-2.253418-1.066406-3.6054688-2.837402-3.6054688-.958496 0-1.745606.4633789-2.101075 1.2314453h-.114257v-3.7895508h-1.847168v9.6611328h1.790039v-1.0981445h.114257c.374512.7617188 1.167969 1.2060547 2.158204 1.2060547zm-.641114-1.4916992c-.977539 0-1.586914-.8061524-1.593261-2.1074219.006347-1.3012695.62207-2.1137695 1.593261-2.1137695.977539 0 1.580567.8061523 1.580567 2.1074219 0 1.3139648-.59668 2.1137695-1.580567 2.1137695zm6.568555 1.383789v-9.6611328h-1.847168v9.6611328zm4.638867.1459961c1.713867 0 2.92627-.8188476 3.199219-2.1201171h-1.720215c-.196777.4760742-.698242.7426757-1.428223.7426757-.964843 0-1.574218-.6665039-1.599609-1.7329101v-.0952149h4.805176v-.5522461c0-2.2089843-1.21875-3.5292968-3.281738-3.5292968-2.082032 0-3.364258 1.4091797-3.364258 3.6816406 0 2.2597656 1.256836 3.6054687 3.389648 3.6054687zm1.440918-4.3544921h-2.983398c.063476-.9394532.666504-1.5551758 1.523437-1.5551758.863281 0 1.421875.5966797 1.459961 1.5551758zm8.788965 4.3544921c1.834473 0 3.084961-.9013671 3.084961-2.2851562 0-1.0410156-.609375-1.6123047-1.967774-1.9106445l-1.313964-.2856446c-.647461-.1459961-.945801-.368164-.945801-.7236328 0-.4570312.488769-.7680664 1.148926-.7680664.685546 0 1.110839.2856445 1.206054.7490234h1.70752c-.101563-1.3203125-1.148926-2.0629882-2.92627-2.0629882-1.745605 0-2.913574.8823242-2.913574 2.1899414 0 1.0727539.660156 1.7138672 2.018555 2.012207l1.269531.2856445c.615723.1396485.882324.3554688.882324.7109375 0 .4633789-.495117.7807618-1.212402.7807618-.736328 0-1.187012-.2856446-1.32666-.7680665h-1.802735c.126953 1.3203125 1.244141 2.0756836 3.091309 2.0756836zm4.95625 2.3930664c1.745605 0 2.602539-.6220703 3.199219-2.4057617l2.412109-7.1220703h-1.955078l-1.472656 5.3320313h-.114258l-1.472656-5.3320313h-2.037598l2.456543 7.0268555-.063477.2666015c-.152343.5649415-.545898.7934571-1.237793.7934571-.076171 0-.355468-.0063477-.418945-.019043v1.440918c.076172.0126953.634766.0190429.70459.0190429zm9.139355-2.3930664c1.834473 0 3.084961-.9013671 3.084961-2.2851562 0-1.0410156-.609375-1.6123047-1.967773-1.9106445l-1.313965-.2856446c-.647461-.1459961-.945801-.368164-.945801-.7236328 0-.4570312.48877-.7680664 1.148926-.7680664.685547 0 1.11084.2856445 1.206055.7490234h1.707519c-.101562-1.3203125-1.148926-2.0629882-2.926269-2.0629882-1.745606 0-2.913575.8823242-2.913575 2.1899414 0 1.0727539.660157 1.7138672 2.018555 2.012207l1.269531.2856445c.615723.1396485.882325.3554688.882325.7109375 0 .4633789-.495118.7807618-1.212403.7807618-.736328 0-1.187011-.2856446-1.32666-.7680665h-1.802734c.126953 1.3203125 1.24414 2.0756836 3.091308 2.0756836zm7.146192-.1206054c.355469 0 .698242-.038086.926758-.0825196v-1.3647461c-.177735.019043-.304688.0317383-.545899.0317383-.628418 0-.907715-.2919922-.907715-.9204101v-3.2119141h1.453614v-1.402832h-1.453614v-1.7329102h-1.847168v1.7329102h-1.091797v1.402832h1.091797v3.637207c0 1.3583985.672852 1.9106446 2.374024 1.9106446zm5.140332.1206054c1.713867 0 2.926269-.8188476 3.199219-2.1201171h-1.720215c-.196778.4760742-.698243.7426757-1.428223.7426757-.964844 0-1.574219-.6665039-1.599609-1.7329101v-.0952149h4.805175v-.5522461c0-2.2089843-1.21875-3.5292968-3.281738-3.5292968-2.082031 0-3.364258 1.4091797-3.364258 3.6816406 0 2.2597656 1.256836 3.6054687 3.389649 3.6054687zm1.440918-4.3544921h-2.983399c.063477-.9394532.666504-1.5551758 1.523438-1.5551758.863281 0 1.421875.5966797 1.459961 1.5551758zm4.84834 4.208496v-4.2148437c0-.7998047.51416-1.3837891 1.237793-1.3837891.723632 0 1.155273.4316407 1.155273 1.1806641v4.4179687h1.777344v-4.2973632c0-.7553711.482422-1.3012696 1.231445-1.3012696.780762 0 1.167969.4189453 1.167969 1.2631836v4.3354492h1.847168v-4.7988281c0-1.4409179-.869629-2.3422851-2.266114-2.3422851-.977539 0-1.783691.5141601-2.107421 1.2885742h-.114258c-.279297-.7998047-.952149-1.2885742-1.936035-1.2885742-.920411 0-1.650391.4887695-1.936036 1.2885742h-.114257v-1.1362305h-1.790039v6.9887695zm15.955468.1459961c1.713867 0 2.92627-.8188476 3.199219-2.1201171h-1.720215c-.196777.4760742-.698242.7426757-1.428222.7426757-.964844 0-1.574219-.6665039-1.59961-1.7329101v-.0952149h4.805176v-.5522461c0-2.2089843-1.21875-3.5292968-3.281738-3.5292968-2.082032 0-3.364258 1.4091797-3.364258 3.6816406 0 2.2597656 1.256836 3.6054687 3.389648 3.6054687zm1.440918-4.3544921h-2.983398c.063476-.9394532.666504-1.5551758 1.523437-1.5551758.863282 0 1.421875.5966797 1.459961 1.5551758zm4.162793 4.2148437 1.30127-2.3105469h.114258l1.307617 2.3105469h2.050293l-2.215332-3.5292969 2.202636-3.4594726h-2.018554l-1.237793 2.3232422h-.114258l-1.237793-2.3232422h-2.126465l2.208984 3.5356445-2.189941 3.453125zm8.675977.019043c.355468 0 .698242-.038086.926758-.0825196v-1.3647461c-.177735.019043-.304688.0317383-.545899.0317383-.628418 0-.907715-.2919922-.907715-.9204101v-3.2119141h1.453614v-1.402832h-1.453614v-1.7329102h-1.847168v1.7329102h-1.091797v1.402832h1.091797v3.637207c0 1.3583985.672852 1.9106446 2.374024 1.9106446zm5.140332.1206054c1.713867 0 2.926269-.8188476 3.199218-2.1201171h-1.720214c-.196778.4760742-.698243.7426757-1.428223.7426757-.964844 0-1.574219-.6665039-1.599609-1.7329101v-.0952149h4.805175v-.5522461c0-2.2089843-1.21875-3.5292968-3.281738-3.5292968-2.082031 0-3.364258 1.4091797-3.364258 3.6816406 0 2.2597656 1.256836 3.6054687 3.389649 3.6054687zm1.440918-4.3544921h-2.983399c.063477-.9394532.666504-1.5551758 1.523438-1.5551758.863281 0 1.421875.5966797 1.459961 1.5551758zm4.84834 4.208496v-4.043457c0-.9458008.526855-1.5551758 1.383789-1.5551758.875976 0 1.288574.5141602 1.288574 1.4980469v4.1005859h1.847168v-4.5195312c0-1.6694336-.837891-2.621582-2.393067-2.621582-1.034668 0-1.745605.4887695-2.069336 1.2758789h-.114257v-1.1235352h-1.790039v6.9887695zm8.7458.1459961c1.834473 0 3.084961-.9013671 3.084961-2.2851562 0-1.0410156-.609375-1.6123047-1.967773-1.9106445l-1.313965-.2856446c-.647461-.1459961-.945801-.368164-.945801-.7236328 0-.4570312.48877-.7680664 1.148926-.7680664.685547 0 1.11084.2856445 1.206055.7490234h1.707519c-.101562-1.3203125-1.148926-2.0629882-2.926269-2.0629882-1.745606 0-2.913575.8823242-2.913575 2.1899414 0 1.0727539.660157 1.7138672 2.018555 2.012207l1.269531.2856445c.615723.1396485.882325.3554688.882325.7109375 0 .4633789-.495118.7807618-1.212403.7807618-.736328 0-1.187011-.2856446-1.32666-.7680665h-1.802734c.126953 1.3203125 1.24414 2.0756836 3.091308 2.0756836zm5.216504-8.2075195c.571289 0 1.041016-.4570312 1.041016-1.0283203 0-.5776367-.469727-1.034668-1.041016-1.034668s-1.047363.4570313-1.047363 1.034668c0 .5712891.476074 1.0283203 1.047363 1.0283203zm.92041 8.0615234v-6.9887695h-1.847168v6.9887695zm4.645215.1459961c2.151856 0 3.446778-1.3583984 3.446778-3.6435546 0-2.2661133-1.313965-3.6435547-3.446778-3.6435547-2.132812 0-3.446777 1.383789-3.446777 3.6435547 0 2.2788085 1.294922 3.6435546 3.446777 3.6435546zm0-1.4599609c-.990234 0-1.548828-.7998047-1.548828-2.1835937 0-1.3710938.564941-2.1772461 1.548828-2.1772461.977539 0 1.548828.8061523 1.548828 2.1772461 0 1.383789-.564941 2.1835937-1.548828 2.1835937zm6.47334 1.3139648v-4.043457c0-.9458008.526855-1.5551758 1.383789-1.5551758.875977 0 1.288574.5141602 1.288574 1.4980469v4.1005859h1.847168v-4.5195312c0-1.6694336-.83789-2.621582-2.393066-2.621582-1.034668 0-1.745606.4887695-2.069336 1.2758789h-.114258v-1.1235352h-1.790039v6.9887695zm8.745801.1459961c1.834472 0 3.084961-.9013671 3.084961-2.2851562 0-1.0410156-.609375-1.6123047-1.967774-1.9106445l-1.313965-.2856446c-.647461-.1459961-.9458-.368164-.9458-.7236328 0-.4570312.488769-.7680664 1.148925-.7680664.685547 0 1.11084.2856445 1.206055.7490234h1.70752c-.101563-1.3203125-1.148926-2.0629882-2.92627-2.0629882-1.745605 0-2.913574.8823242-2.913574 2.1899414 0 1.0727539.660156 1.7138672 2.018555 2.012207l1.269531.2856445c.615722.1396485.882324.3554688.882324.7109375 0 .4633789-.495117.7807618-1.212402.7807618-.736328 0-1.187012-.2856446-1.32666-.7680665h-1.802735c.126953 1.3203125 1.244141 2.0756836 3.091309 2.0756836z" fill="#fff"/><path d="m16.7002934 22.2000005v-3.6118164l3.2119141-5.5478515h-1.7963867l-2.1772461 3.9291992h-.1079102l-2.1835937-3.9291992h-1.7963868l3.2119141 5.5478515v3.6118164zm7.6235352.1396485c2.0756836 0 3.3388672-1.3583985 3.3388672-3.6118164 0-2.2407227-1.2695313-3.5991211-3.3388672-3.5991211-2.0629883 0-3.3388672 1.3647461-3.3388672 3.5991211 0 2.2534179 1.2568359 3.6118164 3.3388672 3.6118164zm0-1.2885743c-1.0981446 0-1.7265625-.8505859-1.7265625-2.3168945s.6284179-2.3168945 1.7265625-2.3168945c1.0917969 0 1.7202148.8505859 1.7202148 2.3168945s-.6220703 2.3168945-1.7202148 2.3168945zm7.2680664 1.2885743c1.0600586 0 1.7392578-.4506836 2.0756836-1.2441407h.1079101v1.1044922h1.5170899v-6.9379883h-1.5742188v4.0434571c0 1.0473633-.5585937 1.6821289-1.5805664 1.6821289-.9394531 0-1.3774414-.5205078-1.3774414-1.5996094v-4.1259766h-1.5742187v4.506836c0 1.625.8886718 2.5708008 2.4057617 2.5708008zm7.2045898-.1396485v-4.0307617c0-.9775391.7109375-1.6123047 1.7329102-1.6123047.2666015 0 .6855469.0444336.8061523.0888672v-1.4345703c-.1459961-.0380859-.4252929-.0634766-.6538086-.0634766-.8950195 0-1.6440429.5078125-1.8344726 1.1933594h-.1079102v-1.0791016h-1.5170898v6.9379883zm10.2705078.1396485c1.7583008 0 2.8500977-.9775391 3.0214844-2.4121094h-1.4980469c-.165039.7299805-.7109375 1.1171875-1.5297851 1.1171875-1.0727539 0-1.7202149-.8569336-1.7202149-2.3295899 0-1.4472656.6411133-2.2978515 1.7202149-2.2978515.8632812 0 1.383789.4887695 1.5297851 1.1616211h1.4980469c-.165039-1.4345703-1.2441406-2.4501953-3.027832-2.4501953-2.0883789 0-3.3134766 1.3393554-3.3134766 3.5864257 0 2.272461 1.2314453 3.6245118 3.3198242 3.6245118zm6.8681641 0c1.0600586 0 1.7392578-.4506836 2.0756836-1.2441407h.1079102v1.1044922h1.5170898v-6.9379883h-1.5742188v4.0434571c0 1.0473633-.5585937 1.6821289-1.5805664 1.6821289-.9394531 0-1.3774414-.5205078-1.3774414-1.5996094v-4.1259766h-1.5742187v4.506836c0 1.625.8886719 2.5708008 2.4057617 2.5708008zm7.2045898-.1396485v-4.0307617c0-.9775391.7109375-1.6123047 1.7329102-1.6123047.2666016 0 .6855469.0444336.8061523.0888672v-1.4345703c-.145996-.0380859-.4252929-.0634766-.6538085-.0634766-.8950196 0-1.644043.5078125-1.8344727 1.1933594h-.1079102v-1.0791016h-1.5170898v6.9379883zm5.4018555 0v-4.0307617c0-.9775391.7109375-1.6123047 1.7329102-1.6123047.2666015 0 .6855468.0444336.8061523.0888672v-1.4345703c-.1459961-.0380859-.425293-.0634766-.6538086-.0634766-.8950195 0-1.6440429.5078125-1.8344726 1.1933594h-.1079102v-1.0791016h-1.5170898v6.9379883zm6.7602539.1396485c1.6376953 0 2.7993164-.7871094 3.084961-2.0375977h-1.4916993c-.2285156.5205078-.7680664.8125-1.5488281.8125-1.034668 0-1.7011719-.7363281-1.7392578-1.9106445v-.0825196h4.8496094v-.5014648c0-2.1772461-1.1870117-3.4912109-3.1674805-3.4912109-2.012207 0-3.2626953 1.402832-3.2626953 3.6308593 0 2.2216797 1.2314453 3.5800782 3.2753906 3.5800782zm1.5805664-4.265625h-3.2690429c.0698242-1.0410157.7299804-1.7202149 1.6694336-1.7202149.9458007 0 1.567871.6665039 1.5996093 1.7202149zm4.7290039 4.1259765v-4.043457c0-1.0410156.5903321-1.6948242 1.5297852-1.6948242.9584961 0 1.402832.5395508 1.402832 1.6186523v4.1196289h1.5742188v-4.4877929c0-1.6503907-.8442383-2.5834961-2.3930664-2.5834961-1.034668 0-1.7329102.4697265-2.0629883 1.2441406h-.1079102v-1.1108399h-1.5170898v6.9379883zm9.1025391.0317383c.3046875 0 .5966797-.0253906.8251953-.0698242v-1.2060547c-.1904297.019043-.3110351.0317383-.5332031.0317383-.6601563 0-.9521485-.3110352-.9521485-1.0029297v-3.453125h1.4853516v-1.2250977h-1.4853516v-1.7456054h-1.567871v1.7456054h-1.0981446v1.2250977h1.0981446v3.8276367c0 1.3393555.6347656 1.8725586 2.2280273 1.8725586zm8.4741211.1079102c1.7329106 0 2.9580076-.8823243 2.9580076-2.2089844 0-1.0219727-.615722-1.5869141-1.942383-1.8916016l-1.2250973-.2729492c-.6982422-.1650391-1.0283203-.4125977-1.0283203-.8061523 0-.5141602.5395508-.8632813 1.256836-.8632813.7363281 0 1.1997066.3173828 1.3139646.8061524h1.479004c-.114258-1.2504883-1.148926-1.9741211-2.7993163-1.9741211-1.6376953 0-2.7802734.8696289-2.7802734 2.1137695 0 1.0410156.6284179 1.6503906 1.9614257 1.9550781l1.2314454.2856445c.6601566.1523438.9584956.40625.9584956.7998047 0 .5268555-.552246.8886719-1.3457027.8886719-.7871093 0-1.2758789-.3173828-1.4282226-.831543h-1.5551758c.1206055 1.2504883 1.2124023 1.9995118 2.9453125 1.9995118zm7.4838866 0c1.637695 0 2.799317-.7871094 3.084961-2.0375977h-1.491699c-.228516.5205078-.768067.8125-1.548828.8125-1.034668 0-1.701172-.7363281-1.739258-1.9106445v-.0825196h4.849609v-.5014648c0-2.1772461-1.187011-3.4912109-3.16748-3.4912109-2.012207 0-3.262696 1.402832-3.262696 3.6308593 0 2.2216797 1.231446 3.5800782 3.275391 3.5800782zm1.580567-4.265625h-3.269043c.069824-1.0410157.72998-1.7202149 1.669433-1.7202149.945801 0 1.567871.6665039 1.59961 1.7202149zm6.131835 4.265625c1.758301 0 2.850098-.9775391 3.021485-2.4121094h-1.498047c-.165039.7299805-.710938 1.1171875-1.529785 1.1171875-1.072754 0-1.720215-.8569336-1.720215-2.3295899 0-1.4472656.641113-2.2978515 1.720215-2.2978515.863281 0 1.383789.4887695 1.529785 1.1616211h1.498047c-.165039-1.4345703-1.244141-2.4501953-3.027832-2.4501953-2.088379 0-3.313477 1.3393554-3.313477 3.5864257 0 2.272461 1.231446 3.6245118 3.319824 3.6245118zm6.868165 0c1.060058 0 1.739257-.4506836 2.075683-1.2441407h.10791v1.1044922h1.51709v-6.9379883h-1.574219v4.0434571c0 1.0473633-.558593 1.6821289-1.580566 1.6821289-.939453 0-1.377441-.5205078-1.377441-1.5996094v-4.1259766h-1.574219v4.506836c0 1.625.888672 2.5708008 2.405762 2.5708008zm7.204589-.1396485v-4.0307617c0-.9775391.710938-1.6123047 1.732911-1.6123047.266601 0 .685546.0444336.806152.0888672v-1.4345703c-.145996-.0380859-.425293-.0634766-.653809-.0634766-.895019 0-1.644043.5078125-1.834472 1.1933594h-.107911v-1.0791016h-1.517089v6.9379883zm4.627442-8.0996094c.520508 0 .945801-.4125976.945801-.9331054 0-.5141602-.425293-.9331055-.945801-.9331055-.51416 0-.939453.4189453-.939453.9331055 0 .5205078.425293.9331054.939453.9331054zm.787109 8.0996094v-6.9379883h-1.567871v6.9379883zm4.678223.0317383c.304687 0 .596679-.0253906.825195-.0698242v-1.2060547c-.19043.019043-.311035.0317383-.533203.0317383-.660156 0-.952148-.3110352-.952148-1.0029297v-3.453125h1.485351v-1.2250977h-1.485351v-1.7456054h-1.567872v1.7456054h-1.098144v1.2250977h1.098144v3.8276367c0 1.3393555.634766 1.8725586 2.228028 1.8725586zm3.161133 2.4819336c1.555175 0 2.297851-.5649414 2.888183-2.2724609l2.507324-7.1791993h-1.663086l-1.618652 5.4462891h-.10791l-1.625-5.4462891h-1.726563l2.481934 6.9633789-.082519.3237305c-.203125.6538086-.577637.9077149-1.244141.9077149-.10791 0-.342774-.0063477-.431641-.019043v1.2504883c.101563.0190429.526856.0253906.622071.0253906zm-126.7373051 12.6259766c1.7329102 0 2.9580078-.8823243 2.9580078-2.2089844 0-1.0219727-.6157226-1.5869141-1.9423828-1.8916016l-1.2250976-.2729492c-.6982422-.1650391-1.0283203-.4125977-1.0283203-.8061523 0-.5141602.5395507-.8632813 1.2568359-.8632813.7363281 0 1.199707.3173828 1.3139648.8061524h1.4790039c-.1142578-1.2504883-1.1489257-1.9741211-2.7993164-1.9741211-1.6376953 0-2.7802734.8696289-2.7802734 2.1137695 0 1.0410156.628418 1.6503906 1.9614258 1.9550781l1.2314453.2856445c.6601562.1523438.9584961.40625.9584961.7998047 0 .5268555-.5522461.8886719-1.3457031.8886719-.7871094 0-1.2758789-.3173828-1.4282227-.831543h-1.5551758c.1206055 1.2504883 1.2124024 1.9995118 2.9453125 1.9995118zm7.4838867 0c1.6376954 0 2.7993164-.7871094 3.084961-2.0375977h-1.4916992c-.2285157.5205078-.7680664.8125-1.5488282.8125-1.0346679 0-1.7011718-.7363281-1.7392578-1.9106445v-.0825196h4.8496094v-.5014648c0-2.1772461-1.1870117-3.4912109-3.1674805-3.4912109-2.012207 0-3.2626953 1.402832-3.2626953 3.6308593 0 2.2216797 1.2314453 3.5800782 3.2753906 3.5800782zm1.5805664-4.265625h-3.2690429c.0698242-1.0410157.7299804-1.7202149 1.6694336-1.7202149.9458008 0 1.5678711.6665039 1.5996093 1.7202149zm5.8842774 4.1577148c.3046875 0 .5966797-.0253906.8251953-.0698242v-1.2060547c-.1904297.019043-.3110352.0317383-.5332031.0317383-.6601563 0-.9521485-.3110352-.9521485-1.0029297v-3.453125h1.4853516v-1.2250977h-1.4853516v-1.7456054h-1.5678711v1.7456054h-1.0981445v1.2250977h1.0981445v3.8276367c0 1.3393555.6347657 1.8725586 2.2280274 1.8725586zm5.1289062 0c.3046875 0 .5966797-.0253906.8251954-.0698242v-1.2060547c-.1904297.019043-.3110352.0317383-.5332032.0317383-.6601562 0-.9521484-.3110352-.9521484-1.0029297v-3.453125h1.4853516v-1.2250977h-1.4853516v-1.7456054h-1.5678711v1.7456054h-1.0981445v1.2250977h1.0981445v3.8276367c0 1.3393555.6347656 1.8725586 2.2280273 1.8725586zm3.1992188-8.1313477c.5205078 0 .9458008-.4125976.9458008-.9331054 0-.5141602-.425293-.9331055-.9458008-.9331055-.5141602 0-.9394531.4189453-.9394531.9331055 0 .5205078.4252929.9331054.9394531.9331054zm.7871094 8.0996094v-6.9379883h-1.5678711v6.9379883zm3.5229492 0v-4.043457c0-1.0410156.590332-1.6948242 1.5297851-1.6948242.9584961 0 1.4028321.5395508 1.4028321 1.6186523v4.1196289h1.5742187v-4.4877929c0-1.6503907-.8442383-2.5834961-2.3930664-2.5834961-1.034668 0-1.7329101.4697265-2.0629883 1.2441406h-.1079101v-1.1108399h-1.5170899v6.9379883zm9.3564453 2.640625c2.0249023 0 3.3071289-1.0092773 3.3071289-2.602539v-6.9760743h-1.5170898v1.1108399h-.1079102c-.3808594-.7553711-1.2060547-1.2250977-2.1518555-1.2250977-1.7709961 0-2.8691406 1.3837891-2.8691406 3.5102539 0 2.0820313 1.0917969 3.4404297 2.84375 3.4404297.9648438 0 1.7202149-.40625 2.1201172-1.1552734h.1079102v1.3203125c0 .8823242-.628418 1.402832-1.7075196 1.402832-.8632812 0-1.421875-.3110351-1.5234375-.7998047h-1.5805664c.1269531 1.1933594 1.2949219 1.9741211 3.0786133 1.9741211zm0-3.9926758c-1.0981445 0-1.7202148-.8505859-1.7202148-2.196289 0-1.3393555.6220703-2.1899414 1.7202148-2.1899414 1.0917969 0 1.7583008.8505859 1.7583008 2.196289 0 1.3393555-.6601563 2.1899414-1.7583008 2.1899414zm7.8457031 1.4916993c1.7329102 0 2.9580078-.8823243 2.9580078-2.2089844 0-1.0219727-.6157226-1.5869141-1.9423828-1.8916016l-1.2250976-.2729492c-.6982422-.1650391-1.0283203-.4125977-1.0283203-.8061523 0-.5141602.5395507-.8632813 1.2568359-.8632813.7363281 0 1.199707.3173828 1.3139648.8061524h1.4790039c-.1142578-1.2504883-1.1489257-1.9741211-2.7993164-1.9741211-1.6376953 0-2.7802734.8696289-2.7802734 2.1137695 0 1.0410156.628418 1.6503906 1.9614258 1.9550781l1.2314453.2856445c.6601562.1523438.9584961.40625.9584961.7998047 0 .5268555-.5522461.8886719-1.3457031.8886719-.7871094 0-1.2758789-.3173828-1.4282227-.831543h-1.5551758c.1206055 1.2504883 1.2124024 1.9995118 2.9453125 1.9995118zm9.5913086 2.1645507v-3.3579101h.1079102c.3554687.7363281 1.1235351 1.1679687 2.1201172 1.1679687 1.7519531 0 2.84375-1.3774414 2.84375-3.5800781 0-2.2216797-1.1044922-3.5864258-2.862793-3.5864258-.9521484 0-1.7583008.4760742-2.1582031 1.2631836h-.1079102v-1.1489258h-1.5170898v9.2421875zm1.7138672-3.4975586c-1.0727539 0-1.7392578-.8696289-1.7456055-2.2724609.0063477-1.402832.6791993-2.2724609 1.7519532-2.2724609 1.0791015 0 1.7329101.8505859 1.7329101 2.2724609s-.6474609 2.2724609-1.7392578 2.2724609zm6.5126953 1.1933594v-4.0307617c0-.9775391.7109375-1.6123047 1.7329102-1.6123047.2666015 0 .6855468.0444336.8061523.0888672v-1.4345703c-.1459961-.0380859-.425293-.0634766-.6538086-.0634766-.8950195 0-1.6440429.5078125-1.8344726 1.1933594h-.1079102v-1.0791016h-1.5170898v6.9379883zm6.7602539.1396485c1.6376953 0 2.7993164-.7871094 3.084961-2.0375977h-1.4916993c-.2285156.5205078-.7680664.8125-1.5488281.8125-1.034668 0-1.7011719-.7363281-1.7392578-1.9106445v-.0825196h4.8496094v-.5014648c0-2.1772461-1.1870117-3.4912109-3.1674805-3.4912109-2.012207 0-3.2626953 1.402832-3.2626953 3.6308593 0 2.2216797 1.2314453 3.5800782 3.2753906 3.5800782zm1.5805664-4.265625h-3.2690429c.0698242-1.0410157.7299804-1.7202149 1.6694336-1.7202149.9458007 0 1.567871.6665039 1.5996093 1.7202149zm6.7539063 4.1259765 2.4565429-6.9379883h-1.6630859l-1.5932617 5.3955079h-.1079102l-1.605957-5.3955079h-1.6884766l2.4692383 6.9379883zm6.7158203.1396485c1.6376956 0 2.7993166-.7871094 3.0849606-2.0375977h-1.491699c-.228516.5205078-.768066.8125-1.548828.8125-1.034668 0-1.7011719-.7363281-1.7392578-1.9106445v-.0825196h4.8496098v-.5014648c0-2.1772461-1.187012-3.4912109-3.1674809-3.4912109-2.0122071 0-3.2626953 1.402832-3.2626953 3.6308593 0 2.2216797 1.2314453 3.5800782 3.2753906 3.5800782zm1.5805666-4.265625h-3.2690432c.0698242-1.0410157.7299805-1.7202149 1.6694336-1.7202149.9458006 0 1.5678716.6665039 1.5996096 1.7202149zm4.729004 4.1259765v-4.043457c0-1.0410156.590332-1.6948242 1.529785-1.6948242.958496 0 1.402832.5395508 1.402832 1.6186523v4.1196289h1.574219v-4.4877929c0-1.6503907-.844239-2.5834961-2.393067-2.5834961-1.034668 0-1.73291.4697265-2.062988 1.2441406h-.10791v-1.1108399h-1.51709v6.9379883zm9.102539.0317383c.304687 0 .596679-.0253906.825195-.0698242v-1.2060547c-.19043.019043-.311035.0317383-.533203.0317383-.660156 0-.952148-.3110352-.952148-1.0029297v-3.453125h1.485351v-1.2250977h-1.485351v-1.7456054h-1.567872v1.7456054h-1.098144v1.2250977h1.098144v3.8276367c0 1.3393555.634766 1.8725586 2.228028 1.8725586zm8.594726 0c.304688 0 .59668-.0253906.825196-.0698242v-1.2060547c-.19043.019043-.311036.0317383-.533203.0317383-.660157 0-.952149-.3110352-.952149-1.0029297v-3.453125h1.485352v-1.2250977h-1.485352v-1.7456054h-1.567871v1.7456054h-1.098145v1.2250977h1.098145v3.8276367c0 1.3393555.634766 1.8725586 2.228027 1.8725586zm4.03711-.0317383v-4.0307617c0-1.015625.577636-1.6948242 1.612304-1.6948242.914063 0 1.396485.5458984 1.396485 1.6186523v4.1069336h1.574219v-4.4750976c0-1.6503907-.901368-2.5898438-2.386719-2.5898438-1.034668 0-1.777344.4697266-2.107422 1.2504883h-.114258v-3.8085938h-1.548828v9.6230469zm9.381836.1396485c1.637695 0 2.799316-.7871094 3.084961-2.0375977h-1.4917c-.228515.5205078-.768066.8125-1.548828.8125-1.034668 0-1.701172-.7363281-1.739258-1.9106445v-.0825196h4.84961v-.5014648c0-2.1772461-1.187012-3.4912109-3.167481-3.4912109-2.012207 0-3.262695 1.402832-3.262695 3.6308593 0 2.2216797 1.231445 3.5800782 3.275391 3.5800782zm1.580566-4.265625h-3.269043c.069824-1.0410157.729981-1.7202149 1.669434-1.7202149.9458 0 1.567871.6665039 1.599609 1.7202149zm-125.2329101 11.0263671c.5205078 0 .9458008-.4125976.9458008-.9331054 0-.5141602-.425293-.9331055-.9458008-.9331055-.5141602 0-.9394531.4189453-.9394531.9331055 0 .5205078.4252929.9331054.9394531.9331054zm.7871094 8.0996094v-6.9379883h-1.5678711v6.9379883zm3.5229492 0v-4.043457c0-1.0410156.590332-1.6948242 1.5297851-1.6948242.9584961 0 1.4028321.5395508 1.4028321 1.6186523v4.1196289h1.5742187v-4.4877929c0-1.6503907-.8442383-2.5834961-2.3930664-2.5834961-1.034668 0-1.7329101.4697265-2.0629883 1.2441406h-.1079101v-1.1108399h-1.5170899v6.9379883zm8.9819336.1396485c1.7329101 0 2.9580078-.8823243 2.9580078-2.2089844 0-1.0219727-.6157227-1.5869141-1.9423828-1.8916016l-1.2250977-.2729492c-.6982422-.1650391-1.0283203-.4125977-1.0283203-.8061523 0-.5141602.5395508-.8632813 1.2568359-.8632813.7363282 0 1.1997071.3173828 1.3139649.8061524h1.4790039c-.1142578-1.2504883-1.1489258-1.9741211-2.7993164-1.9741211-1.6376953 0-2.7802734.8696289-2.7802734 2.1137695 0 1.0410156.6284179 1.6503906 1.9614257 1.9550781l1.2314453.2856445c.6601563.1523438.9584961.40625.9584961.7998047 0 .5268555-.5522461.8886719-1.3457031.8886719-.7871094 0-1.2758789-.3173828-1.4282226-.831543h-1.5551758c.1206054 1.2504883 1.2124023 1.9995118 2.9453125 1.9995118zm7.2807617-.1079102c.3046875 0 .5966797-.0253906.8251953-.0698242v-1.2060547c-.1904297.019043-.3110351.0317383-.5332031.0317383-.6601563 0-.9521485-.3110352-.9521485-1.0029297v-3.453125h1.4853516v-1.2250977h-1.4853516v-1.7456054h-1.567871v1.7456054h-1.0981446v1.2250977h1.0981446v3.8276367c0 1.3393555.6347656 1.8725586 2.2280273 1.8725586zm4.3100586.0825195c.9077148 0 1.6694336-.3935547 2.0566406-1.0664062h.1079102v.9521484h1.5170898v-4.7416992c0-1.4663086-1.0029297-2.3295898-2.7866211-2.3295898-1.6503906 0-2.7993164.774414-2.9262695 1.9868164h1.4853516c.145996-.4760743.6411132-.7363282 1.364746-.7363282.850586 0 1.3076172.3872071 1.3076172 1.0791016v.5966797l-1.790039.1079101c-1.6884766.0952149-2.6342774.8251954-2.6342774 2.069336 0 1.2695312.9584961 2.0820312 2.2978516 2.0820312zm.4633789-1.2124023c-.6982422 0-1.199707-.3491211-1.199707-.9458008 0-.5776367.4125976-.9013672 1.2949218-.9584961l1.5678711-.1079101v.5649414c0 .8251953-.7109375 1.4472656-1.6630859 1.4472656zm6.7475586 1.0981445v-9.6230469h-1.5742188v9.6230469zm3.6245117 0v-9.6230469h-1.5742187v9.6230469zm3.8974609.1142578c.9077149 0 1.6694336-.3935547 2.0566407-1.0664062h.1079101v.9521484h1.5170899v-4.7416992c0-1.4663086-1.0029297-2.3295898-2.7866211-2.3295898-1.6503906 0-2.7993164.774414-2.9262696 1.9868164h1.4853516c.1459961-.4760743.6411133-.7363282 1.3647461-.7363282.8505859 0 1.3076172.3872071 1.3076172 1.0791016v.5966797l-1.7900391.1079101c-1.6884765.0952149-2.6342773.8251954-2.6342773 2.069336 0 1.2695312.9584961 2.0820312 2.2978515 2.0820312zm.463379-1.2124023c-.6982422 0-1.1997071-.3491211-1.1997071-.9458008 0-.5776367.4125977-.9013672 1.2949219-.9584961l1.5678711-.1079101v.5649414c0 .8251953-.7109375 1.4472656-1.6630859 1.4472656zm7.8393554 1.1298828c.3046875 0 .5966797-.0253906.8251953-.0698242v-1.2060547c-.1904297.019043-.3110351.0317383-.5332031.0317383-.6601562 0-.9521484-.3110352-.9521484-1.0029297v-3.453125h1.4853515v-1.2250977h-1.4853515v-1.7456054h-1.5678711v1.7456054h-1.0981446v1.2250977h1.0981446v3.8276367c0 1.3393555.6347656 1.8725586 2.2280273 1.8725586zm3.1992188-8.1313477c.5205078 0 .9458008-.4125976.9458008-.9331054 0-.5141602-.425293-.9331055-.9458008-.9331055-.5141602 0-.9394532.4189453-.9394532.9331055 0 .5205078.425293.9331054.9394532.9331054zm.7871093 8.0996094v-6.9379883h-1.567871v6.9379883zm4.9448243.1396485c2.0756836 0 3.3388672-1.3583985 3.3388672-3.6118164 0-2.2407227-1.2695313-3.5991211-3.3388672-3.5991211-2.0629883 0-3.3388672 1.3647461-3.3388672 3.5991211 0 2.2534179 1.2568359 3.6118164 3.3388672 3.6118164zm0-1.2885743c-1.0981446 0-1.7265625-.8505859-1.7265625-2.3168945s.6284179-2.3168945 1.7265625-2.3168945c1.0917968 0 1.7202148.8505859 1.7202148 2.3168945s-.6220703 2.3168945-1.7202148 2.3168945zm6.5 1.1489258v-4.043457c0-1.0410156.590332-1.6948242 1.5297851-1.6948242.9584961 0 1.4028321.5395508 1.4028321 1.6186523v4.1196289h1.5742187v-4.4877929c0-1.6503907-.8442383-2.5834961-2.3930664-2.5834961-1.034668 0-1.7329102.4697265-2.0629883 1.2441406h-.1079101v-1.1108399h-1.5170899v6.9379883zm12.8349609.1396485c2.0756836 0 3.3388672-1.3583985 3.3388672-3.6118164 0-2.2407227-1.2695313-3.5991211-3.3388672-3.5991211-2.0629883 0-3.3388672 1.3647461-3.3388672 3.5991211 0 2.2534179 1.256836 3.6118164 3.3388672 3.6118164zm0-1.2885743c-1.0981445 0-1.7265625-.8505859-1.7265625-2.3168945s.628418-2.3168945 1.7265625-2.3168945c1.0917969 0 1.7202148.8505859 1.7202148 2.3168945s-.6220703 2.3168945-1.7202148 2.3168945zm7.0014648 1.1489258v-5.668457h1.4916993v-1.2250977h-1.5107422v-.6411132c0-.6601563.2919922-.9902344 1.0346679-.9902344.222168 0 .4125977.0190429.5395508.0380859v-1.1362305c-.2539062-.0444335-.5395508-.0634765-.8759765-.0634765-1.5424805 0-2.2470703.6791992-2.2470703 2.0629883v.7299804h-1.1362305v1.2250977h1.1362305v5.668457zm9.083496.1396485c1.73291 0 2.958008-.8823243 2.958008-2.2089844 0-1.0219727-.615723-1.5869141-1.942383-1.8916016l-1.225098-.2729492c-.698242-.1650391-1.02832-.4125977-1.02832-.8061523 0-.5141602.539551-.8632813 1.256836-.8632813.736328 0 1.199707.3173828 1.313965.8061524h1.479004c-.114258-1.2504883-1.148926-1.9741211-2.799317-1.9741211-1.637695 0-2.780273.8696289-2.780273 2.1137695 0 1.0410156.628418 1.6503906 1.961426 1.9550781l1.231445.2856445c.660156.1523438.958496.40625.958496.7998047 0 .5268555-.552246.8886719-1.345703.8886719-.787109 0-1.275879-.3173828-1.428223-.831543h-1.555175c.120605 1.2504883 1.212402 1.9995118 2.945312 1.9995118zm5.312988 2.3740234c1.555176 0 2.297852-.5649414 2.888184-2.2724609l2.507324-7.1791993h-1.663086l-1.618652 5.4462891h-.10791l-1.625-5.4462891h-1.726563l2.481934 6.9633789-.08252.3237305c-.203125.6538086-.577636.9077149-1.24414.9077149-.10791 0-.342774-.0063477-.431641-.019043v1.2504883c.101563.0190429.526856.0253906.62207.0253906zm9.356446-2.3740234c1.73291 0 2.958008-.8823243 2.958008-2.2089844 0-1.0219727-.615723-1.5869141-1.942383-1.8916016l-1.225098-.2729492c-.698242-.1650391-1.02832-.4125977-1.02832-.8061523 0-.5141602.539551-.8632813 1.256836-.8632813.736328 0 1.199707.3173828 1.313965.8061524h1.479003c-.114257-1.2504883-1.148925-1.9741211-2.799316-1.9741211-1.637695 0-2.780273.8696289-2.780273 2.1137695 0 1.0410156.628418 1.6503906 1.961425 1.9550781l1.231446.2856445c.660156.1523438.958496.40625.958496.7998047 0 .5268555-.552246.8886719-1.345703.8886719-.78711 0-1.275879-.3173828-1.428223-.831543h-1.555176c.120606 1.2504883 1.212403 1.9995118 2.945313 1.9995118zm7.280761-.1079102c.304688 0 .59668-.0253906.825196-.0698242v-1.2060547c-.19043.019043-.311035.0317383-.533203.0317383-.660157 0-.952149-.3110352-.952149-1.0029297v-3.453125h1.485352v-1.2250977h-1.485352v-1.7456054h-1.567871v1.7456054h-1.098144v1.2250977h1.098144v3.8276367c0 1.3393555.634766 1.8725586 2.228027 1.8725586zm5.332032.1079102c1.637695 0 2.799316-.7871094 3.084961-2.0375977h-1.4917c-.228515.5205078-.768066.8125-1.548828.8125-1.034668 0-1.701172-.7363281-1.739258-1.9106445v-.0825196h4.84961v-.5014648c0-2.1772461-1.187012-3.4912109-3.167481-3.4912109-2.012207 0-3.262695 1.402832-3.262695 3.6308593 0 2.2216797 1.231445 3.5800782 3.275391 3.5800782zm1.580566-4.265625h-3.269043c.069824-1.0410157.729981-1.7202149 1.669434-1.7202149.945801 0 1.567871.6665039 1.599609 1.7202149zm4.729004 4.1259765v-4.2211914c0-.8632812.577637-1.5170898 1.358398-1.5170898.774415 0 1.256836.4697265 1.256836 1.2377929v4.5004883h1.529786v-4.3354492c0-.793457.53955-1.402832 1.358398-1.402832.844238 0 1.269531.4506836 1.269531 1.3520508v4.3862304h1.567871v-4.7734375c0-1.4409179-.83789-2.2978515-2.228027-2.2978515-.964844 0-1.764648.4951171-2.107422 1.2504882h-.10791c-.291992-.7680664-.958496-1.2504882-1.916992-1.2504882-.92041 0-1.631348.4697265-1.929688 1.2504882h-.10791v-1.1171875h-1.51709v6.9379883zm-123.7285156 15.1396485c1.6376953 0 2.7993164-.7871094 3.0849609-2.0375977h-1.4916992c-.2285156.5205078-.7680664.8125-1.5488281.8125-1.034668 0-1.7011719-.7363281-1.7392578-1.9106445v-.0825196h4.8496093v-.5014648c0-2.1772461-1.1870117-3.4912109-3.1674804-3.4912109-2.0122071 0-3.2626953 1.402832-3.2626953 3.6308593 0 2.2216797 1.2314453 3.5800782 3.2753906 3.5800782zm1.5805664-4.265625h-3.269043c.0698242-1.0410157.7299805-1.7202149 1.6694336-1.7202149.9458008 0 1.5678711.6665039 1.5996094 1.7202149zm4.3291016 4.1386718 1.4155273-2.4121093h.1079102l1.421875 2.4121093h1.7773437l-2.2661133-3.5102539 2.2407227-3.4277343h-1.7329102l-1.3710937 2.4057617h-.1079102l-1.3774414-2.4057617h-1.828125l2.2661133 3.4975585-2.2470703 3.4404297zm8.8359375.019043c.3046875 0 .5966796-.0253906.8251953-.0698242v-1.2060547c-.1904297.019043-.3110352.0317383-.5332032.0317383-.6601562 0-.9521484-.3110352-.9521484-1.0029297v-3.453125h1.4853516v-1.2250977h-1.4853516v-1.7456054h-1.5678711v1.7456054h-1.0981445v1.2250977h1.0981445v3.8276367c0 1.3393555.6347656 1.8725586 2.2280274 1.8725586zm5.3320312.1079102c1.6376953 0 2.7993164-.7871094 3.0849609-2.0375977h-1.4916992c-.2285156.5205078-.7680664.8125-1.5488281.8125-1.034668 0-1.7011719-.7363281-1.7392578-1.9106445v-.0825196h4.8496094v-.5014648c0-2.1772461-1.1870118-3.4912109-3.1674805-3.4912109-2.012207 0-3.2626953 1.402832-3.2626953 3.6308593 0 2.2216797 1.2314453 3.5800782 3.2753906 3.5800782zm1.5805664-4.265625h-3.269043c.0698243-1.0410157.7299805-1.7202149 1.6694336-1.7202149.9458008 0 1.5678711.6665039 1.5996094 1.7202149zm4.7290039 4.1259765v-4.043457c0-1.0410156.5903321-1.6948242 1.5297852-1.6948242.9584961 0 1.402832.5395508 1.402832 1.6186523v4.1196289h1.5742188v-4.4877929c0-1.6503907-.8442383-2.5834961-2.3930664-2.5834961-1.034668 0-1.7329102.4697265-2.0629883 1.2441406h-.1079102v-1.1108399h-1.5170898v6.9379883zm8.9819336.1396485c1.7329102 0 2.9580078-.8823243 2.9580078-2.2089844 0-1.0219727-.6157226-1.5869141-1.9423828-1.8916016l-1.2250976-.2729492c-.6982422-.1650391-1.0283204-.4125977-1.0283204-.8061523 0-.5141602.5395508-.8632813 1.256836-.8632813.7363281 0 1.199707.3173828 1.3139648.8061524h1.4790039c-.1142578-1.2504883-1.1489257-1.9741211-2.7993164-1.9741211-1.6376953 0-2.7802734.8696289-2.7802734 2.1137695 0 1.0410156.628418 1.6503906 1.9614258 1.9550781l1.2314453.2856445c.6601562.1523438.9584961.40625.9584961.7998047 0 .5268555-.5522461.8886719-1.3457031.8886719-.7871094 0-1.275879-.3173828-1.4282227-.831543h-1.5551758c.1206055 1.2504883 1.2124024 1.9995118 2.9453125 1.9995118zm5.3510742-8.2392579c.5205078 0 .9458008-.4125976.9458008-.9331054 0-.5141602-.425293-.9331055-.9458008-.9331055-.5141601 0-.9394531.4189453-.9394531.9331055 0 .5205078.425293.9331054.9394531.9331054zm.7871094 8.0996094v-6.9379883h-1.5678711v6.9379883zm4.9448242.1396485c2.0756836 0 3.3388672-1.3583985 3.3388672-3.6118164 0-2.2407227-1.2695312-3.5991211-3.3388672-3.5991211-2.0629883 0-3.3388672 1.3647461-3.3388672 3.5991211 0 2.2534179 1.256836 3.6118164 3.3388672 3.6118164zm0-1.2885743c-1.0981445 0-1.7265625-.8505859-1.7265625-2.3168945s.628418-2.3168945 1.7265625-2.3168945c1.0917969 0 1.7202149.8505859 1.7202149 2.3168945s-.6220703 2.3168945-1.7202149 2.3168945zm6.5 1.1489258v-4.043457c0-1.0410156.5903321-1.6948242 1.5297852-1.6948242.9584961 0 1.402832.5395508 1.402832 1.6186523v4.1196289h1.5742188v-4.4877929c0-1.6503907-.8442383-2.5834961-2.3930664-2.5834961-1.034668 0-1.7329102.4697265-2.0629883 1.2441406h-.1079102v-1.1108399h-1.5170898v6.9379883zm8.9819336.1396485c1.7329102 0 2.9580078-.8823243 2.9580078-2.2089844 0-1.0219727-.6157226-1.5869141-1.9423828-1.8916016l-1.2250976-.2729492c-.6982422-.1650391-1.0283203-.4125977-1.0283203-.8061523 0-.5141602.5395507-.8632813 1.2568359-.8632813.7363281 0 1.199707.3173828 1.3139648.8061524h1.4790039c-.1142578-1.2504883-1.1489257-1.9741211-2.7993164-1.9741211-1.6376953 0-2.7802734.8696289-2.7802734 2.1137695 0 1.0410156.628418 1.6503906 1.9614258 1.9550781l1.2314453.2856445c.6601562.1523438.9584961.40625.9584961.7998047 0 .5268555-.5522461.8886719-1.3457031.8886719-.7871094 0-1.2758789-.3173828-1.4282227-.831543h-1.5551758c.1206055 1.2504883 1.2124024 1.9995118 2.9453125 1.9995118z" fill="#262626"/></g></g></svg>