<svg height="400" viewBox="0 0 600 400" width="600" xmlns="http://www.w3.org/2000/svg"><g fill="none" fill-rule="evenodd"><g stroke="#ccc" transform="translate(23.829188 74.999989)"><path d="m552.170812.00001133v222.75999967c0 6.759965-5.480034 12.24-12.24 12.24h-527.5199991c-6.75996561 0-12.24000049-5.480035-12.24000049-12.24v-222.75999967" stroke-width="2"/><path d="m537.170812 12.5000113v138.2599997c0 13.939667-11.300333 25.24-25.24 25.24h-471.5199996c-13.9396671 0-25.24-11.300333-25.24-25.24v-138.2599997" stroke-width="2"/><g fill="#a0a0a0" stroke-width="1.02"><rect height="1" rx=".5" width="138.98" x="79.680813" y="29.510011"/><rect height="1" rx=".5" width="44.98" x="117.680813" y="49.510011"/><rect height="1" rx=".5" width="169.98" x="117.680813" y="66.510011"/></g><g stroke-width="2"><rect height="10" rx="4.25" width="10" x="99.170813" y="45.000011"/><rect height="10" rx="4.25" width="10" x="99.170813" y="62.000011"/></g></g><rect fill="#ccc" height="2" rx="1" width="199" x="83.000001" y="279"/><g transform="translate(48.773431 265.271855)"><rect fill="#a0a0a0" height="14" rx="2.04" width="17" x="6.22657" y="8.728145"/><path d="m.22656963 10.7281454v-4.49999997c0-3.03756612 2.46243388-5.5 5.5-5.5 3.03756613 0 5.49999997 2.46243388 5.49999997 5.5v3.99999997" stroke="#a0a0a0" stroke-width="2"/></g><rect height="13" rx="4.08" stroke="#ccc" stroke-width="2" width="71" x="456.000001" y="272"/><rect height="13" rx="5.61" stroke="#ccc" stroke-width="2" width="13" x="539.000001" y="272"/><g transform="translate(54 182)"><path d="m16.1568006 0h459.6863984c8.923155 0 16.156801 7.23364604 16.156801 16.1568006v22.6863988c0 8.9231546-7.233646 16.1568006-16.156801 16.1568006h-459.6863984c-8.92315456 0-16.1568006-7.233646-16.1568006-16.1568006v-22.6863988c0-8.92315456 7.23364604-16.1568006 16.1568006-16.1568006z" fill="#ededed"/><rect fill="#262626" height="38.335" rx="11.30976" width="107.525" x="369.387602" y="8.670011"/><g fill-rule="nonzero"><path d="m397.044142 35.7650257 1.22596-3.8656407h5.599657l1.203871 3.8656407h3.611613l-5.533389-15.9374844h-3.920864l-5.533388 15.9374844zm6.118757-6.3617401h-4.174892l1.999088-6.3396508h.198805zm10.678004 6.3617401v-16.8100147h-3.214004v16.8100147zm6.094459 0v-16.8100147h-3.214004v16.8100147zm8.17086.2540278c3.744149 0 5.997265-2.3635631 5.997265-6.3396507 0-3.9429536-2.28625-6.3396508-5.997265-6.3396508s-5.997266 2.4077419-5.997266 6.3396508c0 3.9650429 2.253117 6.3396507 5.997266 6.3396507zm0-2.5402781c-1.722972 0-2.694904-1.3916307-2.694904-3.7993726 0-2.3856526.982977-3.7883279 2.694904-3.7883279 1.700882 0 2.694903 1.4026753 2.694903 3.7883279 0 2.4077419-.982977 3.7993726-2.694903 3.7993726zm13.240371 2.2862503 2.153714-8.4823202h.198805l2.175803 8.4823202h3.423853l3.236094-12.1602012h-3.191915l-1.811329 8.8026161h-.198804l-2.142669-8.8026161h-3.070424l-2.131624 8.8026161h-.198805l-1.811328-8.8026161h-3.258183l3.247138 12.1602012z" fill="#fff"/><path d="m22.5350831 26.0845326c2.178955 0 3.5299072-1.0832519 3.5299072-2.826416 0-1.3634033-.7657471-2.1229248-2.5898438-2.540039l-1.0334472-.2365723c-1.1143799-.2614746-1.5688477-.616333-1.5688477-1.232666 0-.7781983.6848145-1.2886963 1.7182617-1.2886963.9836426 0 1.6809082.5042725 1.7929688 1.307373h1.5377197c-.074707-1.5377197-1.4381103-2.614746-3.3244629-2.614746-2.0108642 0-3.3431396 1.0832519-3.3431396 2.7019043 0 1.3322753.765747 2.1353759 2.3968506 2.5089111l1.1641845.2677002c1.1517334.2677002 1.6435547.6661377 1.6435547 1.3198242 0 .7657471-.7657471 1.3198242-1.8240967 1.3198242-1.1392822 0-1.9361572-.5229492-2.0357666-1.3447265h-1.5688476c.0809326 1.6248779 1.4443359 2.6583251 3.5050049 2.6583251zm5.9205322 2.241211c1.5252685 0 2.2536621-.5540772 2.8326416-2.2287598l2.4591064-7.0411377h-1.6311035l-1.5875244 5.3415528h-.105835l-1.59375-5.3415528h-1.6933593l2.4342041 6.8294678-.0809327.3175049c-.1992187.6412353-.5665283.8902588-1.2202148.8902588-.105835 0-.3361816-.0062256-.4233398-.0186768v1.2264404c.0996093.0186768.5167236.0249024.6101074.0249024zm9.1765137-2.3283692c1.6995849 0 2.901123-.8653564 2.901123-2.1665039 0-1.0023193-.6038818-1.5563964-1.9050293-1.8552246l-1.2015381-.2677002c-.6848144-.1618652-1.0085449-.4046631-1.0085449-.7906494 0-.5042724.5291748-.8466797 1.232666-.8466797.722168 0 1.1766358.3112793 1.2886963.7906494h1.4505615c-.1120605-1.2264404-1.126831-1.9361572-2.7454834-1.9361572-1.6062011 0-2.7268066.8529053-2.7268066 2.0731201 0 1.0209961.616333 1.6186524 1.923706 1.9174805l1.2077637.2801514c.6474609.149414.9400635.3984375.9400635.7844238 0 .5167236-.541626.871582-1.3198242.871582-.7719727 0-1.2513428-.3112793-1.4007569-.8155517h-1.5252685c.1182861 1.2264404 1.1890869 1.9610595 2.8886719 1.9610595zm7.140747-.1058349c.2988281 0 .5852051-.0249024.8093262-.0684815v-1.1828613c-.1867676.0186768-.3050537.0311279-.5229492.0311279-.647461 0-.9338379-.3050537-.9338379-.9836425v-3.3867188h1.4567871v-1.2015381h-1.4567871v-1.7120361h-1.5377197v1.7120361h-1.0770264v1.2015381h1.0770264v3.7540283c0 1.3135987.6225586 1.8365479 2.1851806 1.8365479zm5.2294922.1058349c1.6062012 0 2.7454834-.7719726 3.0256348-1.998413h-1.4630127c-.2241211.510498-.7532959.796875-1.519043.796875-1.0147705 0-1.668457-.722168-1.7058105-1.8739014v-.0809326h4.7563476v-.4918213c0-2.135376-1.1641845-3.4240723-3.1065674-3.4240723-1.9735107 0-3.1999511 1.3758545-3.1999511 3.5610352 0 2.1789551 1.2077636 3.5112304 3.2124023 3.5112304zm1.5501709-4.1835937h-3.2061767c.0684814-1.0209961.7159423-1.6871338 1.6373291-1.6871338.9276123 0 1.5377197.6536865 1.5688476 1.6871338zm4.6380615 4.0466309v-4.1400147c0-.8466797.5665284-1.487915 1.3322754-1.487915.7595215 0 1.232666.4606933 1.232666 1.2139892v4.4139405h1.5003662v-4.2520752c0-.7781983.5291749-1.3758545 1.3322754-1.3758545.828003 0 1.2451172.4420166 1.2451172 1.3260498v4.3018799h1.5377198v-4.6816407c0-1.413208-.8217774-2.2536621-2.1851807-2.2536621-.9462891 0-1.7307129.4855957-2.0668945 1.2264405h-.105835c-.286377-.7532959-.9400635-1.2264405-1.880127-1.2264405-.9027099 0-1.5999755.4606934-1.8925781 1.2264405h-.1058349v-1.0957032h-1.4879151v6.8045655zm15.968628.1369628c1.6995849 0 2.901123-.8653564 2.901123-2.1665039 0-1.0023193-.6038818-1.5563964-1.9050293-1.8552246l-1.2015381-.2677002c-.6848144-.1618652-1.0085449-.4046631-1.0085449-.7906494 0-.5042724.5291748-.8466797 1.232666-.8466797.722168 0 1.1766358.3112793 1.2886963.7906494h1.4505615c-.1120605-1.2264404-1.126831-1.9361572-2.7454834-1.9361572-1.6062011 0-2.7268066.8529053-2.7268066 2.0731201 0 1.0209961.616333 1.6186524 1.923706 1.9174805l1.2077637.2801514c.647461.149414.9400635.3984375.9400635.7844238 0 .5167236-.541626.871582-1.3198242.871582-.7719727 0-1.2513428-.3112793-1.4007569-.8155517h-1.5252685c.1182861 1.2264404 1.1890869 1.9610595 2.8886719 1.9610595zm7.4022216 0c2.0357666 0 3.2746582-1.3322753 3.2746582-3.5423584 0-2.1976318-1.2451171-3.5299072-3.2746582-3.5299072-2.0233154 0-3.2746582 1.338501-3.2746582 3.5299072 0 2.2100831 1.2326661 3.5423584 3.2746582 3.5423584zm0-1.2637939c-1.0770263 0-1.6933593-.8342285-1.6933593-2.2723389 0-1.4381103.616333-2.2723388 1.6933593-2.2723388 1.0708008 0 1.6871338.8342285 1.6871338 2.2723388 0 1.4381104-.6101074 2.2723389-1.6871338 2.2723389zm6.8668213 1.1268311v-5.5594483h1.4630127v-1.2015381h-1.4816894v-.6287842c0-.6474609.2863769-.9711914 1.0147705-.9711914.2178955 0 .4046631.0186768.5291748.0373536v-1.1143799c-.2490235-.0435791-.5291748-.0622559-.8591309-.0622559-1.5128174 0-2.2038574.6661377-2.2038574 2.0233154v.7159424h-1.1143799v1.2015381h1.1143799v5.5594483zm5.6279297.0311279c.2988281 0 .5852051-.0249024.8093262-.0684815v-1.1828613c-.1867676.0186768-.3050537.0311279-.5229492.0311279-.647461 0-.9338379-.3050537-.9338379-.9836425v-3.3867188h1.4567871v-1.2015381h-1.4567871v-1.7120361h-1.5377197v1.7120361h-1.0770264v1.2015381h1.0770264v3.7540283c0 1.3135987.6225585 1.8365479 2.1851806 1.8365479zm5.2543945-.0311279 1.3198243-4.9306641h.1058349l1.3260501 4.9306641h1.624878l1.842773-6.8045655h-1.53772l-1.126831 5.1112061h-.105835l-1.3198239-5.1112061h-1.4754638l-1.3073731 5.1112061h-.1058349l-1.1330567-5.1112061h-1.5563965l1.8427735 6.8045655zm9.4379883.1120605c.890259 0 1.637329-.3859863 2.01709-1.0458984h.105835v.9338379h1.487915v-4.6505127c0-1.4381104-.983643-2.2847901-2.733032-2.2847901-1.618653 0-2.745484.7595215-2.869995 1.9486084h1.456787c.143188-.4669189.628784-.7221679 1.338501-.7221679.834228 0 1.28247.3797607 1.28247 1.0583496v.585205l-1.755615.105835c-1.656006.0933838-2.583618.8093262-2.583618 2.029541 0 1.2451172.940063 2.0419922 2.253662 2.0419922zm.454468-1.1890869c-.684815 0-1.176636-.3424072-1.176636-.9276123 0-.5665283.404663-.8840332 1.27002-.9400635l1.537719-.105835v.5540772c0 .8093262-.697265 1.4194336-1.631103 1.4194336zm6.555542 1.0770264v-3.9532471c0-.9587402.697265-1.5812988 1.699585-1.5812988.261474 0 .672363.0435791.790649.0871582v-1.4069825c-.143188-.0373535-.417114-.0622558-.641235-.0622558-.877808 0-1.612427.4980469-1.799195 1.1704101h-.105834v-1.0583496h-1.487916v6.8045655zm6.630249.1369628c1.606201 0 2.745483-.7719726 3.025635-1.998413h-1.463013c-.224121.510498-.753296.796875-1.519043.796875-1.014771 0-1.668457-.722168-1.705811-1.8739014v-.0809326h4.756348v-.4918213c0-2.135376-1.164185-3.4240723-3.106567-3.4240723-1.973511 0-3.199952 1.3758545-3.199952 3.5610352 0 2.1789551 1.207764 3.5112304 3.212403 3.5112304zm1.550171-4.1835937h-3.206177c.068481-1.0209961.715942-1.6871338 1.637329-1.6871338.927612 0 1.53772.6536865 1.568848 1.6871338zm8.529052 4.0466309v-5.5594483h1.463013v-1.2015381h-1.481689v-.6287842c0-.6474609.286377-.9711914 1.01477-.9711914.217896 0 .404663.0186768.529175.0373536v-1.1143799c-.249023-.0435791-.529175-.0622559-.859131-.0622559-1.512817 0-2.203857.6661377-2.203857 2.0233154v.7159424h-1.11438v1.2015381h1.11438v5.5594483zm4.494873 0v-3.9532471c0-.9587402.697266-1.5812988 1.699585-1.5812988.261475 0 .672364.0435791.79065.0871582v-1.4069825c-.143189-.0373535-.417114-.0622558-.641235-.0622558-.877808 0-1.612427.4980469-1.799195 1.1704101h-.105835v-1.0583496h-1.487915v6.8045655zm6.692505.1369628c2.035767 0 3.274659-1.3322753 3.274659-3.5423584 0-2.1976318-1.245118-3.5299072-3.274659-3.5299072-2.023315 0-3.274658 1.338501-3.274658 3.5299072 0 2.2100831 1.232666 3.5423584 3.274658 3.5423584zm0-1.2637939c-1.077026 0-1.693359-.8342285-1.693359-2.2723389 0-1.4381103.616333-2.2723388 1.693359-2.2723388 1.070801 0 1.687134.8342285 1.687134 2.2723388 0 1.4381104-.610107 2.2723389-1.687134 2.2723389zm6.375 1.1268311v-4.1400147c0-.8466797.566529-1.487915 1.332276-1.487915.759521 0 1.232666.4606933 1.232666 1.2139892v4.4139405h1.500366v-4.2520752c0-.7781983.529175-1.3758545 1.332275-1.3758545.828003 0 1.245118.4420166 1.245118 1.3260498v4.3018799h1.537719v-4.6816407c0-1.413208-.821777-2.2536621-2.18518-2.2536621-.946289 0-1.730713.4855957-2.066895 1.2264405h-.105835c-.286377-.7532959-.940063-1.2264405-1.880127-1.2264405-.90271 0-1.599975.4606934-1.892578 1.2264405h-.105835v-1.0957032h-1.487915v6.8045655zm15.875245.1120605c.946289 0 1.730712-.4420166 2.116699-1.1890869h.105835v1.0770264h1.49414v-9.4379883h-1.543945v3.7166748h-.105835c-.361084-.7470703-1.133057-1.1953125-2.066894-1.1953125-1.718262 0-2.801514 1.3571777-2.801514 3.5112304 0 2.1602784 1.077026 3.5174561 2.801514 3.5174561zm.47937-1.2824707c-1.05835 0-1.699585-.8342285-1.699585-2.2287598 0-1.3883056.647461-2.2287597 1.699585-2.2287597 1.058349 0 1.712036.8529052 1.712036 2.2287597 0 1.3820801-.647461 2.2287598-1.712036 2.2287598zm8.062133 1.307373c1.606202 0 2.745484-.7719726 3.025635-1.998413h-1.463013c-.224121.510498-.753295.796875-1.519042.796875-1.014771 0-1.668458-.722168-1.705811-1.8739014v-.0809326h4.756348v-.4918213c0-2.135376-1.164185-3.4240723-3.106568-3.4240723-1.97351 0-3.199951 1.3758545-3.199951 3.5610352 0 2.1789551 1.207764 3.5112304 3.212402 3.5112304zm1.550171-4.1835937h-3.206176c.068481-1.0209961.715942-1.6871338 1.637329-1.6871338.927612 0 1.537719.6536865 1.568847 1.6871338zm6.624024 4.0466309 2.409302-6.8045655h-1.631104l-1.562622 5.2917481h-.105835l-1.575073-5.2917481h-1.656006l2.421753 6.8045655zm6.58667.1369628c1.606201 0 2.745483-.7719726 3.025634-1.998413h-1.463012c-.224121.510498-.753296.796875-1.519043.796875-1.014771 0-1.668457-.722168-1.705811-1.8739014v-.0809326h4.756348v-.4918213c0-2.135376-1.164185-3.4240723-3.106567-3.4240723-1.973511 0-3.199952 1.3758545-3.199952 3.5610352 0 2.1789551 1.207764 3.5112304 3.212403 3.5112304zm1.550171-4.1835937h-3.206177c.068481-1.0209961.715942-1.6871338 1.637329-1.6871338.927612 0 1.53772.6536865 1.568848 1.6871338zm4.700317 4.0466309v-9.4379883h-1.543945v9.4379883zm4.887085.1369628c2.035767 0 3.274658-1.3322753 3.274658-3.5423584 0-2.1976318-1.245117-3.5299072-3.274658-3.5299072-2.023316 0-3.274658 1.338501-3.274658 3.5299072 0 2.2100831 1.232666 3.5423584 3.274658 3.5423584zm0-1.2637939c-1.077026 0-1.693359-.8342285-1.693359-2.2723389 0-1.4381103.616333-2.2723388 1.693359-2.2723388 1.070801 0 1.687134.8342285 1.687134 2.2723388 0 1.4381104-.610108 2.2723389-1.687134 2.2723389zm6.375 3.3867188v-3.293335h.105835c.348633.722168 1.101929 1.1455078 2.079346 1.1455078 1.718261 0 2.789062-1.3509521 2.789062-3.5112305 0-2.178955-1.083252-3.517456-2.807739-3.517456-.933838 0-1.724487.4669189-2.116699 1.2388916h-.105835v-1.1268311h-1.487915v9.0644532zm1.680908-3.4302979c-1.052124 0-1.70581-.8529053-1.712036-2.2287598.006226-1.3758545.666138-2.2287597 1.718262-2.2287597 1.058349 0 1.699585.8342285 1.699585 2.2287597 0 1.3945313-.63501 2.2287598-1.705811 2.2287598zm7.719727 1.307373c1.606201 0 2.745483-.7719726 3.025634-1.998413h-1.463012c-.224121.510498-.753296.796875-1.519043.796875-1.014771 0-1.668457-.722168-1.705811-1.8739014v-.0809326h4.756348v-.4918213c0-2.135376-1.164185-3.4240723-3.106567-3.4240723-1.973511 0-3.199952 1.3758545-3.199952 3.5610352 0 2.1789551 1.207764 3.5112304 3.212403 3.5112304zm1.550171-4.1835937h-3.206177c.068481-1.0209961.715942-1.6871338 1.637329-1.6871338.927612 0 1.53772.6536865 1.568848 1.6871338zm4.638061 4.0466309v-3.9532471c0-.9587402.697266-1.5812988 1.699585-1.5812988.261475 0 .672363.0435791.790649.0871582v-1.4069825c-.143188-.0373535-.417114-.0622558-.641235-.0622558-.877807 0-1.612427.4980469-1.799194 1.1704101h-.105835v-1.0583496h-1.487915v6.8045655zm8.578858-5.2357178.722168-3.7478028h-1.145508l-1.145508 3.7478028zm2.789062 0 .616333-3.7478028h-1.145508l-1.033447 3.7478028zm4.320557 5.2357178v-3.3804932h1.780517l1.761841 3.3804932h1.836548l-1.96106-3.6232911c1.070801-.3859863 1.69336-1.3758545 1.69336-2.5649414 0-1.7182617-1.182862-2.7952881-3.069214-2.7952881h-3.648193v8.9835206zm1.855224-4.6380616h-1.855224v-3.0443115h1.817871c1.020996 0 1.643554.5789795 1.643554 1.5252686 0 .9649658-.585205 1.5190429-1.606201 1.5190429zm7.974976 4.7750244c2.035766 0 3.274658-1.3322753 3.274658-3.5423584 0-2.1976318-1.245117-3.5299072-3.274658-3.5299072-2.023316 0-3.274658 1.338501-3.274658 3.5299072 0 2.2100831 1.232666 3.5423584 3.274658 3.5423584zm0-1.2637939c-1.077026 0-1.69336-.8342285-1.69336-2.2723389 0-1.4381103.616334-2.2723388 1.69336-2.2723388 1.070801 0 1.687134.8342285 1.687134 2.2723388 0 1.4381104-.610108 2.2723389-1.687134 2.2723389zm7.75708 3.7166748c1.985962 0 3.24353-.9898682 3.24353-2.5524902v-6.841919h-1.487915v1.0894776h-.105835c-.373535-.7408448-1.182861-1.2015381-2.110473-1.2015381-1.736939 0-2.813965 1.3571777-2.813965 3.442749 0 2.0419922 1.070801 3.3742676 2.789062 3.3742676.946289 0 1.687134-.3984375 2.079346-1.1330567h.105835v1.2949219c0 .8653565-.616333 1.3758545-1.674683 1.3758545-.846679 0-1.394531-.3050537-1.49414-.7844238h-1.550171c.124511 1.1704101 1.270019 1.9361572 3.019409 1.9361572zm0-3.9158935c-1.077026 0-1.687134-.8342286-1.687134-2.1540528 0-1.3135986.610108-2.1478271 1.687134-2.1478271 1.070801 0 1.724487.8342285 1.724487 2.1540527 0 1.3135986-.647461 2.1478272-1.724487 2.1478272zm7.43335 1.4630126c1.039672 0 1.70581-.4420166 2.035766-1.2202148h.105835v1.083252h1.487915v-6.8045655h-1.543945v3.9656983c0 1.0272216-.547852 1.6497802-1.550171 1.6497802-.921387 0-1.350952-.510498-1.350952-1.5688476v-4.0466309h-1.543946v4.420166c0 1.59375.871583 2.5213623 2.359498 2.5213623zm8.398315 0c1.606201 0 2.745483-.7719726 3.025635-1.998413h-1.463013c-.224121.510498-.753296.796875-1.519043.796875-1.01477 0-1.668457-.722168-1.70581-1.8739014v-.0809326h4.756347v-.4918213c0-2.135376-1.164184-3.4240723-3.106567-3.4240723-1.973511 0-3.199951 1.3758545-3.199951 3.5610352 0 2.1789551 1.207763 3.5112304 3.212402 3.5112304zm1.550171-4.1835937h-3.206177c.068482-1.0209961.715943-1.6871338 1.637329-1.6871338.927613 0 1.53772.6536865 1.568848 1.6871338zm7.613891 4.0466309.771973-2.3221436h3.305786l.759522 2.3221436h1.724487l-3.193726-8.9835206h-1.805419l-3.1875 8.9835206zm3.704224-3.5610352h-2.558716l1.232666-3.7353516h.105835zm5.783569 3.5610352v-4.1400147c0-.8466797.566529-1.487915 1.332276-1.487915.759521 0 1.232666.4606933 1.232666 1.2139892v4.4139405h1.500366v-4.2520752c0-.7781983.529175-1.3758545 1.332275-1.3758545.828003 0 1.245118.4420166 1.245118 1.3260498v4.3018799h1.537719v-4.6816407c0-1.413208-.821777-2.2536621-2.18518-2.2536621-.946289 0-1.730713.4855957-2.066895 1.2264405h-.105835c-.286377-.7532959-.940063-1.2264405-1.880127-1.2264405-.90271 0-1.599975.4606934-1.892578 1.2264405h-.105835v-1.0957032h-1.487915v6.8045655zm12.949219.1369628c2.035767 0 3.274658-1.3322753 3.274658-3.5423584 0-2.1976318-1.245117-3.5299072-3.274658-3.5299072-2.023315 0-3.274658 1.338501-3.274658 3.5299072 0 2.2100831 1.232666 3.5423584 3.274658 3.5423584zm0-1.2637939c-1.077026 0-1.693359-.8342285-1.693359-2.2723389 0-1.4381103.616333-2.2723388 1.693359-2.2723388 1.070801 0 1.687134.8342285 1.687134 2.2723388 0 1.4381104-.610107 2.2723389-1.687134 2.2723389zm7.707276 1.2637939c1.606201 0 2.745483-.7719726 3.025634-1.998413h-1.463012c-.224121.510498-.753296.796875-1.519043.796875-1.014771 0-1.668457-.722168-1.705811-1.8739014v-.0809326h4.756348v-.4918213c0-2.135376-1.164185-3.4240723-3.106568-3.4240723-1.97351 0-3.199951 1.3758545-3.199951 3.5610352 0 2.1789551 1.207764 3.5112304 3.212403 3.5112304zm1.55017-4.1835937h-3.206176c.068481-1.0209961.715942-1.6871338 1.637329-1.6871338.927612 0 1.53772.6536865 1.568847 1.6871338zm6.879273 4.1586914c1.718262 0 2.795288-1.3509521 2.795288-3.5112305 0-2.1727295-1.070801-3.517456-2.795288-3.517456-.933838 0-1.718262.4544678-2.07312 1.1953125h-.105835v-3.7166748h-1.543945v9.4379883h1.487915v-1.0770264h.105835c.385986.7470703 1.176635 1.1890869 2.12915 1.1890869zm-.485596-1.2824707c-1.058349 0-1.718261-.8529053-1.718261-2.2287598s.666137-2.2287597 1.718261-2.2287597 1.69336.8404541 1.69336 2.2287597c0 1.3883057-.63501 2.2287598-1.69336 2.2287598zm6.704956 1.2824707c.890259 0 1.637329-.3859863 2.01709-1.0458984h.105835v.9338379h1.487915v-4.6505127c0-1.4381104-.983642-2.2847901-2.733032-2.2847901-1.618652 0-2.745483.7595215-2.869995 1.9486084h1.456787c.143188-.4669189.628784-.7221679 1.338501-.7221679.834228 0 1.282471.3797607 1.282471 1.0583496v.585205l-1.755616.105835c-1.656005.0933838-2.583618.8093262-2.583618 2.029541 0 1.2451172.940064 2.0419922 2.253662 2.0419922zm.454468-1.1890869c-.684814 0-1.176636-.3424072-1.176636-.9276123 0-.5665283.404663-.8840332 1.27002-.9400635l1.53772-.105835v.5540772c0 .8093262-.697266 1.4194336-1.631104 1.4194336zm-301.2934569 16.6011474c2.178955 0 3.5299072-1.0832519 3.5299072-2.826416 0-1.3634033-.7657471-2.1229248-2.5898438-2.540039l-1.0334472-.2365723c-1.1143799-.2614746-1.5688477-.616333-1.5688477-1.232666 0-.7781983.6848145-1.2886963 1.7182617-1.2886963.9836426 0 1.6809082.5042725 1.7929688 1.307373h1.5377197c-.074707-1.5377197-1.4381103-2.614746-3.3244629-2.614746-2.0108642 0-3.3431396 1.0832519-3.3431396 2.7019043 0 1.3322753.765747 2.1353759 2.3968506 2.5089111l1.1641845.2677002c1.1517334.2677002 1.6435547.6661377 1.6435547 1.3198242 0 .7657471-.7657471 1.3198242-1.8240967 1.3198242-1.1392822 0-1.9361572-.5229492-2.0357666-1.3447265h-1.5688476c.0809326 1.6248779 1.4443359 2.6583251 3.5050049 2.6583251zm8.1119384-.0871582c2.0357666 0 3.2746582-1.3322753 3.2746582-3.5423584 0-2.1976318-1.2451172-3.5299072-3.2746582-3.5299072-2.0233154 0-3.2746582 1.338501-3.2746582 3.5299072 0 2.2100831 1.232666 3.5423584 3.2746582 3.5423584zm0-1.2637939c-1.0770263 0-1.6933593-.8342285-1.6933593-2.2723389 0-1.4381103.616333-2.2723388 1.6933593-2.2723388 1.0708008 0 1.6871338.8342285 1.6871338 2.2723388 0 1.4381104-.6101074 2.2723389-1.6871338 2.2723389zm6.8668213 1.1268311v-5.5594483h1.4630127v-1.2015381h-1.4816894v-.6287842c0-.6474609.2863769-.9711914 1.0147705-.9711914.2178955 0 .4046631.0186768.5291748.0373536v-1.1143799c-.2490235-.0435791-.5291748-.0622559-.8591309-.0622559-1.5128174 0-2.2038574.6661377-2.2038574 2.0233154v.7159424h-1.1143799v1.2015381h1.1143799v5.5594483zm5.6279297.0311279c.2988281 0 .5852051-.0249024.8093262-.0684815v-1.1828613c-.1867676.0186768-.3050537.0311279-.5229492.0311279-.647461 0-.9338379-.3050537-.9338379-.9836425v-3.3867188h1.4567871v-1.2015381h-1.4567871v-1.7120361h-1.5377198v1.7120361h-1.0770263v1.2015381h1.0770263v3.7540283c0 1.3135987.6225586 1.8365479 2.1851807 1.8365479zm5.2543945-.0311279 1.3198243-4.9306641h.1058349l1.3260498 4.9306641h1.624878l1.8427734-6.8045655h-1.5377197l-1.1268311 5.1112061h-.105835l-1.3198242-5.1112061h-1.4754638l-1.3073731 5.1112061h-.1058349l-1.1330567-5.1112061h-1.5563965l1.8427735 6.8045655zm9.4379883.1120605c.8902588 0 1.6373291-.3859863 2.0170899-1.0458984h.1058349v.9338379h1.4879151v-4.6505127c0-1.4381104-.9836426-2.2847901-2.7330323-2.2847901-1.6186523 0-2.7454834.7595215-2.8699951 1.9486084h1.4567871c.1431885-.4669189.6287842-.7221679 1.338501-.7221679.8342285 0 1.2824707.3797607 1.2824707 1.0583496v.585205l-1.7556152.105835c-1.6560059.0933838-2.5836182.8093262-2.5836182 2.029541 0 1.2451172.9400635 2.0419922 2.2536621 2.0419922zm.4544678-1.1890869c-.6848145 0-1.1766357-.3424072-1.1766357-.9276123 0-.5665283.404663-.8840332 1.2700195-.9400635l1.5377197-.105835v.5540772c0 .8093262-.6972656 1.4194336-1.6311035 1.4194336zm6.555542 1.0770264v-3.9532471c0-.9587402.6972656-1.5812988 1.6995849-1.5812988.2614747 0 .6723633.0435791.7906495.0871582v-1.4069825c-.1431885-.0373535-.4171143-.0622558-.6412354-.0622558-.8778076 0-1.6124267.4980469-1.7991943 1.1704101h-.105835v-1.0583496h-1.487915v6.8045655zm6.630249.1369628c1.6062012 0 2.7454834-.7719726 3.0256348-1.998413h-1.4630127c-.2241211.510498-.7532959.796875-1.519043.796875-1.0147705 0-1.668457-.722168-1.7058105-1.8739014v-.0809326h4.7563476v-.4918213c0-2.135376-1.1641846-3.4240723-3.1065674-3.4240723-1.9735107 0-3.1999511 1.3758545-3.1999511 3.5610352 0 2.1789551 1.2077636 3.5112304 3.2124023 3.5112304zm1.5501709-4.1835937h-3.2061768c.0684815-1.0209961.7159424-1.6871338 1.6373292-1.6871338.9276123 0 1.5377197.6536865 1.5688476 1.6871338zm4.09021 6.4185791 1.0770263-3.7415772h-1.562622l-.5789795 3.7415772zm12.4885254-2.3719482v-1.3758545h-4.1213379v-7.6076661h-1.6062012v8.9835206zm7.4582519 0v-1.3758545h-4.1213379v-7.6076661h-1.6062012v8.9835206zm5.4785157.224121c2.07312 0 3.592163-1.2264404 3.803833-3.0443115h-1.581299c-.217895 1.0085449-1.083252 1.6497803-2.222534 1.6497803-1.531494 0-2.484009-1.2762451-2.484009-3.3244629 0-2.0419922.952515-3.3182373 2.477783-3.3182373 1.133057 0 1.998413.7034912 2.222535 1.7867432h1.581298c-.186767-1.8614502-1.76184-3.1812744-3.803833-3.1812744-2.5462643 0-4.1213375 1.7991943-4.1213375 4.7189941 0 2.9073486 1.5812988 4.7127685 4.1275635 4.7127685zm6.611572-5.4598388 1.039673-3.7478028h-1.562622l-.616333 3.7478028zm2.683228 0 1.145508-3.7478028h-1.562623l-.722167 3.7478028zm9.19519 5.2357178 1.319824-4.9306641h.105835l1.32605 4.9306641h1.624878l1.842774-6.8045655h-1.53772l-1.126831 5.1112061h-.105835l-1.319824-5.1112061h-1.475464l-1.307373 5.1112061h-.105835l-1.133057-5.1112061h-1.556396l1.842773 6.8045655zm9.437988.1120605c.890259 0 1.63733-.3859863 2.01709-1.0458984h.105835v.9338379h1.487915v-4.6505127c0-1.4381104-.983642-2.2847901-2.733032-2.2847901-1.618652 0-2.745483.7595215-2.869995 1.9486084h1.456787c.143189-.4669189.628784-.7221679 1.338501-.7221679.834229 0 1.282471.3797607 1.282471 1.0583496v.585205l-1.755615.105835c-1.656006.0933838-2.583619.8093262-2.583619 2.029541 0 1.2451172.940064 2.0419922 2.253662 2.0419922zm.454468-1.1890869c-.684814 0-1.176636-.3424072-1.176636-.9276123 0-.5665283.404664-.8840332 1.27002-.9400635l1.53772-.105835v.5540772c0 .8093262-.697266 1.4194336-1.631104 1.4194336zm7.570313 1.2139892c1.699585 0 2.901123-.8653564 2.901123-2.1665039 0-1.0023193-.603882-1.5563964-1.90503-1.8552246l-1.201538-.2677002c-.684814-.1618652-1.008545-.4046631-1.008545-.7906494 0-.5042724.529175-.8466797 1.232666-.8466797.722168 0 1.176636.3112793 1.288697.7906494h1.450561c-.11206-1.2264404-1.126831-1.9361572-2.745483-1.9361572-1.606201 0-2.726807.8529053-2.726807 2.0731201 0 1.0209961.616333 1.6186524 1.923706 1.9174805l1.207764.2801514c.647461.149414.940063.3984375.940063.7844238 0 .5167236-.541626.871582-1.319824.871582-.771972 0-1.251343-.3112793-1.400757-.8155517h-1.525268c.118286 1.2264404 1.189087 1.9610595 2.888672 1.9610595zm11.648071-.0249023c1.718262 0 2.795288-1.3509521 2.795288-3.5112305 0-2.1727295-1.070801-3.517456-2.795288-3.517456-.933838 0-1.718262.4544678-2.07312 1.1953125h-.105835v-3.7166748h-1.543945v9.4379883h1.487915v-1.0770264h.105835c.385986.7470703 1.176635 1.1890869 2.12915 1.1890869zm-.485596-1.2824707c-1.058349 0-1.718261-.8529053-1.718261-2.2287598s.666137-2.2287597 1.718261-2.2287597 1.69336.8404541 1.69336 2.2287597c0 1.3883057-.63501 2.2287598-1.69336 2.2287598zm6.437256 1.1704102v-9.4379883h-1.543945v9.4379883zm4.887085.1369628c2.035767 0 3.274658-1.3322753 3.274658-3.5423584 0-2.1976318-1.245117-3.5299072-3.274658-3.5299072-2.023315 0-3.274658 1.338501-3.274658 3.5299072 0 2.2100831 1.232666 3.5423584 3.274658 3.5423584zm0-1.2637939c-1.077026 0-1.693359-.8342285-1.693359-2.2723389 0-1.4381103.616333-2.2723388 1.693359-2.2723388 1.070801 0 1.687134.8342285 1.687134 2.2723388 0 1.4381104-.610108 2.2723389-1.687134 2.2723389zm7.750855 1.2637939c1.724487 0 2.795288-.9587402 2.963379-2.3657226h-1.469239c-.161865.7159424-.697265 1.0957031-1.500366 1.0957031-1.052124 0-1.687134-.8404541-1.687134-2.28479 0-1.4194336.628784-2.2536621 1.687134-2.2536621.84668 0 1.357178.4793701 1.500366 1.1392822h1.469239c-.161866-1.4069824-1.220215-2.4030762-2.969605-2.4030762-2.048218 0-3.249756 1.3135987-3.249756 3.5174561 0 2.2287597 1.207764 3.5548095 3.255982 3.5548095zm6.045044-.1369628v-2.390625l.547851-.5478516 2.185181 2.9384766h1.867676l-2.901123-3.8847657 2.714355-2.9197998h-1.792969l-2.515136 2.7890625h-.105835v-5.4224853h-1.543946v9.4379883zm8.666015.1369628c1.606201 0 2.745484-.7719726 3.025635-1.998413h-1.463013c-.224121.510498-.753296.796875-1.519043.796875-1.01477 0-1.668457-.722168-1.70581-1.8739014v-.0809326h4.756347v-.4918213c0-2.135376-1.164184-3.4240723-3.106567-3.4240723-1.973511 0-3.199951 1.3758545-3.199951 3.5610352 0 2.1789551 1.207764 3.5112304 3.212402 3.5112304zm1.550171-4.1835937h-3.206177c.068482-1.0209961.715943-1.6871338 1.637329-1.6871338.927613 0 1.53772.6536865 1.568848 1.6871338zm5.559448 4.1586914c.946289 0 1.730713-.4420166 2.1167-1.1890869h.105835v1.0770264h1.49414v-9.4379883h-1.543945v3.7166748h-.105835c-.361084-.7470703-1.133057-1.1953125-2.066895-1.1953125-1.718261 0-2.801513 1.3571777-2.801513 3.5112304 0 2.1602784 1.077026 3.5174561 2.801513 3.5174561zm.47937-1.2824707c-1.058349 0-1.699585-.8342285-1.699585-2.2287598 0-1.3883056.647461-2.2287597 1.699585-2.2287597 1.05835 0 1.712037.8529052 1.712037 2.2287597 0 1.3820801-.647461 2.2287598-1.712037 2.2287598zm10.62085 1.1704102v-5.5594483h1.463013v-1.2015381h-1.48169v-.6287842c0-.6474609.286377-.9711914 1.014771-.9711914.217895 0 .404663.0186768.529175.0373536v-1.1143799c-.249024-.0435791-.529175-.0622559-.859131-.0622559-1.512818 0-2.203858.6661377-2.203858 2.0233154v.7159424h-1.11438v1.2015381h1.11438v5.5594483zm4.494873 0v-3.9532471c0-.9587402.697266-1.5812988 1.699585-1.5812988.261475 0 .672363.0435791.790649.0871582v-1.4069825c-.143188-.0373535-.417114-.0622558-.641235-.0622558-.877807 0-1.612427.4980469-1.799194 1.1704101h-.105835v-1.0583496h-1.487915v6.8045655zm6.692505.1369628c2.035767 0 3.274658-1.3322753 3.274658-3.5423584 0-2.1976318-1.245117-3.5299072-3.274658-3.5299072-2.023315 0-3.274658 1.338501-3.274658 3.5299072 0 2.2100831 1.232666 3.5423584 3.274658 3.5423584zm0-1.2637939c-1.077026 0-1.693359-.8342285-1.693359-2.2723389 0-1.4381103.616333-2.2723388 1.693359-2.2723388 1.070801 0 1.687134.8342285 1.687134 2.2723388 0 1.4381104-.610108 2.2723389-1.687134 2.2723389zm6.375 1.1268311v-4.1400147c0-.8466797.566528-1.487915 1.332275-1.487915.759522 0 1.232666.4606933 1.232666 1.2139892v4.4139405h1.500367v-4.2520752c0-.7781983.529174-1.3758545 1.332275-1.3758545.828003 0 1.245117.4420166 1.245117 1.3260498v4.3018799h1.53772v-4.6816407c0-1.413208-.821777-2.2536621-2.185181-2.2536621-.946289 0-1.730713.4855957-2.066894 1.2264405h-.105835c-.286377-.7532959-.940064-1.2264405-1.880127-1.2264405-.90271 0-1.599976.4606934-1.892578 1.2264405h-.105835v-1.0957032h-1.487915v6.8045655zm15.016113 0v-9.4379883h-1.543945v9.4379883zm4.887085.1369628c2.035767 0 3.274658-1.3322753 3.274658-3.5423584 0-2.1976318-1.245117-3.5299072-3.274658-3.5299072-2.023315 0-3.274658 1.338501-3.274658 3.5299072 0 2.2100831 1.232666 3.5423584 3.274658 3.5423584zm0-1.2637939c-1.077026 0-1.693359-.8342285-1.693359-2.2723389 0-1.4381103.616333-2.2723388 1.693359-2.2723388 1.070801 0 1.687134.8342285 1.687134 2.2723388 0 1.4381104-.610107 2.2723389-1.687134 2.2723389zm6.704956 1.2388916c.890259 0 1.637329-.3859863 2.01709-1.0458984h.105835v.9338379h1.487915v-4.6505127c0-1.4381104-.983642-2.2847901-2.733032-2.2847901-1.618652 0-2.745483.7595215-2.869995 1.9486084h1.456787c.143188-.4669189.628784-.7221679 1.338501-.7221679.834228 0 1.282471.3797607 1.282471 1.0583496v.585205l-1.755616.105835c-1.656006.0933838-2.583618.8093262-2.583618 2.029541 0 1.2451172.940064 2.0419922 2.253662 2.0419922zm.454468-1.1890869c-.684814 0-1.176636-.3424072-1.176636-.9276123 0-.5665283.404663-.8840332 1.27002-.9400635l1.53772-.105835v.5540772c0 .8093262-.697266 1.4194336-1.631104 1.4194336zm7.476929 1.1890869c.946289 0 1.730713-.4420166 2.116699-1.1890869h.105835v1.0770264h1.494141v-9.4379883h-1.543946v3.7166748h-.105835c-.361084-.7470703-1.133056-1.1953125-2.066894-1.1953125-1.718262 0-2.801514 1.3571777-2.801514 3.5112304 0 2.1602784 1.077026 3.5174561 2.801514 3.5174561zm.47937-1.2824707c-1.05835 0-1.699585-.8342285-1.699585-2.2287598 0-1.3883056.647461-2.2287597 1.699585-2.2287597 1.058349 0 1.712036.8529052 1.712036 2.2287597 0 1.3820801-.647461 2.2287598-1.712036 2.2287598zm5.970337-6.7734375c.510498 0 .927612-.4046631.927612-.9151611 0-.5042725-.417114-.9151612-.927612-.9151612-.504273 0-.921387.4108887-.921387.9151612 0 .510498.417114.9151611.921387.9151611zm.771972 7.9438477v-6.8045655h-1.537719v6.8045655zm3.455201 0v-3.9656983c0-1.0209961.578979-1.6622314 1.500366-1.6622314.940063 0 1.375854.5291748 1.375854 1.5875244v4.0404053h1.543946v-4.4014893c0-1.6186523-.828003-2.5338135-2.347046-2.5338135-1.014771 0-1.699585.4606934-2.023316 1.2202149h-.105835v-1.0894776h-1.487915v6.8045655zm9.176513 2.5898437c1.985962 0 3.243531-.9898682 3.243531-2.5524902v-6.841919h-1.487915v1.0894776h-.105835c-.373536-.7408448-1.182862-1.2015381-2.110474-1.2015381-1.736939 0-2.813965 1.3571777-2.813965 3.442749 0 2.0419922 1.070801 3.3742676 2.789063 3.3742676.946289 0 1.687133-.3984375 2.079345-1.1330567h.105835v1.2949219c0 .8653565-.616333 1.3758545-1.674682 1.3758545-.84668 0-1.394532-.3050537-1.494141-.7844238h-1.550171c.124512 1.1704101 1.27002 1.9361572 3.019409 1.9361572zm0-3.9158935c-1.077026 0-1.687133-.8342286-1.687133-2.1540528 0-1.3135986.610107-2.1478271 1.687133-2.1478271 1.070801 0 1.724488.8342285 1.724488 2.1540527 0 1.3135986-.647461 2.1478272-1.724488 2.1478272zm6.287842 1.4505615c.591431 0 .996094-.4171143.996094-.9711914 0-.5478516-.404663-.9649659-.996094-.9649659-.585205 0-.996094.4171143-.996094.9649659 0 .5540771.410889.9711914.996094.9711914z" fill="#262626"/></g></g></g></svg>