<svg height="180" viewBox="0 0 180 180" width="180" xmlns="http://www.w3.org/2000/svg"><path d="m100.441415 67.1908282 22.586233.7887287-.265233 7.5952892-9.676302-.3385581c4.807377 5.5710366 7.713887 12.8280017 7.713887 20.763712 0 8.781328-3.559336 16.731327-9.314004 22.485996-5.754669 5.754668-13.7046685 9.314004-22.485996 9.314004s-16.7313275-3.559336-22.4859956-9.314004c-5.7546681-5.754669-9.3140044-13.704668-9.3140044-22.485996 0-5.9074037 1.6104404-11.4387381 4.4169899-16.1783949 2.7018679-4.5628722 6.5115837-8.3922814 11.0587778-11.1177361l3.6558233 6.6731376c-3.3516533 2.0630878-6.1621358 4.920449-8.1690737 8.3098231-2.135983 3.6073094-3.3625173 7.816969-3.3625173 12.3131703 0 6.682645 2.7086772 12.732645 7.0880159 17.111984 4.3793386 4.379339 10.4293386 7.088016 17.1119841 7.088016s12.732645-2.708677 17.111984-7.088016 7.088016-10.429339 7.088016-17.111984c0-5.8995384-2.111617-11.3057623-5.618727-15.5052225l-.333237 9.5475188-7.5953492-.2652355zm-7.641415-13.9908282v27.6h-7.6v-27.6z" fill="none" stroke="#ccc" stroke-width="2.4"/></svg>