<svg height="180" viewBox="0 0 180 180" width="180" xmlns="http://www.w3.org/2000/svg"><g fill="none" fill-rule="evenodd" transform="translate(2 70)"><path d="m0 6v29c0 2.7614237 2.23857625 5 5 5h166c2.761424 0 5-2.2385763 5-5v-29" opacity=".25" stroke="#a0a0a0" stroke-linecap="round" stroke-width="4"/><path d="m170 1c1.380712 0 2.630712.55964406 3.535534 1.46446609.904822.90482204 1.464466 2.15482204 1.464466 3.53553391v28c0 1.3807119-.559644 2.6307119-1.464466 3.5355339s-2.154822 1.4644661-3.535534 1.4644661h-164c-1.38071187 0-2.63071187-.5596441-3.53553391-1.4644661-.90482203-.904822-1.46446609-2.154822-1.46446609-3.5355339v-28c0-1.38071187.55964406-2.63071187 1.46446609-3.53553391.90482204-.90482203 2.15482204-1.46446609 3.53553391-1.46446609z" stroke="#ccc" stroke-width="2"/><rect fill="#a0a0a0" height="4" rx="2" width="84" x="14" y="16"/><rect fill="#a0a0a0" height="12" rx="6" stroke="#a0a0a0" stroke-width="2" width="54" x="109" y="12"/><path d="m126.734375 20.9453125v-.9726563h-2.554687v-1.4257812h2.410156v-.90625h-2.410156v-1.359375h2.554687v-.9726562h-3.734375v5.6367187zm2.065625 0v-2.4882813c0-.5820312.324219-.9570312.851562-.9570312.539063 0 .792969.3164062.792969.921875v2.5234375h1.136719v-2.78125c0-1.0273437-.515625-1.6132813-1.472656-1.6132813-.636719 0-1.074219.3007813-1.273438.7851563h-.070312v-.6914063h-1.101563v4.3007813zm4.8625.0664063c.558594 0 1.027344-.2382813 1.25-.6367188h.070312v.5703125h1.101563v-2.9375c0-.9179687-.644531-1.4570313-1.785156-1.4570313-1.082032 0-1.8125.4960938-1.886719 1.2851563h1.046875c.09375-.2695313.367187-.4140625.777344-.4140625.46875 0 .726562.2148438.726562.5859375v.3554687l-1.042969.0625c-1.070312.0625-1.667968.515625-1.667968 1.2929688 0 .7851562.582031 1.2929688 1.410156 1.2929688zm.375-.8320313c-.394531 0-.671875-.1992187-.671875-.53125 0-.3164063.238281-.5.726562-.53125l.871094-.0585937v.3203124c0 .453125-.398437.8007813-.925781.8007813zm5.503125.8320313c1.082031 0 1.746094-.8398438 1.746094-2.21875 0-1.3867188-.65625-2.21875-1.746094-2.21875-.589844 0-1.074219.2851562-1.292969.7578124h-.070312v-2.3320312h-1.136719v5.9453125h1.101562v-.6757813h.070313c.230469.46875.71875.7421876 1.328125.7421876zm-.394531-.9179688c-.601563 0-.976563-.4960938-.980469-1.296875.003906-.8007812.382812-1.3007812.980469-1.3007812.601562 0 .972656.4960937.972656 1.296875 0 .8085937-.367188 1.3007812-.972656 1.3007812zm4.042187.8515625v-5.9453125h-1.136719v5.9453125zm2.854688.0898437c1.054687 0 1.800781-.5039062 1.96875-1.3046874h-1.058594c-.121094.2929687-.429688.4570312-.878906.4570312-.59375 0-.96875-.4101562-.984375-1.0664062v-.0585938h2.957031v-.3398438c0-1.359375-.75-2.171875-2.019531-2.171875-1.28125 0-2.070313.8671876-2.070313 2.265625 0 1.390625.773438 2.21875 2.085938 2.21875zm.886718-2.6796874h-1.835937c.039062-.578125.410156-.9570313.9375-.9570313.53125 0 .875.3671875.898437.9570313z" fill="#fff" fill-rule="nonzero"/><rect fill="#a0a0a0" height="4" rx="2" width="53" x="14" y="24"/></g></svg>