<svg height="180" viewBox="0 0 180 180" width="180" xmlns="http://www.w3.org/2000/svg"><g fill="none" fill-rule="evenodd"><g transform="translate(18 34)"><path d="m0 6v101c0 2.761424 2.23857625 5 5 5h134c2.761424 0 5-2.238576 5-5v-101" opacity=".25" stroke="#a0a0a0" stroke-linecap="round" stroke-width="4"/><path d="m138 1c1.380712 0 2.630712.55964406 3.535534 1.46446609.904822.90482204 1.464466 2.15482204 1.464466 3.53553391v100c0 1.380712-.559644 2.630712-1.464466 3.535534s-2.154822 1.464466-3.535534 1.464466h-132c-1.38071187 0-2.63071187-.559644-3.53553391-1.464466-.90482203-.904822-1.46446609-2.154822-1.46446609-3.535534v-100c0-1.38071187.55964406-2.63071187 1.46446609-3.53553391.90482204-.90482203 2.15482204-1.46446609 3.53553391-1.46446609z" stroke="#ccc" stroke-width="2"/><rect fill="#a0a0a0" height="9" rx="4.5" width="36" x="102" y="96"/><g stroke="#a0a0a0" stroke-width="4" transform="translate(104.5 43)"><path d="m15.5 0v39.130435"/><path d="m0 25.2173913 15.5 14.7826087 15.5-14.7826087"/></g></g><path d="m18 124h144v2h-144z" fill="#ccc"/><path d="m19 47h141v2h-141z" fill="#ccc"/><g fill="#a0a0a0"><circle cx="25.5" cy="41.5" opacity=".25" r="2.5"/><circle cx="32.5" cy="41.5" opacity=".25" r="2.5"/><circle cx="39.5" cy="41.5" opacity=".25" r="2.5"/></g></g></svg>