<svg height="180" viewBox="0 0 180 180" width="180" xmlns="http://www.w3.org/2000/svg"><g fill="none" fill-rule="evenodd" transform="translate(10 48)"><path d="m0 7v72c0 2.7614237 2.23857625 5 5 5h150c2.761424 0 5-2.2385763 5-5v-72" opacity=".25" stroke="#a0a0a0" stroke-linecap="round" stroke-width="4"/><path d="m154 1c1.380712 0 2.630712.55964406 3.535534 1.46446609.904822.90482204 1.464466 2.15482204 1.464466 3.53553391v72c0 1.3807119-.559644 2.6307119-1.464466 3.5355339s-2.154822 1.4644661-3.535534 1.4644661h-148c-1.38071187 0-2.63071187-.5596441-3.53553391-1.4644661-.90482203-.904822-1.46446609-2.154822-1.46446609-3.5355339v-72c0-1.38071187.55964406-2.63071187 1.46446609-3.53553391.90482204-.90482203 2.15482204-1.46446609 3.53553391-1.46446609z" stroke="#ccc" stroke-width="2"/><g fill="#a0a0a0"><path d="m24.2857143 12c5.3650518 0 9.7142857 4.3492339 9.7142857 9.7142857l-.0008571 4.2857143h.9151428c1.1045695 0 2 .8954305 2 2v14c0 1.1045695-.8954305 2-2 2h-21.2571428c-1.1045695 0-2-.8954305-2-2v-14c0-1.1045695.8954305-2 2-2h.914l.0002857-4.2857143c0-5.3650518 4.3492338-9.7142857 9.7142857-9.7142857zm0 4c-3.2190311 0-5.8285714 2.6095403-5.8285714 5.8285714v4.1714286h11.6571428v-4.1714286c0-3.2190311-2.6095403-5.8285714-5.8285714-5.8285714z"/><rect height="4" rx="2" width="101" x="46" y="13"/><rect height="4" rx="2" width="29" x="46" y="30"/></g><rect height="10" rx="5" stroke="#ccc" stroke-width="2" width="66.971429" x="79.314286" y="27"/><rect fill="#a0a0a0" height="8" rx="4" stroke="#a0a0a0" stroke-width="2" width="33" x="113" y="63"/><rect fill="#ccc" height="10" rx="5" width="35" x="67" y="62"/><rect height="10" rx="5" stroke="#ccc" stroke-width="2" width="67" x="80" y="43"/><g fill="#a0a0a0"><rect height="2" rx="1" width="44" x="83" y="31"/><path d="m84.1428571 47c.5365052 0 .9714286.4477153.9714286 1s-.4349234 1-.9714286 1c-.5365051 0-.9714285-.4477153-.9714285-1s.4349234-1 .9714285-1zm3.8857143 0c.5365052 0 .9714286.4477153.9714286 1s-.4349234 1-.9714286 1-.9714285-.4477153-.9714285-1 .4349233-1 .9714285-1zm3.8857143 0c.5365052 0 .9714286.4477153.9714286 1s-.4349234 1-.9714286 1-.9714286-.4477153-.9714286-1 .4349234-1 .9714286-1zm3.8857143 0c.5365052 0 .9714286.4477153.9714286 1s-.4349234 1-.9714286 1-.9714286-.4477153-.9714286-1 .4349234-1 .9714286-1zm3.8857143 0c.5365047 0 .9714287.4477153.9714287 1s-.434924 1-.9714287 1c-.5365052 0-.9714286-.4477153-.9714286-1s.4349234-1 .9714286-1zm3.8857147 0c.536505 0 .971428.4477153.971428 1s-.434923 1-.971428 1c-.536506 0-.971429-.4477153-.971429-1s.434923-1 .971429-1zm3.885714 0c.536505 0 .971428.4477153.971428 1s-.434923 1-.971428 1-.971429-.4477153-.971429-1 .434924-1 .971429-1zm3.885714 0c.536505 0 .971429.4477153.971429 1s-.434924 1-.971429 1-.971428-.4477153-.971428-1 .434923-1 .971428-1zm3.885714 0c.536506 0 .971429.4477153.971429 1s-.434923 1-.971429 1c-.536505 0-.971428-.4477153-.971428-1s.434923-1 .971428-1zm3.885715 0c.536505 0 .971428.4477153.971428 1s-.434923 1-.971428 1-.971429-.4477153-.971429-1 .434924-1 .971429-1z"/><rect height="4" rx="2" width="29" x="46" y="46"/></g></g></svg>