<svg height="180" viewBox="0 0 180 180" width="180" xmlns="http://www.w3.org/2000/svg"><g fill="none" fill-rule="evenodd" transform="translate(2 70)"><path d="m0 6v29c0 2.7614237 2.23857625 5 5 5h166c2.761424 0 5-2.2385763 5-5v-29" opacity=".25" stroke="#a0a0a0" stroke-linecap="round" stroke-width="4"/><path d="m170 1c1.380712 0 2.630712.55964406 3.535534 1.46446609.904822.90482204 1.464466 2.15482204 1.464466 3.53553391v28c0 1.3807119-.559644 2.6307119-1.464466 3.5355339s-2.154822 1.4644661-3.535534 1.4644661h-164c-1.38071187 0-2.63071187-.5596441-3.53553391-1.4644661-.90482203-.904822-1.46446609-2.154822-1.46446609-3.5355339v-28c0-1.38071187.55964406-2.63071187 1.46446609-3.53553391.90482204-.90482203 2.15482204-1.46446609 3.53553391-1.46446609z" stroke="#ccc" stroke-width="2"/><rect fill="#a0a0a0" height="4" rx="2" width="84" x="14" y="16"/><rect fill="#a0a0a0" height="12" rx="6" stroke="#a0a0a0" stroke-width="2" width="54" x="109" y="12"/><path d="m126.3125 21 .433594-1.3671875h1.980468l.425782 1.3671875h1.277344l-1.957032-5.6367188h-1.386718l-1.957032 5.6367188zm2.164062-2.25h-1.476562l.707031-2.2421875h.070313zm3.976563 2.25v-5.9453125h-1.136719v5.9453125zm2.355469 0v-5.9453125h-1.136719v5.9453125zm3.089844.0898438c1.324218 0 2.121093-.8359376 2.121093-2.2421876 0-1.3945312-.808593-2.2421874-2.121093-2.2421874s-2.121094.8515624-2.121094 2.2421874c0 1.4023438.796875 2.2421876 2.121094 2.2421876zm0-.8984376c-.609376 0-.953126-.4921874-.953126-1.34375 0-.84375.347657-1.3398437.953126-1.3398437.601562 0 .953124.4960937.953124 1.3398437 0 .8515626-.347656 1.34375-.953124 1.34375zm5.058593.8085938.761719-3h.070312l.769532 3h1.210937l1.144531-4.3007812h-1.128906l-.640625 3.1132812h-.070312l-.757813-3.1132812h-1.085937l-.753907 3.1132812h-.070312l-.640625-3.1132812h-1.152344l1.148438 4.3007812z" fill="#fff" fill-rule="nonzero"/><rect fill="#a0a0a0" height="4" rx="2" width="53" x="14" y="24"/></g></svg>