<svg height="180" viewBox="0 0 180 180" width="180" xmlns="http://www.w3.org/2000/svg"><g fill="none" fill-rule="evenodd" transform="translate(11 45)"><path d="m0 7v78c0 2.7614237 2.23857625 5 5 5h148c2.761424 0 5-2.2385763 5-5v-78" opacity=".25" stroke="#a0a0a0" stroke-linecap="round" stroke-width="4"/><path d="m152 1c1.380712 0 2.630712.55964406 3.535534 1.46446609.904822.90482204 1.464466 2.15482204 1.464466 3.53553391v78c0 1.3807119-.559644 2.6307119-1.464466 3.5355339s-2.154822 1.4644661-3.535534 1.4644661h-146c-1.38071187 0-2.63071187-.5596441-3.53553391-1.4644661-.90482203-.904822-1.46446609-2.154822-1.46446609-3.5355339v-78c0-1.38071187.55964406-2.63071187 1.46446609-3.53553391.90482204-.90482203 2.15482204-1.46446609 3.53553391-1.46446609z" stroke="#ccc" stroke-width="2"/><g fill="#a0a0a0"><rect height="4" rx="2" width="81" x="7" y="7"/><rect height="4" rx="2" width="29" x="18" y="17"/><rect height="4" rx="2" width="26" x="18" y="36"/><rect height="10" rx="5" width="27" x="124" y="73"/><rect height="8" rx="4" width="8" x="7" y="15"/><rect height="8" rx="4" width="8" x="7" y="34"/><rect height="8" rx="2" width="8" x="18" y="50"/><rect height="8" rx="2" width="8" x="18" y="61"/></g><rect fill="#fff" height="3" rx="1.5" width="3" x="9.5" y="36.5"/><rect fill="#ededed" height="10" rx="5" width="27" x="92" y="73"/><g fill="#a0a0a0"><rect height="2" rx="1" width="113" x="18" y="24"/><rect height="2" rx="1" width="81" x="18" y="28"/><rect height="2" rx="1" width="80" x="18" y="44"/><rect height="2" rx="1" width="70" x="28" y="53"/><rect height="2" rx="1" width="75" x="28" y="64"/></g><path d="m20.5 54 .8335899 1.2503849c.0612705.0919057.1854444.1167405.2773501.05547.0219705-.0146469.0408231-.0334995.0554701-.05547l1.8335899-2.7503849" stroke="#fff"/></g></svg>