<svg height="180" viewBox="0 0 180 180" width="180" xmlns="http://www.w3.org/2000/svg"><g fill="none" fill-rule="evenodd" transform="translate(31 25)"><path d="m0 7v118c0 2.761424 2.23857625 5 5 5h108c2.761424 0 5-2.238576 5-5v-118" opacity=".25" stroke="#a0a0a0" stroke-linecap="round" stroke-width="4"/><path d="m112 1c1.380712 0 2.630712.55964406 3.535534 1.46446609.904822.90482204 1.464466 2.15482204 1.464466 3.53553391v118c0 1.380712-.559644 2.630712-1.464466 3.535534s-2.154822 1.464466-3.535534 1.464466h-106c-1.38071187 0-2.63071187-.559644-3.53553391-1.464466-.90482203-.904822-1.46446609-2.154822-1.46446609-3.535534v-118c0-1.38071187.55964406-2.63071187 1.46446609-3.53553391.90482204-.90482203 2.15482204-1.46446609 3.53553391-1.46446609z" stroke="#ccc" stroke-width="2"/><rect fill="#a0a0a0" height="4" rx="2" width="81" x="19" y="43"/><rect fill="#a0a0a0" height="10" rx="5" width="104" x="7" y="97"/><rect fill="#ededed" height="10" rx="5" width="104" x="7" y="112"/><g fill="#a0a0a0"><rect height="2" rx="1" width="81" x="19" y="56"/><rect height="2" rx="1" width="93" x="13" y="63"/><rect height="2" rx="1" width="95" x="12" y="69"/><rect height="2" rx="1" width="95" x="12" y="75"/><rect height="2" rx="1" width="51" x="33" y="82"/></g><g stroke="#a0a0a0" stroke-width="2"><path d="m59 16.3453624 8.6689647 7.8020683c.2107139.1896424.3310353.4598076.3310353.7432941v8.1092752c0 .2761424-.1119288.5261424-.2928932.7071068s-.4309644.2928932-.7071068.2928932h-16c-.2761424 0-.5261424-.1119288-.7071068-.2928932s-.2928932-.4309644-.2928932-.7071068v-8.1092752c0-.2834865.1203214-.5536517.3310353-.7432941z" fill="#ededed"/><circle cx="59" cy="27" fill="#ededed" r="4"/><path d="m46 23 13-12 13 12"/><path d="m67 18c0-3 0-5.1666667 0-6.5"/></g></g></svg>